<svg xmlns="http://www.w3.org/2000/svg" xmlns:xlink="http://www.w3.org/1999/xlink" width="414" height="62" viewBox="0 0 414 62">
  <defs>
    <clipPath id="clip-path">
      <rect id="사각형_561" data-name="사각형 561" width="62" height="414" transform="translate(0 62) rotate(-90)" fill="none"/>
    </clipPath>
  </defs>
  <g id="그룹_551" data-name="그룹 551" transform="translate(-806.199 -65.128)" opacity="0.31" style="isolation: isolate">
    <g id="그룹_550" data-name="그룹 550" transform="translate(806.199 65.128)" clip-path="url(#clip-path)">
      <path id="패스_713" data-name="패스 713" d="M0,1.472l146.5,162.346L141.389.435Z" transform="matrix(-0.017, 1, -1, -0.017, 418.074, -63.003)" fill="#fff" opacity="0.21" style="mix-blend-mode: multiply;isolation: isolate"/>
      <path id="패스_717" data-name="패스 717" d="M1839.41,168.561c17.9-4.139,28.943-10.913,36.891-17.754,40.766-35.09,12.456-76.832-57.057-106.259S1644.229-2.8,1535.306-10.249c98.084-5.314,198.169.394,297.49.062,54.271-.181,108.533-2.171,162.727-1.169-9.566,13.693-14.73,27.741-15.371,41.813-.653,14.333,3.367,28.638,4.9,42.963,2.983,27.816-3.4,55.639-9.788,83.389a4.332,4.332,0,0,1-3.039,3.543c-3.119,1.267-8.546,1.457-13.4,1.555l-178.792,3.584" transform="translate(-1553.731 -14.242)" fill="#fff" opacity="0.2" style="mix-blend-mode: multiply;isolation: isolate"/>
    </g>
  </g>
</svg>
