<svg xmlns="http://www.w3.org/2000/svg" width="107.847" height="103.157" viewBox="0 0 107.847 103.157">
  <g id="그룹_1981" data-name="그룹 1981" transform="translate(1.272 1)">
    <g id="그룹_1980" data-name="그룹 1980" transform="translate(0 0)">
      <path id="패스_5098" data-name="패스 5098" d="M917.04,639.307a38.236,38.236,0,1,0,38.236-38.236" transform="translate(-906.296 -584.561)" fill="none" stroke="#dcdddd" stroke-linecap="round" stroke-linejoin="round" stroke-width="2" stroke-dasharray="1 7"/>
      <g id="그룹_1979" data-name="그룹 1979" transform="translate(0)">
        <g id="그룹_1978" data-name="그룹 1978">
          <g id="그룹_1970" data-name="그룹 1970" transform="translate(29.082)">
            <path id="패스_5099" data-name="패스 5099" d="M1017.87,600.749a11.408,11.408,0,0,0-14.9-14.907,22.693,22.693,0,0,0-42.92,14.72,13.5,13.5,0,0,0,3.887,26.424h49.495a13.492,13.492,0,0,0,4.435-26.236Z" transform="translate(-950.441 -571)" fill="#fff" stroke="#3e3a39" stroke-linecap="round" stroke-linejoin="round" stroke-width="2"/>
            <path id="패스_5100" data-name="패스 5100" d="M993.889,582.5a16.373,16.373,0,0,0-16.372,16.373" transform="translate(-962.652 -576.188)" fill="none" stroke="#2eb7ff" stroke-linecap="round" stroke-linejoin="round" stroke-width="2"/>
          </g>
          <path id="패스_5101" data-name="패스 5101" d="M1005.132,664.879V647.756h5.849l-11.85-11.85-11.85,11.85h5.849v17.123" transform="translate(-937.973 -600.271)" fill="#ffd041" stroke="#3e3a39" stroke-linecap="round" stroke-linejoin="round" stroke-width="2"/>
          <line id="선_224" data-name="선 224" y2="8.379" transform="translate(61.157 54.771)" fill="none" stroke="#3e3a39" stroke-linecap="round" stroke-linejoin="round" stroke-width="2"/>
          <g id="그룹_1972" data-name="그룹 1972" transform="translate(0 20.623)">
            <g id="그룹_1971" data-name="그룹 1971" transform="translate(0 0)">
              <ellipse id="타원_149" data-name="타원 149" cx="13.993" cy="13.993" rx="13.993" ry="13.993" transform="matrix(0.945, -0.327, 0.327, 0.945, 0, 9.155)" fill="#ff6e6e" stroke="#3e3a39" stroke-linecap="round" stroke-linejoin="round" stroke-width="2"/>
              <path id="패스_5102" data-name="패스 5102" d="M917.871,630.856a7.865,7.865,0,1,0,11.123,0" transform="translate(-905.632 -618.617)" fill="none" stroke="#3e3a39" stroke-linecap="round" stroke-linejoin="round" stroke-width="2"/>
            </g>
            <line id="선_225" data-name="선 225" y2="5.597" transform="translate(17.801 9.405)" fill="none" stroke="#3e3a39" stroke-linecap="round" stroke-linejoin="round" stroke-width="2"/>
          </g>
          <g id="그룹_1977" data-name="그룹 1977" transform="translate(30.515 48.455)">
            <g id="그룹_1976" data-name="그룹 1976" transform="translate(0 12.145)">
              <g id="그룹_1973" data-name="그룹 1973" transform="translate(0 1.466)">
                <path id="패스_5103" data-name="패스 5103" d="M1014.493,692.489l-2.921-2.921,4.913-4.913a2.065,2.065,0,0,1,2.921,0h0a2.064,2.064,0,0,1,0,2.921Z" transform="translate(-979.444 -684.05)" fill="#2eb7ff" stroke="#3e3a39" stroke-linecap="round" stroke-linejoin="round" stroke-width="2"/>
                <path id="패스_5104" data-name="패스 5104" d="M958.57,692.489l2.921-2.921-4.913-4.913a2.065,2.065,0,0,0-2.921,0h0a2.064,2.064,0,0,0,0,2.921Z" transform="translate(-953.052 -684.05)" fill="#2eb7ff" stroke="#3e3a39" stroke-linecap="round" stroke-linejoin="round" stroke-width="2"/>
              </g>
              <g id="그룹_1975" data-name="그룹 1975" transform="translate(0.005)">
                <g id="그룹_1974" data-name="그룹 1974">
                  <ellipse id="타원_150" data-name="타원 150" cx="20.278" cy="20.278" rx="20.278" ry="20.278" fill="#fff" stroke="#3e3a39" stroke-linecap="round" stroke-linejoin="round" stroke-width="2"/>
                  <path id="패스_5105" data-name="패스 5105" d="M992.707,705.853a15.172,15.172,0,0,0-30.345,0" transform="translate(-957.256 -685.575)" fill="none" stroke="#3e3a39" stroke-linecap="round" stroke-linejoin="round" stroke-width="2"/>
                  <path id="패스_5106" data-name="패스 5106" d="M990.59,715.589a3.32,3.32,0,1,0-3.32,3.319A3.32,3.32,0,0,0,990.59,715.589Z" transform="translate(-966.992 -695.31)" fill="#ffd041" stroke="#3e3a39" stroke-linecap="round" stroke-linejoin="round" stroke-width="2"/>
                </g>
                <rect id="사각형_655" data-name="사각형 655" width="18.025" height="4.882" transform="translate(11.266 27.413)" fill="#2eb7ff" stroke="#3e3a39" stroke-linecap="round" stroke-linejoin="round" stroke-width="2"/>
              </g>
            </g>
            <path id="패스_5107" data-name="패스 5107" d="M1057.167,672.888h-8.093v-13.63L1036.3,680.129h8.093v13.63Z" transform="translate(-990.594 -659.258)" fill="#ffe141" stroke="#3e3a39" stroke-linecap="round" stroke-linejoin="round" stroke-width="2"/>
          </g>
        </g>
      </g>
    </g>
    <path id="패스_5108" data-name="패스 5108" d="M909.933,577.682l-2.326,5.075h4.864l-2.326,5.075" transform="translate(-902.042 -574.013)" fill="none" stroke="#dcdddd" stroke-linecap="round" stroke-linejoin="round" stroke-width="2"/>
    <path id="패스_5109" data-name="패스 5109" d="M1075.168,577.682l-2.326,5.075h4.864l-2.326,5.075" transform="translate(-976.56 -574.013)" fill="none" stroke="#dcdddd" stroke-linecap="round" stroke-linejoin="round" stroke-width="2"/>
    <path id="패스_5110" data-name="패스 5110" d="M946.41,586.263l-3.083,6.727h6.447l-3.083,6.727" transform="translate(-918.151 -577.883)" fill="none" stroke="#dcdddd" stroke-linecap="round" stroke-linejoin="round" stroke-width="2"/>
  </g>
</svg>
