<svg xmlns="http://www.w3.org/2000/svg" width="103.158" height="98.767" viewBox="0 0 103.158 98.767">
  <g id="그룹_1935" data-name="그룹 1935" transform="translate(1 1)">
    <path id="패스_5046" data-name="패스 5046" d="M945.354,478.3h59.265a4.118,4.118,0,0,1,4.118,4.118h0a4.118,4.118,0,0,1-4.118,4.118H945.354" transform="translate(-923.177 -390.394)" fill="none" stroke="#dcdddd" stroke-linecap="round" stroke-linejoin="round" stroke-width="2" stroke-dasharray="1 7"/>
    <g id="그룹_1934" data-name="그룹 1934" transform="translate(0 0)">
      <path id="패스_5047" data-name="패스 5047" d="M1043.372,369.2V358.461l-5.465-1.051a23.157,23.157,0,0,0-2.032-4.91l3.12-4.606L1031.4,340.3l-4.605,3.12a23.188,23.188,0,0,0-4.91-2.033l-1.051-5.464H1010.1l-1.051,5.464a23.181,23.181,0,0,0-4.909,2.033l-4.606-3.12-7.591,7.592,3.12,4.606a23.175,23.175,0,0,0-2.033,4.91l-5.464,1.051V369.2l5.464,1.051a23.176,23.176,0,0,0,2.033,4.91l-3.12,4.606,7.591,7.592,4.606-3.12a23.178,23.178,0,0,0,4.909,2.033l1.051,5.464h10.736l1.051-5.464a23.185,23.185,0,0,0,4.91-2.033l4.605,3.12,7.591-7.592-3.12-4.606a23.19,23.19,0,0,0,2.032-4.91Zm-27.9,4.411a9.779,9.779,0,1,1,9.779-9.779A9.779,9.779,0,0,1,1015.469,373.608Z" transform="translate(-942.214 -326.187)" fill="none" stroke="#dcdddd" stroke-linecap="round" stroke-linejoin="round" stroke-width="2"/>
      <g id="그룹_1933" data-name="그룹 1933">
        <g id="그룹_1932" data-name="그룹 1932">
          <g id="그룹_1928" data-name="그룹 1928">
            <g id="그룹_1908" data-name="그룹 1908">
              <g id="그룹_1907" data-name="그룹 1907">
                <g id="그룹_1906" data-name="그룹 1906">
                  <rect id="사각형_642" data-name="사각형 642" width="69.28" height="51.765" transform="translate(0 1.559)" fill="#fff" stroke="#3e3a39" stroke-linecap="round" stroke-linejoin="round" stroke-width="2"/>
                  <rect id="사각형_643" data-name="사각형 643" width="69.28" height="8.568" fill="#03adff" stroke="#3e3a39" stroke-linecap="round" stroke-linejoin="round" stroke-width="2"/>
                </g>
                <path id="패스_5048" data-name="패스 5048" d="M913.918,324.807a1.517,1.517,0,1,0-1.517,1.517A1.517,1.517,0,0,0,913.918,324.807Z" transform="translate(-907.631 -320.489)" fill="#3e3a39" stroke="#707070" stroke-width="2"/>
                <path id="패스_5049" data-name="패스 5049" d="M923.316,324.807a1.517,1.517,0,1,0-1.518,1.517A1.518,1.518,0,0,0,923.316,324.807Z" transform="translate(-911.87 -320.489)" fill="#3e3a39" stroke="#707070" stroke-width="2"/>
              </g>
            </g>
            <g id="그룹_1912" data-name="그룹 1912" transform="translate(66.019 38.732)">
              <g id="그룹_1911" data-name="그룹 1911">
                <g id="그룹_1909" data-name="그룹 1909" transform="translate(10.633)">
                  <path id="패스_5050" data-name="패스 5050" d="M1066.558,393.6a2.43,2.43,0,1,0-2.43-2.43A2.43,2.43,0,0,0,1066.558,393.6Z" transform="translate(-1053.394 -388.735)" fill="#03adff" stroke="#3e3a39" stroke-linecap="round" stroke-linejoin="round" stroke-width="2"/>
                  <path id="패스_5051" data-name="패스 5051" d="M1055.513,397.22l-4.658,4.658h-6.278" transform="translate(-1044.576 -392.561)" fill="none" stroke="#3e3a39" stroke-linecap="round" stroke-linejoin="round" stroke-width="2"/>
                </g>
                <g id="그룹_1910" data-name="그룹 1910" transform="translate(0 37.468)">
                  <path id="패스_5052" data-name="패스 5052" d="M1066.558,465.1a2.431,2.431,0,1,1-2.43,2.43A2.43,2.43,0,0,1,1066.558,465.1Z" transform="translate(-1042.761 -460.64)" fill="#03adff" stroke="#3e3a39" stroke-linecap="round" stroke-linejoin="round" stroke-width="2"/>
                  <path id="패스_5053" data-name="패스 5053" d="M1046.779,461.639l-4.658-4.658h-16.911" transform="translate(-1025.209 -456.981)" fill="none" stroke="#3e3a39" stroke-linecap="round" stroke-linejoin="round" stroke-width="2"/>
                </g>
              </g>
              <path id="패스_5054" data-name="패스 5054" d="M1082.789,431.776a2.43,2.43,0,1,0-2.43-2.43A2.431,2.431,0,0,0,1082.789,431.776Z" transform="translate(-1050.081 -405.954)" fill="#03adff" stroke="#3e3a39" stroke-linecap="round" stroke-linejoin="round" stroke-width="2"/>
              <line id="선_205" data-name="선 205" x1="18.835" transform="translate(11.443 23.392)" fill="none" stroke="#3e3a39" stroke-linecap="round" stroke-linejoin="round" stroke-width="2"/>
            </g>
            <g id="그룹_1915" data-name="그룹 1915" transform="translate(7.473 18.116)">
              <g id="그룹_1914" data-name="그룹 1914">
                <g id="그룹_1913" data-name="그룹 1913">
                  <rect id="사각형_644" data-name="사각형 644" width="69.28" height="51.765" transform="translate(0 1.559)" fill="#fff" stroke="#3e3a39" stroke-linecap="round" stroke-linejoin="round" stroke-width="2"/>
                  <rect id="사각형_645" data-name="사각형 645" width="69.28" height="8.568" fill="#ffee41" stroke="#3e3a39" stroke-linecap="round" stroke-linejoin="round" stroke-width="2"/>
                </g>
                <path id="패스_5055" data-name="패스 5055" d="M927.53,357.8a1.518,1.518,0,1,0-1.517,1.517A1.518,1.518,0,0,0,927.53,357.8Z" transform="translate(-921.243 -353.486)" fill="#3e3a39" stroke="#707070" stroke-width="2"/>
                <ellipse id="타원_135" data-name="타원 135" cx="1.517" cy="1.517" rx="1.517" ry="1.517" transform="translate(8.411 2.801)" fill="#3e3a39" stroke="#707070" stroke-width="2"/>
              </g>
            </g>
            <g id="그룹_1927" data-name="그룹 1927" transform="translate(26.026 32.555)">
              <ellipse id="타원_136" data-name="타원 136" cx="5.638" cy="5.638" rx="5.638" ry="5.638" transform="translate(19.402)" fill="#7a6a56" stroke="#3e3a39" stroke-linecap="round" stroke-linejoin="round" stroke-width="2"/>
              <g id="그룹_1926" data-name="그룹 1926" transform="translate(0 5.827)">
                <g id="그룹_1925" data-name="그룹 1925" transform="translate(0 0.851)">
                  <g id="그룹_1924" data-name="그룹 1924">
                    <g id="그룹_1923" data-name="그룹 1923">
                      <g id="그룹_1922" data-name="그룹 1922">
                        <g id="그룹_1919" data-name="그룹 1919">
                          <g id="그룹_1916" data-name="그룹 1916" transform="translate(6.198 10.972)">
                            <path id="패스_5056" data-name="패스 5056" d="M969.463,412.537a2.9,2.9,0,1,0-2.9,2.9A2.9,2.9,0,0,0,969.463,412.537Z" transform="translate(-963.654 -409.633)" fill="#ffe2ca" stroke="#3e3a39" stroke-linecap="round" stroke-linejoin="round" stroke-width="2"/>
                            <path id="패스_5057" data-name="패스 5057" d="M1009.726,412.537a2.9,2.9,0,1,0-2.9,2.9A2.9,2.9,0,0,0,1009.726,412.537Z" transform="translate(-981.812 -409.633)" fill="#ffe2ca" stroke="#3e3a39" stroke-linecap="round" stroke-linejoin="round" stroke-width="2"/>
                          </g>
                          <g id="그룹_1918" data-name="그룹 1918">
                            <path id="패스_5058" data-name="패스 5058" d="M952.365,456.819v-6.937a11.447,11.447,0,0,1,11.448-11.448h17.414a11.448,11.448,0,0,1,11.448,11.448v6.937" transform="translate(-952.365 -411.65)" fill="#03adff" stroke="#3e3a39" stroke-linecap="round" stroke-linejoin="round" stroke-width="2"/>
                            <g id="그룹_1917" data-name="그룹 1917" transform="translate(9.829)">
                              <path id="패스_5059" data-name="패스 5059" d="M985.441,437.615h0a4.424,4.424,0,0,1-4.424-4.423v-3.256a4.424,4.424,0,0,1,4.424-4.423h0a4.424,4.424,0,0,1,4.424,4.423v3.256A4.424,4.424,0,0,1,985.441,437.615Z" transform="translate(-975.115 -405.822)" fill="#ffe2ca" stroke="#3e3a39" stroke-linecap="round" stroke-linejoin="round" stroke-width="2"/>
                              <path id="패스_5060" data-name="패스 5060" d="M980.593,414.5h0a10.326,10.326,0,0,1-10.326-10.326v-4.2a10.326,10.326,0,0,1,10.326-10.326h0a10.326,10.326,0,0,1,10.326,10.326v4.2A10.326,10.326,0,0,1,980.593,414.5Z" transform="translate(-970.267 -389.648)" fill="#ffe2ca" stroke="#3e3a39" stroke-linecap="round" stroke-linejoin="round" stroke-width="2"/>
                            </g>
                          </g>
                        </g>
                        <g id="그룹_1920" data-name="그룹 1920" transform="translate(12.183 15.102)">
                          <path id="패스_5061" data-name="패스 5061" d="M978.774,419.264a2.109,2.109,0,1,0-2.109,2.109A2.109,2.109,0,0,0,978.774,419.264Z" transform="translate(-974.556 -417.155)" fill="#ffc3ca"/>
                          <path id="패스_5062" data-name="패스 5062" d="M1000.13,419.264a2.109,2.109,0,1,0-2.109,2.109A2.109,2.109,0,0,0,1000.13,419.264Z" transform="translate(-984.187 -417.155)" fill="#ffc3ca"/>
                        </g>
                        <g id="그룹_1921" data-name="그룹 1921" transform="translate(15.529 12.263)">
                          <path id="패스_5063" data-name="패스 5063" d="M982.785,413.436c0,.8-.478,1.452-1.067,1.452s-1.067-.65-1.067-1.452.478-1.452,1.067-1.452S982.785,412.634,982.785,413.436Z" transform="translate(-980.65 -411.984)" fill="#3e3a39"/>
                          <path id="패스_5064" data-name="패스 5064" d="M995.747,413.436c0,.8-.478,1.452-1.067,1.452s-1.068-.65-1.068-1.452.478-1.452,1.068-1.452S995.747,412.634,995.747,413.436Z" transform="translate(-986.496 -411.984)" fill="#3e3a39"/>
                        </g>
                      </g>
                    </g>
                  </g>
                  <path id="패스_5065" data-name="패스 5065" d="M983.447,421.571a3.09,3.09,0,1,0,6.18,0Z" transform="translate(-966.382 -404.045)" fill="#ff8d8d" stroke="#3e3a39" stroke-linecap="round" stroke-linejoin="round" stroke-width="2"/>
                </g>
                <path id="패스_5066" data-name="패스 5066" d="M969.808,401.354s6.072-1.952,8.241-7.807a5.05,5.05,0,0,1,.217,4.554,5.333,5.333,0,0,0,6.94-4.12,16.085,16.085,0,0,0,5.422,7.807s3.253-11.494-8.891-13.445S968.073,396.583,969.808,401.354Z" transform="translate(-959.963 -388.097)" fill="#7a6a56" stroke="#3e3a39" stroke-linecap="round" stroke-linejoin="round" stroke-width="2"/>
              </g>
            </g>
          </g>
          <g id="그룹_1931" data-name="그룹 1931" transform="translate(0.226 65.78)">
            <ellipse id="타원_137" data-name="타원 137" cx="15.493" cy="15.493" rx="15.493" ry="15.493" fill="#ffee41" stroke="#3e3a39" stroke-linecap="round" stroke-linejoin="round" stroke-width="2"/>
            <g id="그룹_1930" data-name="그룹 1930" transform="translate(5.736 9.994)">
              <path id="패스_5067" data-name="패스 5067" d="M919.045,456.206l4.319,13.746,3.667-11.671,3.667,11.671,4.319-13.746" transform="translate(-917.274 -456.206)" fill="none" stroke="#3e3a39" stroke-linecap="round" stroke-linejoin="round" stroke-width="2"/>
              <g id="그룹_1929" data-name="그룹 1929" transform="translate(0 6.73)">
                <line id="선_206" data-name="선 206" x1="3.536" fill="none" stroke="#3e3a39" stroke-linecap="round" stroke-linejoin="round" stroke-width="2"/>
                <line id="선_207" data-name="선 207" x1="3.536" transform="translate(15.979)" fill="none" stroke="#3e3a39" stroke-linecap="round" stroke-linejoin="round" stroke-width="2"/>
              </g>
            </g>
          </g>
        </g>
        <line id="선_208" data-name="선 208" x2="16.474" transform="translate(13.8 34.172)" fill="none" stroke="#3e3a39" stroke-linecap="round" stroke-linejoin="round" stroke-width="2"/>
        <line id="선_209" data-name="선 209" x2="16.474" transform="translate(13.8 39.756)" fill="none" stroke="#3e3a39" stroke-linecap="round" stroke-linejoin="round" stroke-width="2"/>
        <line id="선_210" data-name="선 210" x2="9.493" transform="translate(13.8 45.34)" fill="none" stroke="#3e3a39" stroke-linecap="round" stroke-linejoin="round" stroke-width="2"/>
      </g>
    </g>
  </g>
</svg>
