<svg xmlns="http://www.w3.org/2000/svg" width="106.779" height="103.192" viewBox="0 0 106.779 103.192">
  <g id="그룹_1969" data-name="그룹 1969" transform="translate(1.347 1.035)">
    <g id="그룹_1948" data-name="그룹 1948" transform="translate(81.3 12.924)">
      <line id="선_216" data-name="선 216" x2="6.118" transform="translate(0 3.059)" fill="none" stroke="#dcdddd" stroke-linecap="round" stroke-linejoin="round" stroke-width="2"/>
      <line id="선_217" data-name="선 217" y2="6.118" transform="translate(3.059)" fill="none" stroke="#dcdddd" stroke-linecap="round" stroke-linejoin="round" stroke-width="2"/>
    </g>
    <g id="그룹_1949" data-name="그룹 1949" transform="translate(17.544 81.053)">
      <line id="선_218" data-name="선 218" x2="6.118" transform="translate(0 3.059)" fill="none" stroke="#dcdddd" stroke-linecap="round" stroke-linejoin="round" stroke-width="2"/>
      <line id="선_219" data-name="선 219" y2="6.118" transform="translate(3.059)" fill="none" stroke="#dcdddd" stroke-linecap="round" stroke-linejoin="round" stroke-width="2"/>
    </g>
    <g id="그룹_1950" data-name="그룹 1950" transform="translate(82.029 82.874)">
      <line id="선_220" data-name="선 220" x2="6.118" transform="translate(0 3.059)" fill="none" stroke="#dcdddd" stroke-linecap="round" stroke-linejoin="round" stroke-width="2"/>
      <line id="선_221" data-name="선 221" y2="6.118" transform="translate(3.059)" fill="none" stroke="#dcdddd" stroke-linecap="round" stroke-linejoin="round" stroke-width="2"/>
    </g>
    <path id="패스_5078" data-name="패스 5078" d="M1040.882,736.2a1.776,1.776,0,1,0-1.776,1.776A1.776,1.776,0,0,0,1040.882,736.2Z" transform="translate(-963.081 -644.7)" fill="none" stroke="#dcdddd" stroke-linecap="round" stroke-linejoin="round" stroke-width="2"/>
    <path id="패스_5079" data-name="패스 5079" d="M938.12,603.047a1.776,1.776,0,1,0-1.776,1.777A1.776,1.776,0,0,0,938.12,603.047Z" transform="translate(-916.737 -584.652)" fill="none" stroke="#dcdddd" stroke-linecap="round" stroke-linejoin="round" stroke-width="2"/>
    <g id="그룹_1968" data-name="그룹 1968" transform="translate(0)">
      <path id="패스_5080" data-name="패스 5080" d="M966.74,595.836A36.943,36.943,0,0,0,929.8,632.779" transform="translate(-914.585 -582.201)" fill="none" stroke="#dcdddd" stroke-linecap="round" stroke-linejoin="round" stroke-width="2"/>
      <path id="패스_5081" data-name="패스 5081" d="M929.8,632.779a36.943,36.943,0,1,0,36.943-36.943" transform="translate(-914.585 -582.201)" fill="none" stroke="#dcdddd" stroke-linecap="round" stroke-linejoin="round" stroke-width="2" stroke-dasharray="1 7"/>
      <g id="그룹_1967" data-name="그룹 1967" transform="translate(0)">
        <g id="그룹_1953" data-name="그룹 1953" transform="translate(9.038 23.376)">
          <g id="그룹_1951" data-name="그룹 1951">
            <path id="패스_5082" data-name="패스 5082" d="M918.552,613.578l11.659,11.658h16.516" transform="translate(-918.552 -613.578)" fill="none" stroke="#3e3a39" stroke-linecap="round" stroke-linejoin="round" stroke-width="2"/>
            <path id="패스_5083" data-name="패스 5083" d="M1052.477,613.578l-11.658,11.658H1024.3" transform="translate(-966.244 -613.578)" fill="none" stroke="#3e3a39" stroke-linecap="round" stroke-linejoin="round" stroke-width="2"/>
          </g>
          <g id="그룹_1952" data-name="그룹 1952" transform="translate(0 42.747)">
            <path id="패스_5084" data-name="패스 5084" d="M1052.477,703.1l-11.658-11.658H1024.3" transform="translate(-966.244 -691.439)" fill="none" stroke="#3e3a39" stroke-linecap="round" stroke-linejoin="round" stroke-width="2"/>
            <path id="패스_5085" data-name="패스 5085" d="M918.552,703.1l11.659-11.658h16.516" transform="translate(-918.552 -691.439)" fill="none" stroke="#3e3a39" stroke-linecap="round" stroke-linejoin="round" stroke-width="2"/>
          </g>
        </g>
        <line id="선_222" data-name="선 222" x2="82.994" transform="translate(10.658 50.578)" fill="none" stroke="#3e3a39" stroke-linecap="round" stroke-linejoin="round" stroke-width="2"/>
        <g id="그룹_1963" data-name="그룹 1963" transform="translate(33.697)">
          <g id="그룹_1954" data-name="그룹 1954" transform="translate(0 61.133)">
            <ellipse id="타원_139" data-name="타원 139" cx="4.469" cy="4.469" rx="4.469" ry="4.469" fill="#ffe2ca" stroke="#3e3a39" stroke-linecap="round" stroke-linejoin="round" stroke-width="2"/>
            <ellipse id="타원_140" data-name="타원 140" cx="4.469" cy="4.469" rx="4.469" ry="4.469" transform="translate(27.978 0)" fill="#ffe2ca" stroke="#3e3a39" stroke-linecap="round" stroke-linejoin="round" stroke-width="2"/>
          </g>
          <g id="그룹_1962" data-name="그룹 1962" transform="translate(0.255)">
            <g id="그룹_1961" data-name="그룹 1961">
              <g id="그룹_1958" data-name="그룹 1958">
                <g id="그룹_1955" data-name="그룹 1955" transform="translate(5.598 12.609)">
                  <path id="패스_5086" data-name="패스 5086" d="M979.374,596.589a2.623,2.623,0,1,0-2.623,2.623A2.623,2.623,0,0,0,979.374,596.589Z" transform="translate(-974.128 -593.966)" fill="#ffe2ca" stroke="#3e3a39" stroke-linecap="round" stroke-linejoin="round" stroke-width="2"/>
                  <path id="패스_5087" data-name="패스 5087" d="M1015.736,596.589a2.623,2.623,0,1,0-2.623,2.623A2.623,2.623,0,0,0,1015.736,596.589Z" transform="translate(-990.527 -593.966)" fill="#ffe2ca" stroke="#3e3a39" stroke-linecap="round" stroke-linejoin="round" stroke-width="2"/>
                </g>
                <g id="그룹_1957" data-name="그룹 1957">
                  <path id="패스_5088" data-name="패스 5088" d="M990,619.977H974.271a10.339,10.339,0,0,0-10.339,10.339v26.043h36.4V630.315A10.339,10.339,0,0,0,990,619.977Z" transform="translate(-963.932 -593.088)" fill="#7ed7ff" stroke="#3e3a39" stroke-linecap="round" stroke-linejoin="round" stroke-width="2"/>
                  <g id="그룹_1956" data-name="그룹 1956" transform="translate(8.876 2.699)">
                    <path id="패스_5089" data-name="패스 5089" d="M993.805,619.237h0a4,4,0,0,1-4-4V612.3a4,4,0,0,1,4-4h0a4,4,0,0,1,3.995,4v2.94A4,4,0,0,1,993.805,619.237Z" transform="translate(-984.479 -590.524)" fill="#ffe2ca" stroke="#3e3a39" stroke-linecap="round" stroke-linejoin="round" stroke-width="2"/>
                    <path id="패스_5090" data-name="패스 5090" d="M989.426,598.358h0a9.326,9.326,0,0,1-9.326-9.326v-3.789a9.326,9.326,0,0,1,9.326-9.326h0a9.326,9.326,0,0,1,9.326,9.326v3.789A9.326,9.326,0,0,1,989.426,598.358Z" transform="translate(-980.1 -575.917)" fill="#ffe2ca" stroke="#3e3a39" stroke-linecap="round" stroke-linejoin="round" stroke-width="2"/>
                  </g>
                  <path id="패스_5091" data-name="패스 5091" d="M979.181,585.648s3.206-.437,4.371-6.12a2.557,2.557,0,0,1,2.478-1.895s.583-1.749,2.914-.729,5.246,5.683,9.4,6.12c0,0,1.821-4.517-1.093-7.869s-10.783-6.12-13.115-2.331C984.135,572.826,976.267,573.991,979.181,585.648Z" transform="translate(-970.517 -571)" fill="#7a6a56" stroke="#3e3a39" stroke-linecap="round" stroke-linejoin="round" stroke-width="2"/>
                </g>
              </g>
              <g id="그룹_1959" data-name="그룹 1959" transform="translate(11.003 16.338)">
                <ellipse id="타원_141" data-name="타원 141" cx="1.905" cy="1.905" rx="1.905" ry="1.905" fill="#ffc3ca"/>
                <ellipse id="타원_142" data-name="타원 142" cx="1.905" cy="1.905" rx="1.905" ry="1.905" transform="translate(10.589)" fill="#ffc3ca"/>
              </g>
              <g id="그룹_1960" data-name="그룹 1960" transform="translate(14.025 13.774)">
                <path id="패스_5092" data-name="패스 5092" d="M991.405,597.4c0,.724-.432,1.312-.964,1.312s-.964-.587-.964-1.312.432-1.312.964-1.312S991.405,596.676,991.405,597.4Z" transform="translate(-989.477 -596.089)" fill="#3e3a39"/>
                <path id="패스_5093" data-name="패스 5093" d="M1003.112,597.4c0,.724-.432,1.312-.964,1.312s-.964-.587-.964-1.312.432-1.312.964-1.312S1003.112,596.676,1003.112,597.4Z" transform="translate(-994.757 -596.089)" fill="#3e3a39"/>
              </g>
            </g>
            <path id="패스_5094" data-name="패스 5094" d="M992.582,605.113a3.5,3.5,0,0,0,4.946,0" transform="translate(-976.853 -586.385)" fill="none" stroke="#3e3a39" stroke-linecap="round" stroke-linejoin="round" stroke-width="2"/>
          </g>
          <path id="패스_5095" data-name="패스 5095" d="M999.062,681.642v33.418H976.938V681.642" transform="translate(-969.542 -620.898)" fill="#2d9aff" stroke="#3e3a39" stroke-linecap="round" stroke-linejoin="round" stroke-width="2"/>
          <path id="패스_5096" data-name="패스 5096" d="M999.062,637.052v25.064H976.938V637.052" transform="translate(-969.542 -600.789)" fill="#7ed7ff" stroke="#3e3a39" stroke-linecap="round" stroke-linejoin="round" stroke-width="2"/>
          <path id="패스_5097" data-name="패스 5097" d="M966.028,746.009h0a3.5,3.5,0,0,0,3.5,3.5h26.786a3.5,3.5,0,0,0,3.5-3.5h0a3.5,3.5,0,0,0-3.5-3.5H969.525A3.5,3.5,0,0,0,966.028,746.009Z" transform="translate(-964.622 -648.349)" fill="#595757" stroke="#3e3a39" stroke-linecap="round" stroke-linejoin="round" stroke-width="2"/>
          <line id="선_223" data-name="선 223" y2="31.67" transform="translate(18.458 68.905)" fill="#595757" stroke="#3e3a39" stroke-linecap="round" stroke-linejoin="round" stroke-width="2"/>
        </g>
        <g id="그룹_1966" data-name="그룹 1966" transform="translate(0 14.035)">
          <g id="그룹_1964" data-name="그룹 1964" transform="translate(0 0)">
            <ellipse id="타원_143" data-name="타원 143" cx="4.541" cy="4.541" rx="4.541" ry="4.541" transform="translate(0.35 2.943) rotate(-18.909)" fill="#ff8d8d" stroke="#3e3a39" stroke-linecap="round" stroke-linejoin="round" stroke-width="2"/>
            <ellipse id="타원_144" data-name="타원 144" cx="4.541" cy="4.541" rx="4.541" ry="4.541" transform="translate(0.35 33.719) rotate(-18.909)" fill="#ff8d8d" stroke="#3e3a39" stroke-linecap="round" stroke-linejoin="round" stroke-width="2"/>
            <ellipse id="타원_145" data-name="타원 145" cx="4.541" cy="4.541" rx="4.541" ry="4.541" transform="translate(0 65.365) rotate(-27.282)" fill="#ff8d8d" stroke="#3e3a39" stroke-linecap="round" stroke-linejoin="round" stroke-width="2"/>
          </g>
          <g id="그룹_1965" data-name="그룹 1965" transform="translate(92.26 0.558)">
            <ellipse id="타원_146" data-name="타원 146" cx="4.541" cy="4.541" rx="4.541" ry="4.541" transform="translate(0.723 1.455) rotate(-9.218)" fill="#ff8d8d" stroke="#3e3a39" stroke-linecap="round" stroke-linejoin="round" stroke-width="2"/>
            <ellipse id="타원_147" data-name="타원 147" cx="4.541" cy="4.541" rx="4.541" ry="4.541" transform="translate(0.723 32.231) rotate(-9.218)" fill="#ff8d8d" stroke="#3e3a39" stroke-linecap="round" stroke-linejoin="round" stroke-width="2"/>
            <ellipse id="타원_148" data-name="타원 148" cx="4.541" cy="4.541" rx="4.541" ry="4.541" transform="translate(0 69.219) rotate(-67.5)" fill="#ff8d8d" stroke="#3e3a39" stroke-linecap="round" stroke-linejoin="round" stroke-width="2"/>
          </g>
        </g>
      </g>
    </g>
  </g>
</svg>
