<svg xmlns="http://www.w3.org/2000/svg" width="103.158" height="102.784" viewBox="0 0 103.158 102.784">
  <g id="그룹_1905" data-name="그룹 1905" transform="translate(1 1)">
    <path id="패스_5027" data-name="패스 5027" d="M613.7,631.258v34.194a9.719,9.719,0,0,1-9.72,9.719H538.095a9.719,9.719,0,0,1-9.72-9.719V603.131a9.719,9.719,0,0,1,9.72-9.719h33.649" transform="translate(-523.19 -581.294)" fill="none" stroke="#dcdddd" stroke-linecap="round" stroke-linejoin="round" stroke-width="2" stroke-dasharray="1 7"/>
    <g id="그룹_1904" data-name="그룹 1904" transform="translate(0 0)">
      <g id="그룹_1903" data-name="그룹 1903">
        <g id="그룹_1899" data-name="그룹 1899" transform="translate(0 19.199)">
          <g id="그룹_1888" data-name="그룹 1888">
            <g id="그룹_1886" data-name="그룹 1886" transform="translate(16.379 60.254)">
              <path id="패스_5028" data-name="패스 5028" d="M593.114,725.145V716.06H567.1v9.085a13.812,13.812,0,0,1-4.045,9.765l-2.48,2.48h39.069l-2.48-2.48A13.811,13.811,0,0,1,593.114,725.145Z" transform="translate(-554.088 -716.06)" fill="#fff" stroke="#3e3a39" stroke-linecap="round" stroke-linejoin="round" stroke-width="2"/>
              <line id="선_203" data-name="선 203" x2="52.033" transform="translate(0 21.33)" fill="none" stroke="#3e3a39" stroke-linecap="round" stroke-linejoin="round" stroke-width="2"/>
              <path id="패스_5029" data-name="패스 5029" d="M598.474,724.7V716.06H572.455V724.7" transform="translate(-559.448 -716.06)" fill="#dcdddd" stroke="#3e3a39" stroke-linecap="round" stroke-linejoin="round" stroke-width="2"/>
            </g>
            <g id="그룹_1887" data-name="그룹 1887">
              <path id="패스_5030" data-name="패스 5030" d="M603.721,610.812a4.5,4.5,0,0,0-4.5-4.5H523.432a4.5,4.5,0,0,0-4.5,4.5v49.546h84.79Z" transform="translate(-518.931 -606.311)" fill="#fff" stroke="#3e3a39" stroke-linecap="round" stroke-linejoin="round" stroke-width="2"/>
            </g>
          </g>
          <g id="그룹_1898" data-name="그룹 1898" transform="translate(8.113 4.503)">
            <g id="그룹_1897" data-name="그룹 1897">
              <g id="그룹_1896" data-name="그룹 1896">
                <g id="그룹_1895" data-name="그룹 1895">
                  <g id="그룹_1892" data-name="그룹 1892">
                    <g id="그룹_1889" data-name="그룹 1889" transform="translate(6.942 15.636)">
                      <path id="패스_5031" data-name="패스 5031" d="M552.857,646.244A3.253,3.253,0,1,0,549.6,649.5,3.253,3.253,0,0,0,552.857,646.244Z" transform="translate(-546.352 -642.992)" fill="#ffe2ca" stroke="#3e3a39" stroke-linecap="round" stroke-linejoin="round" stroke-width="2"/>
                      <path id="패스_5032" data-name="패스 5032" d="M597.95,646.244A3.253,3.253,0,1,0,594.7,649.5,3.252,3.252,0,0,0,597.95,646.244Z" transform="translate(-566.688 -642.992)" fill="#ffe2ca" stroke="#3e3a39" stroke-linecap="round" stroke-linejoin="round" stroke-width="2"/>
                    </g>
                    <g id="그룹_1891" data-name="그룹 1891">
                      <path id="패스_5033" data-name="패스 5033" d="M533.708,695.839V688.07a12.822,12.822,0,0,1,12.821-12.822h19.5a12.822,12.822,0,0,1,12.821,12.822v7.769" transform="translate(-533.708 -641.903)" fill="#ffe741" stroke="#3e3a39" stroke-linecap="round" stroke-linejoin="round" stroke-width="2"/>
                      <g id="그룹_1890" data-name="그룹 1890" transform="translate(11.008 3.348)">
                        <path id="패스_5034" data-name="패스 5034" d="M570.753,674.331h0a4.954,4.954,0,0,1-4.954-4.954V665.73a4.954,4.954,0,0,1,4.954-4.954h0a4.954,4.954,0,0,1,4.954,4.954v3.647A4.954,4.954,0,0,1,570.753,674.331Z" transform="translate(-559.188 -638.724)" fill="#ffe2ca" stroke="#3e3a39" stroke-linecap="round" stroke-linejoin="round" stroke-width="2"/>
                        <path id="패스_5035" data-name="패스 5035" d="M565.323,648.439h0a11.565,11.565,0,0,1-11.565-11.565v-4.7a11.565,11.565,0,0,1,11.565-11.565h0a11.565,11.565,0,0,1,11.565,11.565v4.7A11.565,11.565,0,0,1,565.323,648.439Z" transform="translate(-553.758 -620.61)" fill="#ffe2ca" stroke="#3e3a39" stroke-linecap="round" stroke-linejoin="round" stroke-width="2"/>
                      </g>
                      <path id="패스_5036" data-name="패스 5036" d="M552.618,632.678s3.975-.542,5.421-7.59c0,0,.723-2.53,3.072-2.349,0,0,.723-2.169,3.614-.9s6.505,7.048,11.656,7.59c0,0,2.259-5.6-1.356-9.758s-13.372-7.59-16.263-2.891C558.762,616.776,549,618.221,552.618,632.678Z" transform="translate(-541.874 -614.512)" fill="#7a6a56" stroke="#3e3a39" stroke-linecap="round" stroke-linejoin="round" stroke-width="2"/>
                    </g>
                  </g>
                  <g id="그룹_1893" data-name="그룹 1893" transform="translate(13.645 20.261)">
                    <ellipse id="타원_132" data-name="타원 132" cx="2.362" cy="2.362" rx="2.362" ry="2.362" fill="#ffc3ca"/>
                    <path id="패스_5037" data-name="패스 5037" d="M587.2,653.779a2.362,2.362,0,1,0-2.362,2.362A2.362,2.362,0,0,0,587.2,653.779Z" transform="translate(-569.348 -651.417)" fill="#ffc3ca"/>
                  </g>
                  <g id="그룹_1894" data-name="그룹 1894" transform="translate(17.392 17.081)">
                    <ellipse id="타원_133" data-name="타원 133" cx="1.196" cy="1.626" rx="1.196" ry="1.626" fill="#3e3a39"/>
                    <ellipse id="타원_134" data-name="타원 134" cx="1.196" cy="1.626" rx="1.196" ry="1.626" transform="translate(7.971)" fill="#3e3a39"/>
                  </g>
                </g>
              </g>
            </g>
            <path id="패스_5038" data-name="패스 5038" d="M568.519,656.362a3.461,3.461,0,0,0,6.922,0Z" transform="translate(-549.407 -633.386)" fill="#ff8d8d" stroke="#3e3a39" stroke-linecap="round" stroke-linejoin="round" stroke-width="2"/>
          </g>
          <path id="패스_5039" data-name="패스 5039" d="M518.931,704.755v7.4a4.5,4.5,0,0,0,4.5,4.5h75.787a4.5,4.5,0,0,0,4.5-4.5v-7.4Z" transform="translate(-518.931 -650.708)" fill="#43cc71" stroke="#3e3a39" stroke-linecap="round" stroke-linejoin="round" stroke-width="2"/>
        </g>
        <g id="그룹_1902" data-name="그룹 1902" transform="translate(50.891)">
          <path id="패스_5040" data-name="패스 5040" d="M692.493,646.944H687.64v-5.662a2.427,2.427,0,0,1,2.426-2.427h0a2.427,2.427,0,0,1,2.427,2.427Z" transform="translate(-645.907 -601.788)" fill="#ffe741" stroke="#3e3a39" stroke-linecap="round" stroke-linejoin="round" stroke-width="2"/>
          <g id="그룹_1901" data-name="그룹 1901">
            <g id="그룹_1900" data-name="그룹 1900">
              <path id="패스_5041" data-name="패스 5041" d="M633.45,609.984a36.383,36.383,0,0,0,26.3,0V590.525h-26.3Z" transform="translate(-621.469 -579.992)" fill="#ff6c79" stroke="#3e3a39" stroke-linecap="round" stroke-linejoin="round" stroke-width="2"/>
              <path id="패스_5042" data-name="패스 5042" d="M661.893,580.95l-25.133-9.61-25.133,9.61,25.133,9.61Z" transform="translate(-611.626 -571.34)" fill="#ff6c79" stroke="#3e3a39" stroke-linecap="round" stroke-linejoin="round" stroke-width="2"/>
            </g>
            <path id="패스_5043" data-name="패스 5043" d="M657.879,586.561c0,.828-1.188,1.5-2.653,1.5s-2.653-.672-2.653-1.5,1.188-1.5,2.653-1.5S657.879,585.732,657.879,586.561Z" transform="translate(-630.092 -577.528)" fill="#fff" stroke="#3e3a39" stroke-linecap="round" stroke-linejoin="round" stroke-width="2"/>
          </g>
          <line id="선_204" data-name="선 204" y2="22.612" transform="translate(44.159 12.378)" fill="none" stroke="#3e3a39" stroke-linecap="round" stroke-linejoin="round" stroke-width="2"/>
          <path id="패스_5044" data-name="패스 5044" d="M692.471,634.859a2.307,2.307,0,1,0-2.307,2.308A2.308,2.308,0,0,0,692.471,634.859Z" transform="translate(-646.005 -598.945)" fill="#ffe741" stroke="#3e3a39" stroke-linecap="round" stroke-linejoin="round" stroke-width="2"/>
        </g>
      </g>
      <path id="패스_5045" data-name="패스 5045" d="M633.031,623.969h-14.7a5.761,5.761,0,0,0-5.761,5.761V635.7a5.76,5.76,0,0,0,5.212,5.733c-.761,1.794-1.964,3.68-3.755,4.157,0,0,5.578,1.715,10.282-4.129h8.726a5.761,5.761,0,0,0,5.761-5.761V629.73A5.761,5.761,0,0,0,633.031,623.969Z" transform="translate(-561.158 -595.075)" fill="#43cc71" stroke="#3e3a39" stroke-linecap="round" stroke-linejoin="round" stroke-width="2"/>
    </g>
  </g>
</svg>
