<svg xmlns="http://www.w3.org/2000/svg" width="98.412" height="95.376" viewBox="0 0 98.412 95.376">
  <g id="그룹_1885" data-name="그룹 1885" transform="translate(1 1)">
    <path id="패스_5006" data-name="패스 5006" d="M776.115,895.522s2.817,2.559.849,5.586c-1.579,2.429-4.736,1.943-6.193.486" transform="translate(-715.756 -842.357)" fill="none" stroke="#3e3a39" stroke-linecap="round" stroke-linejoin="round" stroke-width="2"/>
    <g id="그룹_1884" data-name="그룹 1884" transform="translate(0 0)">
      <g id="그룹_1883" data-name="그룹 1883">
        <g id="그룹_1882" data-name="그룹 1882">
          <g id="그룹_1881" data-name="그룹 1881">
            <path id="패스_5007" data-name="패스 5007" d="M699.449,858.3l-.9.9-.9-.9a2.959,2.959,0,0,0-4.185,0h0a2.959,2.959,0,0,0,0,4.185l.9.9,4.185,4.185,4.185-4.185.9-.9a2.959,2.959,0,0,0,0-4.185h0A2.959,2.959,0,0,0,699.449,858.3Z" transform="translate(-680.499 -825.177)" fill="#ffc545" stroke="#ffc545" stroke-linecap="round" stroke-linejoin="round" stroke-width="2"/>
            <path id="패스_5008" data-name="패스 5008" d="M706.008,822.58l-1.141,1.141-1.141-1.141a3.74,3.74,0,0,0-5.289,0h0a3.74,3.74,0,0,0,0,5.289l1.141,1.141,5.289,5.289,5.289-5.289,1.141-1.141a3.74,3.74,0,0,0,0-5.289h0A3.74,3.74,0,0,0,706.008,822.58Z" transform="translate(-682.641 -808.967)" fill="#ffc545" stroke="#ffc545" stroke-linecap="round" stroke-linejoin="round" stroke-width="2"/>
            <path id="패스_5009" data-name="패스 5009" d="M678.993,838.578l-.639.639-.639-.639a2.1,2.1,0,0,0-2.963,0h0a2.1,2.1,0,0,0,0,2.964l.639.639,2.963,2.963,2.963-2.963.64-.639a2.1,2.1,0,0,0,0-2.964h0A2.1,2.1,0,0,0,678.993,838.578Z" transform="translate(-672.176 -816.399)" fill="#ffc545" stroke="#ffc545" stroke-linecap="round" stroke-linejoin="round" stroke-width="2"/>
            <g id="그룹_1880" data-name="그룹 1880">
              <g id="그룹_1874" data-name="그룹 1874" transform="translate(29.275)">
                <g id="그룹_1873" data-name="그룹 1873">
                  <g id="그룹_1868" data-name="그룹 1868">
                    <g id="그룹_1867" data-name="그룹 1867">
                      <path id="패스_5010" data-name="패스 5010" d="M745.868,841.073h-2.845a3.875,3.875,0,0,1-7.727,0h-2.845a8.564,8.564,0,0,0-8.564,8.564V872.75h30.545V849.637A8.564,8.564,0,0,0,745.868,841.073Z" transform="translate(-723.888 -817.801)" fill="#ffc545" stroke="#3e3a39" stroke-linecap="round" stroke-linejoin="round" stroke-width="2"/>
                      <path id="패스_5011" data-name="패스 5011" d="M738.036,808.2a6.9,6.9,0,0,0,4.177-4.526,2.407,2.407,0,0,1,1.045,3.017,4.855,4.855,0,0,0,5.918-3.481s.65,3.868,3.923,5.416v2.891a7.821,7.821,0,0,1-7.821,7.821h0a7.821,7.821,0,0,1-7.82-7.821v-5.836s-.351-7,7.308-7,9.042,2.679,9.4,6.615a4.509,4.509,0,0,1-1.045,3.714" transform="translate(-730.007 -798.685)" fill="none" stroke="#3e3a39" stroke-linecap="round" stroke-linejoin="round" stroke-width="2"/>
                      <path id="패스_5012" data-name="패스 5012" d="M753.439,856.174v23.387H734.021V856.174" transform="translate(-728.458 -824.611)" fill="#ffc545" stroke="#3e3a39" stroke-linecap="round" stroke-linejoin="round" stroke-width="2"/>
                      <path id="패스_5013" data-name="패스 5013" d="M753.439,898.771v32.973H734.021V898.771" transform="translate(-728.458 -843.822)" fill="none" stroke="#3e3a39" stroke-linecap="round" stroke-linejoin="round" stroke-width="2"/>
                      <path id="패스_5014" data-name="패스 5014" d="M752.4,834.714V837.9a3.879,3.879,0,0,1-3.879,3.878h0a3.879,3.879,0,0,1-3.878-3.878v-3.191" transform="translate(-733.247 -814.933)" fill="none" stroke="#3e3a39" stroke-linecap="round" stroke-linejoin="round" stroke-width="2"/>
                      <line id="선_195" data-name="선 195" y2="30.696" transform="translate(15.272 61.807)" fill="none" stroke="#3e3a39" stroke-linecap="round" stroke-linejoin="round" stroke-width="2"/>
                    </g>
                    <path id="패스_5015" data-name="패스 5015" d="M724.848,961.557h0a2.727,2.727,0,0,0,2.727,2.727h24.036a2.727,2.727,0,0,0,2.727-2.727h0a2.728,2.728,0,0,0-2.727-2.727H727.575A2.728,2.728,0,0,0,724.848,961.557Z" transform="translate(-724.321 -870.907)" fill="none" stroke="#3e3a39" stroke-linecap="round" stroke-linejoin="round" stroke-width="2"/>
                  </g>
                  <g id="그룹_1872" data-name="그룹 1872" transform="translate(30.42 3.816)">
                    <g id="그룹_1870" data-name="그룹 1870" transform="translate(4.424 9.819)">
                      <g id="그룹_1869" data-name="그룹 1869" transform="translate(3.88)">
                        <path id="패스_5016" data-name="패스 5016" d="M809.245,823.519V828a7.412,7.412,0,0,1-7.412,7.412h0A7.412,7.412,0,0,1,794.421,828v-4.478" transform="translate(-794.421 -823.519)" fill="none" stroke="#3e3a39" stroke-linecap="round" stroke-linejoin="round" stroke-width="2"/>
                        <line id="선_196" data-name="선 196" y1="3.191" transform="translate(3.534 11.017)" fill="none" stroke="#3e3a39" stroke-linecap="round" stroke-linejoin="round" stroke-width="2"/>
                        <line id="선_197" data-name="선 197" y2="3.191" transform="translate(11.291 11.017)" fill="none" stroke="#3e3a39" stroke-linecap="round" stroke-linejoin="round" stroke-width="2"/>
                        <line id="선_198" data-name="선 198" y2="19.738" transform="translate(7.412 59.131)" fill="none" stroke="#3e3a39" stroke-linecap="round" stroke-linejoin="round" stroke-width="2"/>
                      </g>
                      <path id="패스_5017" data-name="패스 5017" d="M787.353,961.557h0a2.727,2.727,0,0,0,2.727,2.727h17.131a2.727,2.727,0,0,0,2.727-2.727h0a2.728,2.728,0,0,0-2.727-2.727H790.08A2.728,2.728,0,0,0,787.353,961.557Z" transform="translate(-787.353 -884.542)" fill="none" stroke="#3e3a39" stroke-linecap="round" stroke-linejoin="round" stroke-width="2"/>
                    </g>
                    <path id="패스_5018" data-name="패스 5018" d="M806.032,853.132a35.318,35.318,0,0,0,2.553,7.892c1.857,3.946,2.127,12.457,2.127,12.457h-31.4c-.327-6.218,4.582-17.338,5.727-20.283a20.66,20.66,0,0,0,1.309-5.563c-2.291-2.945-1.8-5.727-1.473-9a39.18,39.18,0,0,0-.491-8.181l5.073-1.309,5.556,4.085,5.556-4.085,5.073,1.309V815.786a10.151,10.151,0,0,0-10.151-10.151h0a10.151,10.151,0,0,0-10.151,10.151v14.063" transform="translate(-779.296 -805.635)" fill="none" stroke="#3e3a39" stroke-linecap="round" stroke-linejoin="round" stroke-width="2"/>
                    <g id="그룹_1871" data-name="그룹 1871" transform="translate(8.351 68.391)">
                      <line id="선_199" data-name="선 199" x2="0.818" y2="15.333" fill="none" stroke="#3e3a39" stroke-linecap="round" stroke-linejoin="round" stroke-width="2"/>
                      <line id="선_200" data-name="선 200" x1="0.818" y2="15.333" transform="translate(13.913)" fill="none" stroke="#3e3a39" stroke-linecap="round" stroke-linejoin="round" stroke-width="2"/>
                    </g>
                  </g>
                  <path id="패스_5019" data-name="패스 5019" d="M784.574,852.13s-2.291.327-3.163,5.018l-1.854,8.181" transform="translate(-748.993 -822.788)" fill="none" stroke="#3e3a39" stroke-linecap="round" stroke-linejoin="round" stroke-width="2"/>
                </g>
              </g>
              <g id="그룹_1878" data-name="그룹 1878" transform="translate(0 51.197)">
                <g id="그룹_1876" data-name="그룹 1876">
                  <path id="패스_5020" data-name="패스 5020" d="M670.565,922.448v.155a16.6,16.6,0,0,0,16.6,16.6h0a16.6,16.6,0,0,0,16.6-16.6v-.155Z" transform="translate(-670.565 -905.697)" fill="#ffc545" stroke="#3e3a39" stroke-linecap="round" stroke-linejoin="round" stroke-width="2"/>
                  <g id="그룹_1875" data-name="그룹 1875" transform="translate(16.597)">
                    <path id="패스_5021" data-name="패스 5021" d="M717.391,908.533a16.6,16.6,0,0,0-16.6-16.6v16.751h16.6Z" transform="translate(-700.795 -891.937)" fill="none" stroke="#3e3a39" stroke-linecap="round" stroke-linejoin="round" stroke-width="2"/>
                  </g>
                </g>
                <g id="그룹_1877" data-name="그룹 1877" transform="translate(4.907 35.913)">
                  <ellipse id="타원_129" data-name="타원 129" cx="3.133" cy="3.133" rx="3.133" ry="3.133" fill="none" stroke="#3e3a39" stroke-linecap="round" stroke-linejoin="round" stroke-width="2"/>
                  <ellipse id="타원_130" data-name="타원 130" cx="3.133" cy="3.133" rx="3.133" ry="3.133" transform="translate(17.113)" fill="none" stroke="#3e3a39" stroke-linecap="round" stroke-linejoin="round" stroke-width="2"/>
                </g>
              </g>
              <g id="그룹_1879" data-name="그룹 1879" transform="translate(72.99 29.147)">
                <ellipse id="타원_131" data-name="타원 131" cx="5.716" cy="5.716" rx="5.716" ry="5.716" transform="translate(8.473)" fill="none" stroke="#3e3a39" stroke-linecap="round" stroke-linejoin="round" stroke-width="2"/>
                <path id="패스_5022" data-name="패스 5022" d="M823.379,858.538a5.716,5.716,0,1,1-10.067-3.02,8.261,8.261,0,0,0-3.1,2.232l-4.679,5.414a8.308,8.308,0,0,0,.852,11.719h0a8.309,8.309,0,0,0,11.719-.853l4.68-5.414A8.3,8.3,0,0,0,823.379,858.538Z" transform="translate(-803.511 -853.462)" fill="#ffc545" stroke="#3e3a39" stroke-linecap="round" stroke-linejoin="round" stroke-width="2"/>
              </g>
              <path id="패스_5023" data-name="패스 5023" d="M839.692,886.582a3.946,3.946,0,1,0-3.946,3.946A3.946,3.946,0,0,0,839.692,886.582Z" transform="translate(-743.279 -836.546)" fill="none" stroke="#3e3a39" stroke-linecap="round" stroke-linejoin="round" stroke-width="2"/>
            </g>
          </g>
          <path id="패스_5024" data-name="패스 5024" d="M794.741,820.73a7.971,7.971,0,0,0,5.106-5.454s.58,3.714-.812,5.338h5.918a7.4,7.4,0,0,0,1.857-4.758s-.116,4.178,2.2,5.455" transform="translate(-726.566 -806.167)" fill="none" stroke="#3e3a39" stroke-linecap="round" stroke-linejoin="round" stroke-width="2"/>
        </g>
        <path id="패스_5025" data-name="패스 5025" d="M735.325,819.971h-.536a2.064,2.064,0,0,1-2.064-2.064v-.837a2.064,2.064,0,0,1,2.064-2.064h0" transform="translate(-698.598 -806.046)" fill="none" stroke="#3e3a39" stroke-linecap="round" stroke-linejoin="round" stroke-width="2"/>
        <path id="패스_5026" data-name="패스 5026" d="M766.01,819.971h.536a2.064,2.064,0,0,0,2.064-2.064v-.837a2.064,2.064,0,0,0-2.064-2.064h0" transform="translate(-713.609 -806.046)" fill="none" stroke="#3e3a39" stroke-linecap="round" stroke-linejoin="round" stroke-width="2"/>
      </g>
      <line id="선_201" data-name="선 201" y2="1.093" transform="translate(44.449 12.303)" fill="none" stroke="#3e3a39" stroke-linecap="round" stroke-linejoin="round" stroke-width="2"/>
      <line id="선_202" data-name="선 202" y2="1.093" transform="translate(75.295 18.01)" fill="none" stroke="#3e3a39" stroke-linecap="round" stroke-linejoin="round" stroke-width="2"/>
    </g>
  </g>
</svg>
