<svg xmlns="http://www.w3.org/2000/svg" width="103.158" height="102.323" viewBox="0 0 103.158 102.323">
  <g id="그룹_1947" data-name="그룹 1947" transform="translate(1 1)">
    <g id="그룹_1946" data-name="그룹 1946" transform="translate(0 0)">
      <path id="패스_5068" data-name="패스 5068" d="M154.3,585.313H138.1a5.2,5.2,0,0,0-5.2,5.2v7.826a5.2,5.2,0,0,0,5.2,5.2h1.363v6.193l6.193-6.193H154.3a5.2,5.2,0,0,0,5.2-5.2v-7.826A5.2,5.2,0,0,0,154.3,585.313Z" transform="translate(-132.902 -577.872)" fill="none" stroke="#dcdddd" stroke-linecap="round" stroke-linejoin="round" stroke-width="2"/>
      <path id="패스_5069" data-name="패스 5069" d="M273.907,662.636h16.205a5.2,5.2,0,0,1,5.195,5.195v7.826a5.2,5.2,0,0,1-5.195,5.195H288.75v6.193l-6.193-6.193h-8.649a5.2,5.2,0,0,1-5.2-5.195v-7.826A5.2,5.2,0,0,1,273.907,662.636Z" transform="translate(-194.15 -612.743)" fill="none" stroke="#dcdddd" stroke-linecap="round" stroke-linejoin="round" stroke-width="2"/>
      <g id="그룹_1945" data-name="그룹 1945" transform="translate(0)">
        <g id="그룹_1940" data-name="그룹 1940">
          <g id="그룹_1939" data-name="그룹 1939">
            <g id="그룹_1938" data-name="그룹 1938" transform="translate(0 20.757)">
              <g id="그룹_1937" data-name="그룹 1937">
                <g id="그룹_1936" data-name="그룹 1936">
                  <rect id="사각형_646" data-name="사각형 646" width="68.463" height="43.984" transform="translate(0 17.951)" fill="#fff" stroke="#3e3a39" stroke-linecap="round" stroke-linejoin="round" stroke-width="2"/>
                  <rect id="사각형_647" data-name="사각형 647" width="68.463" height="10.179" transform="translate(0 17.951)" fill="#4a93ff" stroke="#3e3a39" stroke-linecap="round" stroke-linejoin="round" stroke-width="2"/>
                  <rect id="사각형_648" data-name="사각형 648" width="56.623" height="4.424" transform="translate(5.92 33.177)" fill="none" stroke="#dcdddd" stroke-linecap="round" stroke-linejoin="round" stroke-width="2"/>
                  <rect id="사각형_649" data-name="사각형 649" width="56.623" height="4.424" transform="translate(5.92 42.517)" fill="none" stroke="#dcdddd" stroke-linecap="round" stroke-linejoin="round" stroke-width="2"/>
                  <rect id="사각형_650" data-name="사각형 650" width="56.623" height="4.424" transform="translate(5.92 51.858)" fill="none" stroke="#dcdddd" stroke-linecap="round" stroke-linejoin="round" stroke-width="2"/>
                  <rect id="사각형_651" data-name="사각형 651" width="27.155" height="61.935" transform="translate(20.654)" fill="#fff" stroke="#3e3a39" stroke-linecap="round" stroke-linejoin="round" stroke-width="2"/>
                  <path id="패스_5070" data-name="패스 5070" d="M196.46,625.349h-4.869V620.48h-3.776v4.869h-4.869v3.776h4.869v4.869h3.776v-4.869h4.869Z" transform="translate(-155.471 -614.489)" fill="#51d565" stroke="#3e3a39" stroke-linecap="round" stroke-linejoin="round" stroke-width="2"/>
                </g>
                <rect id="사각형_652" data-name="사각형 652" width="15.501" height="4.571" transform="translate(26.481 26.56)" fill="none" stroke="#dcdddd" stroke-linecap="round" stroke-linejoin="round" stroke-width="2"/>
                <rect id="사각형_653" data-name="사각형 653" width="15.501" height="4.571" transform="translate(26.481 35.702)" fill="none" stroke="#dcdddd" stroke-linecap="round" stroke-linejoin="round" stroke-width="2"/>
                <rect id="사각형_654" data-name="사각형 654" width="10.415" height="13.695" transform="translate(29.024 48.239)" fill="#4a93ff" stroke="#3e3a39" stroke-linecap="round" stroke-linejoin="round" stroke-width="2"/>
              </g>
              <line id="선_211" data-name="선 211" y2="12.123" transform="translate(34.232 48.818)" fill="#4a93ff" stroke="#3e3a39" stroke-linecap="round" stroke-linejoin="round" stroke-width="2"/>
            </g>
            <path id="패스_5071" data-name="패스 5071" d="M246.082,575.041a11.2,11.2,0,0,0-15.844,15.844l7.922,7.922,7.922-7.922A11.2,11.2,0,0,0,246.082,575.041Zm-4.9,10.948a4.28,4.28,0,1,1,0-6.053A4.281,4.281,0,0,1,241.187,585.99Z" transform="translate(-175.319 -571.76)" fill="#ff4a58" stroke="#3e3a39" stroke-linecap="round" stroke-linejoin="round" stroke-width="2"/>
          </g>
          <line id="선_212" data-name="선 212" x2="28.616" transform="translate(47.966 28.447)" fill="none" stroke="#3e3a39" stroke-linecap="round" stroke-linejoin="round" stroke-width="2"/>
          <ellipse id="타원_138" data-name="타원 138" cx="2.357" cy="2.357" rx="2.357" ry="2.357" transform="translate(75.572 26.091)" fill="#51d565" stroke="#3e3a39" stroke-linecap="round" stroke-linejoin="round" stroke-width="2"/>
        </g>
        <g id="그룹_1944" data-name="그룹 1944" transform="translate(65.809 78.104)">
          <g id="그룹_1941" data-name="그룹 1941">
            <path id="패스_5072" data-name="패스 5072" d="M257.482,716.378a2.356,2.356,0,1,0-2.356,2.356A2.356,2.356,0,0,0,257.482,716.378Z" transform="translate(-252.769 -714.021)" fill="#51d565" stroke="#3e3a39" stroke-linecap="round" stroke-linejoin="round" stroke-width="2"/>
            <line id="선_213" data-name="선 213" x2="26.259" transform="translate(9.09 2.357)" fill="none" stroke="#3e3a39" stroke-linecap="round" stroke-linejoin="round" stroke-width="2"/>
          </g>
          <g id="그룹_1942" data-name="그룹 1942" transform="translate(0 8.753)">
            <path id="패스_5073" data-name="패스 5073" d="M257.482,732.321a2.356,2.356,0,1,0-2.356,2.356A2.356,2.356,0,0,0,257.482,732.321Z" transform="translate(-252.769 -729.964)" fill="#51d565" stroke="#3e3a39" stroke-linecap="round" stroke-linejoin="round" stroke-width="2"/>
            <line id="선_214" data-name="선 214" x2="26.259" transform="translate(9.09 2.357)" fill="none" stroke="#3e3a39" stroke-linecap="round" stroke-linejoin="round" stroke-width="2"/>
          </g>
          <g id="그룹_1943" data-name="그룹 1943" transform="translate(0 17.506)">
            <path id="패스_5074" data-name="패스 5074" d="M257.482,748.264a2.356,2.356,0,1,0-2.356,2.356A2.356,2.356,0,0,0,257.482,748.264Z" transform="translate(-252.769 -745.907)" fill="#51d565" stroke="#3e3a39" stroke-linecap="round" stroke-linejoin="round" stroke-width="2"/>
            <line id="선_215" data-name="선 215" x2="26.259" transform="translate(9.09 2.357)" fill="none" stroke="#3e3a39" stroke-linecap="round" stroke-linejoin="round" stroke-width="2"/>
          </g>
        </g>
      </g>
    </g>
    <path id="패스_5075" data-name="패스 5075" d="M297.759,572.175l1.112,3.421h3.6a.6.6,0,0,1,.354,1.088l-2.91,2.114,1.111,3.421a.6.6,0,0,1-.925.672l-2.91-2.114-2.91,2.114a.6.6,0,0,1-.926-.672l1.112-3.421-2.91-2.114a.6.6,0,0,1,.353-1.088h3.6l1.111-3.421A.6.6,0,0,1,297.759,572.175Z" transform="translate(-204.339 -571.759)" fill="none" stroke="#dcdddd" stroke-linecap="round" stroke-linejoin="round" stroke-width="2"/>
    <path id="패스_5076" data-name="패스 5076" d="M297.759,601.642l1.112,3.42h3.6a.6.6,0,0,1,.354,1.088l-2.91,2.114,1.111,3.42a.6.6,0,0,1-.925.673l-2.91-2.114-2.91,2.114a.6.6,0,0,1-.926-.673l1.112-3.42-2.91-2.114a.6.6,0,0,1,.353-1.088h3.6l1.111-3.42A.6.6,0,0,1,297.759,601.642Z" transform="translate(-204.339 -585.048)" fill="none" stroke="#dcdddd" stroke-linecap="round" stroke-linejoin="round" stroke-width="2"/>
    <path id="패스_5077" data-name="패스 5077" d="M297.759,631.108l1.112,3.421h3.6a.6.6,0,0,1,.354,1.088l-2.91,2.114,1.111,3.421a.6.6,0,0,1-.925.672l-2.91-2.114-2.91,2.114a.6.6,0,0,1-.926-.672l1.112-3.421-2.91-2.114a.6.6,0,0,1,.353-1.088h3.6l1.111-3.421A.6.6,0,0,1,297.759,631.108Z" transform="translate(-204.339 -598.337)" fill="none" stroke="#dcdddd" stroke-linecap="round" stroke-linejoin="round" stroke-width="2"/>
  </g>
</svg>
