<svg xmlns="http://www.w3.org/2000/svg" width="162.363" height="122.151" viewBox="0 0 162.363 122.151">
  <g id="그룹_642" data-name="그룹 642" transform="translate(-118.5 -634.834)">
    <g id="그룹_574" data-name="그룹 574" transform="translate(118.712 690.955)">
      <path id="패스_834" data-name="패스 834" d="M355.126,959.834v1.819l-50.187,5.558-4.641.513-2.813-.311-52.015-5.76v-1.819Z" transform="translate(-219.329 -946.803)" fill="#4e475f"/>
      <path id="패스_835" data-name="패스 835" d="M497.384,967.211l-4.641.513-2.813-.311.381-7.579h6.7Z" transform="translate(-411.774 -946.803)" fill="#26212d"/>
      <path id="패스_836" data-name="패스 836" d="M487.14,998.082H475.28l.919-18.263,0-.053.021-.434.034-.687,1.619-32.155a3.337,3.337,0,0,1,6.668,0l1.619,32.155.034.687.021.434,0,.053Z" transform="translate(-400.241 -933.782)" fill="#605eab"/>
      <path id="사각형_586" data-name="사각형 586" d="M16.746,0H29.124A16.746,16.746,0,0,1,45.87,16.746v0a0,0,0,0,1,0,0H0a0,0,0,0,1,0,0v0A16.746,16.746,0,0,1,16.746,0Z" transform="translate(58.033 46.037)" fill="#807ebc"/>
      <rect id="사각형_587" data-name="사각형 587" width="51.089" height="3.034" transform="translate(55.424 62.784)" fill="#605eab"/>
      <circle id="타원_121" data-name="타원 121" cx="1.82" cy="1.82" r="1.82" transform="translate(79.521 11.681)" fill="#413856"/>
      <circle id="타원_122" data-name="타원 122" cx="1.82" cy="1.82" r="1.82" transform="translate(79.148 11.681)" fill="#807ebc"/>
      <path id="사각형_588" data-name="사각형 588" d="M0,0H55.941a0,0,0,0,1,0,0V0a6.8,6.8,0,0,1-6.8,6.8H6.8A6.8,6.8,0,0,1,0,0V0A0,0,0,0,1,0,0Z" transform="translate(0 0)" fill="#605eab"/>
      <rect id="사각형_589" data-name="사각형 589" width="3.661" height="8.056" transform="translate(26.14 6.796)" fill="#4e475f"/>
      <path id="사각형_590" data-name="사각형 590" d="M0,0H55.941a0,0,0,0,1,0,0V0a6.8,6.8,0,0,1-6.8,6.8H6.8A6.8,6.8,0,0,1,0,0V0A0,0,0,0,1,0,0Z" transform="translate(105.996 0)" fill="#605eab"/>
      <path id="패스_837" data-name="패스 837" d="M489.627,1110.555H479.61l.021-.434.034-.687h9.907l.034.687Z" transform="translate(-403.65 -1064.571)" fill="#484780"/>
      <rect id="사각형_591" data-name="사각형 591" width="3.661" height="8.056" transform="translate(132.136 6.796)" fill="#4e475f"/>
      <rect id="사각형_592" data-name="사각형 592" width="3.661" height="0.705" transform="translate(132.136 6.796)" fill="#26212d"/>
      <rect id="사각형_593" data-name="사각형 593" width="3.661" height="0.705" transform="translate(26.14 6.796)" fill="#26212d"/>
      <path id="패스_838" data-name="패스 838" d="M574.667,1127s4.4,2.252,4.4,6.667v6.88h-2.2S577.77,1131.54,574.667,1127Z" transform="translate(-478.481 -1078.401)" fill="#a09ecd"/>
      <rect id="사각형_594" data-name="사각형 594" width="45.87" height="0.637" transform="translate(58.033 62.147)" fill="#484780"/>
    </g>
    <rect id="사각형_595" data-name="사각형 595" width="30.202" height="6.234" transform="translate(184.58 650.037)" fill="#4e475f"/>
    <rect id="사각형_596" data-name="사각형 596" width="30.202" height="6.234" transform="translate(184.58 663.868)" fill="#4e475f"/>
    <path id="패스_839" data-name="패스 839" d="M220.336,653.5a17.416,17.416,0,1,0-20.607,17.117v3.064h-7.022v6.383h7.022v5.958h6.383v-5.958h7.022v-6.383h-7.022V670.62A17.441,17.441,0,0,0,220.336,653.5Zm-28.448,0a11.032,11.032,0,1,1,11.032,11.032A11.045,11.045,0,0,1,191.888,653.5Z" transform="translate(-53.411 -0.986)" fill="#cccbe4"/>
    <g id="그룹_599" data-name="그룹 599" transform="translate(121.18 649.373)">
      <path id="패스_840" data-name="패스 840" d="M143.546,733.864a.213.213,0,0,1-.119-.39c1.131-.755,4.24-1.3,7.074-1.229h.07c2.712,0,3.569-3.738,3.578-3.776a.213.213,0,1,1,.416.092c-.009.042-.96,4.179-4.073,4.109-3.083-.072-5.891.532-6.827,1.157A.212.212,0,0,1,143.546,733.864Z" transform="translate(-141.392 -722.954)" fill="#1b1b19"/>
      <g id="그룹_575" data-name="그룹 575" transform="translate(0 2.508)">
        <path id="패스_841" data-name="패스 841" d="M147.188,722.251a3,3,0,0,1-1.4.794,18.5,18.5,0,0,1-3.9.588,12.129,12.129,0,0,0-3.856.805,4.623,4.623,0,0,0-2.661,2.759,5.063,5.063,0,0,0,.05,2.644,4.994,4.994,0,0,0,1.131,2.266,4.1,4.1,0,0,0,2.492,1.178,6.559,6.559,0,0,0,2.771-.336,11.8,11.8,0,0,0,6.675-6.19,22.5,22.5,0,0,0,1.966-9.074,3.112,3.112,0,0,0-.262-1.673c-.189-.331-1.305.792-1.4.929a4.559,4.559,0,0,0-.617,1.921C148.032,719.976,147.968,721.366,147.188,722.251Z" transform="translate(-135.003 -715.74)" fill="#26212d"/>
        <path id="패스_842" data-name="패스 842" d="M138.863,732.746a5.454,5.454,0,0,1-.634-.036,4.288,4.288,0,0,1-2.621-1.243,5.127,5.127,0,0,1-1.183-2.361,5.187,5.187,0,0,1-.047-2.756,4.791,4.791,0,0,1,2.78-2.894,12.316,12.316,0,0,1,3.923-.823l.4-.035a16.287,16.287,0,0,0,3.456-.545,2.717,2.717,0,0,0,1.3-.731,5.2,5.2,0,0,0,.884-2.822c.019-.155.037-.306.056-.453a4.827,4.827,0,0,1,.651-2.011c.039-.059.97-1.085,1.463-1.085h.012a.333.333,0,0,1,.284.167,3.3,3.3,0,0,1,.289,1.787,22.564,22.564,0,0,1-1.988,9.159,11.979,11.979,0,0,1-6.8,6.3A7.233,7.233,0,0,1,138.863,732.746Zm10.386-17.36a4.177,4.177,0,0,0-1.066.889,4.439,4.439,0,0,0-.582,1.83c-.019.145-.037.294-.055.447a5.506,5.506,0,0,1-.988,3.053h0a3.2,3.2,0,0,1-1.492.856,16.6,16.6,0,0,1-3.547.563l-.4.034a11.958,11.958,0,0,0-3.788.788,4.371,4.371,0,0,0-2.543,2.625,4.783,4.783,0,0,0,.052,2.532,4.723,4.723,0,0,0,1.079,2.171,3.866,3.866,0,0,0,2.363,1.113,6.32,6.32,0,0,0,2.68-.327,11.554,11.554,0,0,0,6.549-6.081,22.155,22.155,0,0,0,1.945-8.989A3.041,3.041,0,0,0,149.249,715.386Zm-2.851,6.078h0Z" transform="translate(-134.213 -714.953)" fill="#1b1b19"/>
      </g>
      <g id="그룹_582" data-name="그룹 582" transform="translate(10.085 31.803)">
        <g id="그룹_576" data-name="그룹 576" transform="translate(12.545 7.557)">
          <path id="패스_843" data-name="패스 843" d="M247.435,890.252,241.566,909.4l8.422,2.274,5.806-18.5-3.064-4.023Z" transform="translate(-241.353 -888.935)" fill="#cddaf1"/>
          <path id="패스_844" data-name="패스 844" d="M249.2,911.1a.222.222,0,0,1-.056-.007l-8.422-2.275a.212.212,0,0,1-.148-.268l5.869-19.144a.213.213,0,0,1,.16-.146l5.294-1.1a.211.211,0,0,1,.213.079l3.064,4.023a.213.213,0,0,1,.034.193l-5.806,18.5A.213.213,0,0,1,249.2,911.1Zm-8.154-2.635,8.012,2.164,5.712-18.2-2.916-3.829-5.04,1.052Z" transform="translate(-240.566 -888.147)" fill="#1b1b19"/>
        </g>
        <g id="그룹_577" data-name="그룹 577">
          <path id="패스_845" data-name="패스 845" d="M194.327,853.63l-11.719.957s-.051,9.574,6.708,11.068,14.153-.586,14.453-.064,7.179,17.37,7.179,17.37l8.071-3.771s-7.322-22.147-10.328-22.849-12.744-.282-12.744-.282Z" transform="translate(-182.395 -853.417)" fill="#cddaf1"/>
          <path id="패스_846" data-name="패스 846" d="M210.162,882.387a.212.212,0,0,1-.2-.132c-1.877-4.6-6.743-16.479-7.149-17.31a11.709,11.709,0,0,0-2.12.179c-2.855.361-7.635.965-12.213-.048-6.848-1.514-6.876-11.18-6.875-11.277a.213.213,0,0,1,.2-.211l11.719-.957a.212.212,0,0,1,.194.094l1.555,2.329c1.176-.048,9.827-.373,12.681.293,3.035.709,9.729,20.711,10.482,22.989a.213.213,0,0,1-.112.26l-8.071,3.771A.215.215,0,0,1,210.162,882.387ZM202.6,864.5c.338,0,.49.059.567.193.289.5,6.283,15.17,7.107,17.189l7.7-3.6c-2.078-6.256-7.767-21.981-10.115-22.529-2.944-.687-12.589-.281-12.686-.277a.207.207,0,0,1-.186-.094l-1.552-2.325-11.395.93c.043,1.355.552,9.341,6.538,10.665,4.506,1,9.24.4,12.068.041A19.517,19.517,0,0,1,202.6,864.5Z" transform="translate(-181.608 -852.63)" fill="#1b1b19"/>
        </g>
        <g id="그룹_578" data-name="그룹 578" transform="translate(31.382 25.56)">
          <path id="패스_847" data-name="패스 847" d="M335.127,973.757l.589,1.109s2.8,1.247,3.085,2.125c0,0-6.171,3.431-7.092,3.467s-1.612-4.351-1.612-4.351Z" transform="translate(-329.884 -973.544)" fill="#26212d"/>
          <path id="패스_848" data-name="패스 848" d="M330.913,979.884c-1.02,0-1.645-3.464-1.813-4.531a.213.213,0,0,1,.12-.226l5.03-2.35a.213.213,0,0,1,.278.093l.555,1.045c.5.228,2.846,1.333,3.134,2.224a.213.213,0,0,1-.1.252c-.636.354-6.242,3.457-7.188,3.493Zm-1.367-4.439c.356,2.161.982,4.014,1.363,4.014h0c.624-.024,4.352-1.975,6.82-3.341a9.1,9.1,0,0,0-2.891-1.843.213.213,0,0,1-.1-.095l-.494-.931Z" transform="translate(-329.098 -972.757)" fill="#1b1b19"/>
        </g>
        <g id="그룹_579" data-name="그룹 579" transform="translate(13.532 28.569)">
          <path id="패스_849" data-name="패스 849" d="M253.64,989.41l-.394,1.264a18.306,18.306,0,0,1-.532,4.61s-5.266-3.316-6.277-4.131,1.608-3.253,1.608-3.253Z" transform="translate(-245.992 -987.686)" fill="#26212d"/>
          <path id="패스_850" data-name="패스 850" d="M251.926,994.709a.211.211,0,0,1-.113-.033c-.216-.136-5.288-3.332-6.3-4.146a.828.828,0,0,1-.311-.634c-.039-1.1,1.708-2.755,1.907-2.94a.215.215,0,0,1,.2-.05l5.6,1.511a.213.213,0,0,1,.148.269l-.384,1.231a18.182,18.182,0,0,1-.541,4.638.212.212,0,0,1-.129.14A.21.21,0,0,1,251.926,994.709Zm-4.609-7.361c-.549.53-1.712,1.808-1.686,2.533a.4.4,0,0,0,.152.318c.866.7,4.967,3.3,6.014,3.963a18.812,18.812,0,0,0,.449-4.272.215.215,0,0,1,.01-.068l.329-1.052Z" transform="translate(-245.204 -986.9)" fill="#1b1b19"/>
        </g>
        <g id="그룹_581" data-name="그룹 581" transform="translate(4.612 2.429)">
          <g id="그룹_580" data-name="그룹 580">
            <path id="패스_851" data-name="패스 851" d="M203.5,864.683h-.006a.213.213,0,0,1-.206-.219c0-.144.012-.225.012-.225a.213.213,0,0,1,.424.038s-.006.074-.01.2A.213.213,0,0,1,203.5,864.683Z" transform="translate(-203.283 -864.046)" fill="#1b1b19"/>
            <path id="패스_852" data-name="패스 852" d="M228.987,894.581a.213.213,0,0,1-.2-.137l-.152-.4a.213.213,0,0,1,.4-.151l.152.4a.213.213,0,0,1-.2.288Zm-.61-1.6a.213.213,0,0,1-.2-.137l-.153-.4a.213.213,0,1,1,.4-.152l.153.4a.212.212,0,0,1-.123.275A.21.21,0,0,1,228.376,892.981Zm-.612-1.6a.213.213,0,0,1-.2-.137l-.153-.4a.213.213,0,1,1,.4-.152l.153.4a.213.213,0,0,1-.2.289Zm-.614-1.6a.213.213,0,0,1-.2-.136l-.154-.4a.213.213,0,1,1,.4-.153l.154.4a.213.213,0,0,1-.2.29Zm-.616-1.6a.212.212,0,0,1-.2-.136l-.155-.4a.213.213,0,0,1,.4-.154l.154.4a.213.213,0,0,1-.2.29Zm-.619-1.6a.213.213,0,0,1-.2-.136l-.156-.4a.213.213,0,1,1,.4-.155l.156.4a.213.213,0,0,1-.121.276A.21.21,0,0,1,225.915,886.589Zm-.623-1.6a.213.213,0,0,1-.2-.135l-.156-.4a.213.213,0,0,1,.4-.156l.156.4a.213.213,0,0,1-.2.291Zm-.627-1.593a.213.213,0,0,1-.2-.134l-.158-.4a.213.213,0,0,1,.4-.157l.158.4a.212.212,0,0,1-.2.291Zm-.634-1.59a.213.213,0,0,1-.2-.133l-.16-.4a.213.213,0,1,1,.394-.16l.16.4a.213.213,0,0,1-.118.277A.215.215,0,0,1,224.03,881.81Zm-.645-1.586a.213.213,0,0,1-.2-.132l-.163-.395a.213.213,0,0,1,.393-.163l.164.4a.213.213,0,0,1-.116.278A.218.218,0,0,1,223.385,880.223Zm-.665-1.579a.213.213,0,0,1-.2-.128q-.091-.209-.172-.39a.213.213,0,0,1,.388-.174q.082.182.174.394a.213.213,0,0,1-.2.3Zm-.842-1.463a.214.214,0,0,1-.1-.024,1.527,1.527,0,0,0-.352-.122.213.213,0,0,1,.1-.414,1.922,1.922,0,0,1,.452.159.213.213,0,0,1-.1.4Zm-8.732-.1h-.206a.213.213,0,0,1,0-.426h.427a.213.213,0,0,1,0,.426Zm1.5-.021a.213.213,0,0,1-.006-.426l.426-.012a.209.209,0,0,1,.219.206.213.213,0,0,1-.206.22l-.428.013Zm-2.99-.007h-.009q-.216-.009-.43-.021a.213.213,0,0,1-.2-.224.216.216,0,0,1,.225-.2q.21.012.423.021a.213.213,0,0,1-.009.425Zm4.7-.051a.213.213,0,0,1-.009-.425l.427-.017a.21.21,0,0,1,.221.2.213.213,0,0,1-.2.221l-.427.017Zm1.708-.067a.213.213,0,0,1-.007-.425l.428-.014a.213.213,0,0,1,.012.426l-.426.013Zm-8.11-.011h-.025q-.218-.025-.43-.056a.213.213,0,1,1,.061-.421q.206.03.418.055a.213.213,0,0,1-.024.424Zm10.246-.012H220.2q-.2-.006-.423-.008a.213.213,0,0,1,0-.426h0c.149,0,.294,0,.432.008a.213.213,0,0,1-.006.426Zm-11.928-.289a.211.211,0,0,1-.053-.007q-.216-.056-.421-.119a.213.213,0,0,1,.126-.407q.2.061.4.114a.213.213,0,0,1-.053.419ZM206.687,876a.211.211,0,0,1-.1-.027c-.13-.073-.257-.151-.378-.231a.213.213,0,0,1,.236-.354c.112.075.23.147.35.214a.213.213,0,0,1-.1.4Zm-1.332-1.057a.213.213,0,0,1-.157-.07c-.1-.108-.194-.223-.285-.341a.213.213,0,1,1,.337-.259c.084.109.172.215.262.314a.213.213,0,0,1-.157.356Zm-.933-1.423a.212.212,0,0,1-.193-.124c-.061-.131-.118-.268-.171-.406a.213.213,0,0,1,.4-.153c.05.13.1.258.16.381a.213.213,0,0,1-.1.282A.21.21,0,0,1,204.423,873.519Zm-.514-1.626a.213.213,0,0,1-.209-.172c-.029-.149-.052-.294-.071-.433a.213.213,0,1,1,.422-.058c.018.131.04.269.067.41a.213.213,0,0,1-.169.249A.228.228,0,0,1,203.909,871.893Z" transform="translate(-203.554 -869.556)" fill="#1b1b19"/>
            <path id="패스_853" data-name="패스 853" d="M324.179,985.762a.213.213,0,0,1-.2-.138l-.075-.2a.213.213,0,0,1,.4-.151l.075.2a.213.213,0,0,1-.2.288Z" transform="translate(-298.229 -959.372)" fill="#1b1b19"/>
          </g>
        </g>
        <path id="패스_854" data-name="패스 854" d="M253.257,932.336a.213.213,0,0,1-.2-.275l.124-.407a.213.213,0,0,1,.407.124l-.124.407A.213.213,0,0,1,253.257,932.336Zm.5-1.628a.209.209,0,0,1-.062-.009.213.213,0,0,1-.141-.266l.124-.407a.213.213,0,0,1,.407.124l-.124.407A.213.213,0,0,1,253.754,930.708Zm.5-1.628a.216.216,0,0,1-.062-.009.213.213,0,0,1-.142-.266l.124-.407a.213.213,0,0,1,.407.124l-.124.407A.213.213,0,0,1,254.251,929.08Zm.5-1.628a.2.2,0,0,1-.062-.009.213.213,0,0,1-.141-.266l.124-.407a.213.213,0,0,1,.407.124l-.124.407A.213.213,0,0,1,254.748,927.451Zm.5-1.628a.213.213,0,0,1-.2-.275l.124-.407a.213.213,0,0,1,.407.124l-.124.407A.213.213,0,0,1,255.245,925.823Zm.5-1.628a.207.207,0,0,1-.062-.009.213.213,0,0,1-.141-.266l.124-.407a.213.213,0,0,1,.407.124l-.124.407A.213.213,0,0,1,255.742,924.2Zm.5-1.628a.2.2,0,0,1-.062-.009.212.212,0,0,1-.141-.266l.124-.407a.213.213,0,0,1,.407.124l-.124.407A.213.213,0,0,1,256.239,922.567Zm.5-1.628a.207.207,0,0,1-.062-.009.213.213,0,0,1-.142-.266l.124-.407a.213.213,0,1,1,.407.124l-.124.407A.213.213,0,0,1,256.736,920.939Zm.5-1.628a.213.213,0,0,1-.2-.275l.124-.407a.213.213,0,0,1,.407.124l-.124.407A.213.213,0,0,1,257.233,919.312Z" transform="translate(-237.844 -904.467)" fill="#1b1b19"/>
      </g>
      <g id="그룹_583" data-name="그룹 583" transform="translate(17.15 10.98)">
        <path id="패스_855" data-name="패스 855" d="M231.347,760.806l-3.729,4.81a.769.769,0,0,1-1.2.014c-1.871-2.3-7.6-9.1-10.6-9.86v.426l.638,11.184,4.184,9.377,1.452,2.264-.654-10.258s4.451,4.575,6.72,3.085,5.683-8.876,5.683-8.876Z" transform="translate(-215.601 -755.557)" fill="#eeb02c"/>
        <path id="패스_856" data-name="패스 856" d="M221.3,778.446a.213.213,0,0,1-.179-.1l-1.452-2.264a.241.241,0,0,1-.015-.028l-4.184-9.377a.214.214,0,0,1-.018-.074l-.638-11.185v-.437a.212.212,0,0,1,.265-.206c3,.765,8.49,7.2,10.712,9.932a.554.554,0,0,0,.432.205h.007a.553.553,0,0,0,.433-.215l3.728-4.81a.212.212,0,0,1,.147-.082.215.215,0,0,1,.16.051l2.491,2.166a.213.213,0,0,1,.054.25c-.14.3-3.465,7.459-5.759,8.965-2,1.313-5.42-1.622-6.589-2.724l.619,9.706a.213.213,0,0,1-.212.226Zm-1.265-2.578,1,1.559-.6-9.438a.213.213,0,0,1,.365-.162c.043.044,4.354,4.431,6.451,3.056,2.021-1.326,5.049-7.607,5.539-8.643l-2.2-1.913L227,764.958a.977.977,0,0,1-.764.38h-.012a.977.977,0,0,1-.762-.363c-1.662-2.044-7.194-8.635-10.221-9.707v.138l.636,11.133Z" transform="translate(-214.814 -754.769)" fill="#1b1b19"/>
      </g>
      <g id="그룹_584" data-name="그룹 584" transform="translate(0.41 10.483)">
        <path id="패스_857" data-name="패스 857" d="M150.224,753.434s-3.83,1.326-5.319,3.17c-1.017,1.26-9.858,12.009-7.375,14.49a19.393,19.393,0,0,0,6.075,3.824l-.4,9.654h7.181l2.607-18.96ZM143.7,770.271c-.815-.845-1.351-1.679-1.047-2.23.266-.485.649-1.083,1.047-1.679Z" transform="translate(-136.889 -753.221)" fill="#eeb02c"/>
        <path id="패스_858" data-name="패스 858" d="M149.632,784h-7.181a.212.212,0,0,1-.213-.222l.4-9.5a19.269,19.269,0,0,1-6.006-3.817c-2.218-2.216,3.595-10.128,7.257-14.647l.1-.127c1.51-1.871,5.256-3.183,5.415-3.238a.213.213,0,0,1,.277.154l2.766,12.177a.218.218,0,0,1,0,.076l-2.607,18.96A.213.213,0,0,1,149.632,784Zm-6.959-.426h6.773l2.577-18.738-2.7-11.9c-.833.314-3.77,1.5-5,3.021l-.1.128c-5.989,7.39-8.713,12.652-7.287,14.078a19.31,19.31,0,0,0,6,3.775.212.212,0,0,1,.138.208Zm.276-13.875a.212.212,0,0,1-.153-.065c-1.048-1.087-1.4-1.9-1.08-2.48.232-.423.578-.978,1.056-1.694a.213.213,0,0,1,.39.118v3.908a.212.212,0,0,1-.213.213Zm-.213-3.41c-.276.428-.489.781-.647,1.069-.178.322.051.874.647,1.577Z" transform="translate(-136.137 -752.434)" fill="#1b1b19"/>
      </g>
      <g id="그룹_585" data-name="그룹 585" transform="translate(13.533 10.484)">
        <path id="패스_859" data-name="패스 859" d="M202.431,754.359l-3.617-.922,1.968,12.628-.794,11.119,7.266-2.264-4.185-9.377Z" transform="translate(-198.601 -753.224)" fill="#fff"/>
        <path id="패스_860" data-name="패스 860" d="M199.2,776.609a.213.213,0,0,1-.212-.228l.792-11.1-1.965-12.6a.213.213,0,0,1,.263-.239l3.617.922a.212.212,0,0,1,.16.194l.636,11.145,4.169,9.341a.213.213,0,0,1-.131.29l-7.266,2.264A.213.213,0,0,1,199.2,776.609Zm-.914-23.675,1.919,12.31a.225.225,0,0,1,0,.048l-.772,10.808,6.739-2.1-4.087-9.158a.214.214,0,0,1-.018-.074l-.629-11.029Z" transform="translate(-197.814 -752.436)" fill="#1b1b19"/>
      </g>
      <g id="그룹_594" data-name="그룹 594" transform="translate(12.751 0.827)">
        <g id="그룹_586" data-name="그룹 586" transform="translate(0.72 5.296)">
          <path id="패스_861" data-name="패스 861" d="M200.356,740.047h0a1.922,1.922,0,0,0,2.012-1.827l.217-4.511-3.839-.773-.217,5.1A1.922,1.922,0,0,0,200.356,740.047Z" transform="translate(-198.313 -732.723)" fill="#fff"/>
          <path id="패스_862" data-name="패스 862" d="M199.663,739.475l-.105,0a2.135,2.135,0,0,1-2.029-2.234l.217-5.1a.213.213,0,0,1,.081-.159.217.217,0,0,1,.173-.041l3.839.773a.213.213,0,0,1,.171.219l-.217,4.511a2.135,2.135,0,0,1-2.13,2.032Zm-1.5-7.069-.207,4.851a1.709,1.709,0,1,0,3.414.166l.209-4.328Z" transform="translate(-197.526 -731.937)" fill="#1b1b19"/>
        </g>
        <g id="그룹_587" data-name="그룹 587" transform="translate(0.86 0.699)">
          <path id="패스_863" data-name="패스 863" d="M200.527,718.147a2.067,2.067,0,0,0,1.574.952c1.249-.033,1.988-1.008,2.385-2.787l.173-1.075s.95-3.672-2.767-3.9a2.53,2.53,0,0,0-1.948.869,2.78,2.78,0,0,0-.763,1.992l.042.449.037,1.283" transform="translate(-198.969 -711.121)" fill="#fff"/>
          <path id="패스_864" data-name="패스 864" d="M201.3,718.525a2.291,2.291,0,0,1-1.74-1.062.213.213,0,0,1,.373-.2,1.846,1.846,0,0,0,1.382.841c1.1-.029,1.79-.862,2.184-2.62l.171-1.062a3.572,3.572,0,0,0-.376-2.651,2.767,2.767,0,0,0-2.194-1,2.353,2.353,0,0,0-1.78.8,2.559,2.559,0,0,0-.7,1.84l.041.435.038,1.3a.213.213,0,1,1-.425.013l-.037-1.283-.041-.435a2.989,2.989,0,0,1,.82-2.158,2.769,2.769,0,0,1,2.115-.935,3.165,3.165,0,0,1,2.514,1.179,3.928,3.928,0,0,1,.447,2.987l-.169,1.055c-.439,1.965-1.285,2.931-2.59,2.966Z" transform="translate(-198.184 -710.334)" fill="#1b1b19"/>
        </g>
        <g id="그룹_588" data-name="그룹 588" transform="translate(0 3.706)">
          <path id="패스_865" data-name="패스 865" d="M196.484,725.686a.795.795,0,1,0,.1,1.038" transform="translate(-194.928 -725.254)" fill="#fff"/>
          <path id="패스_866" data-name="패스 866" d="M195.148,726.482a1.007,1.007,0,1,1,.7-1.736.213.213,0,0,1-.294.308.565.565,0,0,0-.417-.161.582.582,0,0,0-.566.6.583.583,0,0,0,.582.566h.016a.578.578,0,0,0,.457-.242.213.213,0,1,1,.346.248,1,1,0,0,1-.792.42Z" transform="translate(-194.141 -724.467)" fill="#1b1b19"/>
        </g>
        <g id="그룹_589" data-name="그룹 589" transform="translate(0.869 5.295)">
          <line id="선_138" data-name="선 138" x1="0.071" y2="1.672" transform="translate(0.213 0.213)" fill="#fff"/>
          <path id="패스_867" data-name="패스 867" d="M198.436,734.033h-.009a.213.213,0,0,1-.2-.222l.071-1.672a.213.213,0,0,1,.425.018l-.071,1.672A.213.213,0,0,1,198.436,734.033Z" transform="translate(-198.223 -731.935)" fill="#1b1b19"/>
        </g>
        <g id="그룹_590" data-name="그룹 590" transform="translate(3.413 3.822)">
          <path id="패스_868" data-name="패스 868" d="M211.18,726.1a.085.085,0,1,0,.086-.085A.086.086,0,0,0,211.18,726.1Z" transform="translate(-210.967 -725.799)" fill="#1b1b19"/>
          <path id="패스_869" data-name="패스 869" d="M210.478,725.608a.3.3,0,1,1,.3-.3A.3.3,0,0,1,210.478,725.608Zm0-.426a.127.127,0,1,0,.127.127A.128.128,0,0,0,210.478,725.183Z" transform="translate(-210.18 -725.012)" fill="#1b1b19"/>
        </g>
        <g id="그룹_591" data-name="그룹 591" transform="translate(5.664 3.907)">
          <path id="패스_870" data-name="패스 870" d="M221.759,726.5a.085.085,0,1,0,.085-.086A.086.086,0,0,0,221.759,726.5Z" transform="translate(-221.546 -726.2)" fill="#1b1b19"/>
          <path id="패스_871" data-name="패스 871" d="M221.057,726.01a.3.3,0,1,1,.3-.3A.3.3,0,0,1,221.057,726.01Zm0-.426a.127.127,0,1,0,.127.127A.127.127,0,0,0,221.057,725.584Z" transform="translate(-220.759 -725.413)" fill="#1b1b19"/>
        </g>
        <path id="패스_872" data-name="패스 872" d="M211.828,734.181a.777.777,0,0,1-.447-.134,1.164,1.164,0,0,1-.429-.812.213.213,0,0,1,.194-.23.21.21,0,0,1,.23.193h0a.75.75,0,0,0,.245.5.478.478,0,0,0,.418.024.213.213,0,1,1,.123.407A1.16,1.16,0,0,1,211.828,734.181Z" transform="translate(-207.375 -727.481)" fill="#1b1b19"/>
        <g id="그룹_592" data-name="그룹 592" transform="translate(0.139)">
          <path id="패스_873" data-name="패스 873" d="M196.736,711.814s3.205-.977,4.194-2.281a2.525,2.525,0,0,1,1.17,2.063,2.579,2.579,0,0,0-2.1-3.3,2.891,2.891,0,0,0-4.118,2.527l-.093,1.19A.815.815,0,0,1,196.736,711.814Z" transform="translate(-195.58 -707.841)" fill="#26212d"/>
          <path id="패스_874" data-name="패스 874" d="M195.006,711.438a.213.213,0,0,1-.212-.229l.093-1.19a3.41,3.41,0,0,1,1.534-2.617,3.628,3.628,0,0,1,2.857-.1,2.839,2.839,0,0,1,1.946,1.239,3.214,3.214,0,0,1,.295,2.318.215.215,0,0,1-.222.156.213.213,0,0,1-.2-.188,2.392,2.392,0,0,0-.914-1.808c-1.128,1.264-4.048,2.165-4.177,2.2a.212.212,0,0,1-.169-.02c-.333-.194-.667.151-.681.166A.214.214,0,0,1,195.006,711.438Zm2.85-3.961a2.486,2.486,0,0,0-1.229.3,3,3,0,0,0-1.318,2.3l-.057.733a.877.877,0,0,1,.716-.01c.5-.161,3.155-1.059,4.006-2.18a.213.213,0,0,1,.275-.056,2.283,2.283,0,0,1,.877.883,2.158,2.158,0,0,0-.267-.677,2.443,2.443,0,0,0-1.685-1.046.221.221,0,0,1-.037-.011A3.855,3.855,0,0,0,197.856,707.477Z" transform="translate(-194.793 -707.049)" fill="#1b1b19"/>
        </g>
        <g id="그룹_593" data-name="그룹 593" transform="translate(4.664 4.25)">
          <path id="패스_875" data-name="패스 875" d="M217.062,728.021l.115.452s.856.608.1.723" transform="translate(-216.849 -727.809)" fill="#fff"/>
          <path id="패스_876" data-name="패스 876" d="M216.487,728.622a.213.213,0,0,1-.032-.423.551.551,0,0,0,.121-.03,1.2,1.2,0,0,0-.31-.309.213.213,0,0,1-.083-.121l-.115-.452a.213.213,0,1,1,.412-.1l.1.379c.19.146.5.432.427.721-.043.182-.206.3-.484.338Zm.1-.423h0Z" transform="translate(-216.062 -727.022)" fill="#1b1b19"/>
        </g>
      </g>
      <path id="패스_877" data-name="패스 877" d="M165.84,813.956a.211.211,0,0,1-.091-.021l-2.772-1.315a.213.213,0,1,1,.182-.384l2.564,1.216,1.025-2.7a19.663,19.663,0,0,1-3.737-2.822c-1.048-1.087-1.4-1.9-1.08-2.48.232-.423.578-.978,1.056-1.694.866-1.288,1.822-2.573,1.832-2.586a.213.213,0,1,1,.341.254c-.009.013-.96,1.29-1.82,2.568-.471.706-.81,1.249-1.037,1.662-.21.382.15,1.084,1.013,1.98a20.133,20.133,0,0,0,3.8,2.84.213.213,0,0,1,.094.26l-1.17,3.085a.212.212,0,0,1-.2.137Z" transform="translate(-155.943 -780.248)" fill="#1b1b19"/>
      <g id="그룹_595" data-name="그룹 595" transform="translate(21.973 19.505)">
        <path id="패스_878" data-name="패스 878" d="M239.278,800.3a25.641,25.641,0,0,0-.8-4.468" transform="translate(-238.267 -795.621)" fill="#cddaf1"/>
        <path id="패스_879" data-name="패스 879" d="M238.491,799.727a.213.213,0,0,1-.211-.192,25.616,25.616,0,0,0-.784-4.412.213.213,0,1,1,.4-.155,25.327,25.327,0,0,1,.811,4.525.213.213,0,0,1-.191.232Z" transform="translate(-237.48 -794.833)" fill="#1b1b19"/>
      </g>
      <g id="그룹_596" data-name="그룹 596" transform="translate(9.685 30.197)">
        <path id="패스_880" data-name="패스 880" d="M181.9,846.084a5.259,5.259,0,0,1,2.021.674c.717.45-.319.656-.638.656,0,0,.952.532.975,1.33l-3.529.425Z" transform="translate(-180.517 -845.871)" fill="#fff"/>
        <path id="패스_881" data-name="패스 881" d="M179.943,848.593a.213.213,0,0,1-.2-.288l1.17-3.085a.209.209,0,0,1,.219-.136,5.425,5.425,0,0,1,2.114.705c.279.175.392.367.333.569s-.305.333-.546.4a1.729,1.729,0,0,1,.649,1.192.213.213,0,0,1-.187.217l-3.529.426Zm1.309-3.065-.986,2.6,2.964-.358a1.934,1.934,0,0,0-.839-.959.213.213,0,0,1,.1-.4,1.5,1.5,0,0,0,.657-.161.641.641,0,0,0-.131-.1A4.966,4.966,0,0,0,181.252,845.528Z" transform="translate(-179.73 -845.081)" fill="#1b1b19"/>
      </g>
      <g id="그룹_597" data-name="그룹 597" transform="translate(32.668 13.441)">
        <path id="패스_882" data-name="패스 882" d="M293.317,768.557c-.148-.295-.445-.029-.946.466.347-.576.6-1.093.52-1.256-.113-.225-.477.091-.866.474.214-.4.343-.718.281-.84-.214-.427-1.438,1.329-1.917,1.559s0-.667-.388-.933c-.577-.393-1.256,1.855-1.256,1.855l2.506,2.2S293.532,768.984,293.317,768.557Z" transform="translate(-288.533 -767.121)" fill="#fff"/>
        <path id="패스_883" data-name="패스 883" d="M290.464,771.5a.212.212,0,0,1-.14-.053l-2.506-2.2a.213.213,0,0,1-.063-.221c.091-.3.576-1.817,1.161-2.024a.458.458,0,0,1,.418.055.861.861,0,0,1,.255.814c0,.017,0,.036,0,.056a6.534,6.534,0,0,0,.675-.671c.573-.619.914-.962,1.2-.925a.319.319,0,0,1,.244.181.4.4,0,0,1,.034.243.484.484,0,0,1,.3-.065.336.336,0,0,1,.247.188c.056.112.061.269-.059.571a.409.409,0,0,1,.191-.015.4.4,0,0,1,.294.236c.225.449-1.009,2.282-2.085,3.74a.213.213,0,0,1-.148.085Zm-2.262-2.477,2.227,1.951a14.574,14.574,0,0,0,1.9-3.1,3.642,3.642,0,0,0-.6.516.213.213,0,0,1-.332-.261,4.747,4.747,0,0,0,.484-.958,3.871,3.871,0,0,0-.5.437.213.213,0,0,1-.336-.253,3.447,3.447,0,0,0,.238-.514,8,8,0,0,0-.716.714,4.1,4.1,0,0,1-.879.813.378.378,0,0,1-.388.008c-.164-.109-.153-.317-.142-.518.008-.16.02-.38-.07-.44a.031.031,0,0,0-.036-.006C288.818,767.494,288.44,768.289,288.2,769.026Zm3.7-1.971Zm-.585-.366Z" transform="translate(-287.746 -766.336)" fill="#1b1b19"/>
      </g>
      <path id="패스_884" data-name="패스 884" d="M216.694,707.372a.212.212,0,0,1-.13-.045,1.29,1.29,0,0,0-1.629-.006.213.213,0,0,1-.275-.324,1.707,1.707,0,0,1,2.166-.006.213.213,0,0,1-.131.381Z" transform="translate(-197.483 -705.873)" fill="#1b1b19"/>
      <path id="패스_885" data-name="패스 885" d="M214.8,705.05a.213.213,0,0,1-.213-.209,1.708,1.708,0,0,1,1.376-1.672.213.213,0,0,1,.092.416,1.289,1.289,0,0,0-1.043,1.251.213.213,0,0,1-.21.215Z" transform="translate(-197.482 -703.164)" fill="#1b1b19"/>
      <path id="패스_886" data-name="패스 886" d="M191.613,768.111a.212.212,0,0,1-.187-.111l-3.879-7.118a.213.213,0,0,1,0-.2l.778-1.555-1.082-.949a.213.213,0,0,1-.065-.215l.55-2.043a.213.213,0,0,1,.411.11l-.515,1.915,1.106.97a.213.213,0,0,1,.05.255l-.8,1.6L191.8,767.8a.212.212,0,0,1-.085.288A.21.21,0,0,1,191.613,768.111Z" transform="translate(-175.899 -744.574)" fill="#1b1b19"/>
      <g id="그룹_598" data-name="그룹 598" transform="translate(17.788 11.907)">
        <path id="패스_887" data-name="패스 887" d="M218.814,770.806l1.955-6.779-1.17-1.271.626-.887-.22-1.747" transform="translate(-218.601 -759.909)" fill="#eeb02c"/>
        <path id="패스_888" data-name="패스 888" d="M218.026,770.232a.217.217,0,0,1-.059-.008.213.213,0,0,1-.146-.263l1.921-6.664-1.089-1.183a.213.213,0,0,1-.017-.267l.579-.819-.21-1.665a.213.213,0,1,1,.422-.053l.22,1.747a.213.213,0,0,1-.037.149l-.527.746,1.054,1.145a.213.213,0,0,1,.048.2l-1.954,6.779A.213.213,0,0,1,218.026,770.232Z" transform="translate(-217.814 -759.123)" fill="#1b1b19"/>
      </g>
    </g>
    <path id="패스_889" data-name="패스 889" d="M689.6,653.559v6.383h6.954l-4.351,4.351a17.416,17.416,0,1,0,4.514,4.514l4.351-4.351v6.954h6.383V653.559Zm.557,32.9a11.032,11.032,0,1,1-15.6-15.6h0a11.032,11.032,0,0,1,15.6,15.6Z" transform="translate(-430.832 -14.741)" fill="#cccbe4"/>
    <g id="그룹_620" data-name="그룹 620" transform="translate(226.228 654.26)">
      <g id="그룹_600" data-name="그룹 600" transform="translate(21.107 9.654)">
        <path id="패스_890" data-name="패스 890" d="M750.774,780l-3.674,2.808-.543,11.365-13.52-5.824.16-4.259-1.165,3.531L728.115,786l2.007-5.684a.007.007,0,0,1,0,0c.068-.14,2.186-6.206,7.4-7.453a6.388,6.388,0,0,1,2.046-.319c1.153-.1,5.315-.054,7.892,1.685S750.774,780,750.774,780Z" transform="translate(-727.902 -772.297)" fill="#cddaf1"/>
        <path id="패스_891" data-name="패스 891" d="M745.769,793.6a.213.213,0,0,1-.084-.017l-13.52-5.824a.212.212,0,0,1-.128-.2l.1-2.756-.694,2.1a.213.213,0,0,1-.283.13l-3.917-1.623a.213.213,0,0,1-.119-.268l2.007-5.684.011-.027.019-.05c.578-1.48,2.828-6.395,7.518-7.517a6.512,6.512,0,0,1,1.8-.314c.083,0,.167,0,.281-.01,1.253-.114,5.419-.041,8.029,1.72s3.377,5.746,3.407,5.915a.213.213,0,0,1-.08.207l-3.6,2.748-.539,11.266a.213.213,0,0,1-.213.2Zm-13.3-6.174,13.1,5.645.529-11.059a.213.213,0,0,1,.083-.159l3.567-2.727c-.151-.689-.981-4.015-3.2-5.512-2.55-1.721-6.764-1.739-7.753-1.649-.129.011-.223.012-.316.012a6.2,6.2,0,0,0-1.7.3c-4.491,1.075-6.664,5.827-7.223,7.259-.013.034-.023.058-.029.071l-1.937,5.485,3.519,1.459,1.093-3.314a.213.213,0,0,1,.414.074Z" transform="translate(-727.115 -771.504)" fill="#1b1b19"/>
      </g>
      <g id="그룹_601" data-name="그룹 601" transform="translate(15.538 14.636)">
        <path id="패스_892" data-name="패스 892" d="M708.853,805.685l-3.466-9.769-3.443,1.471,1.59,6.543Z" transform="translate(-701.73 -795.703)" fill="#cddaf1"/>
        <path id="패스_893" data-name="패스 893" d="M708.066,805.111A.212.212,0,0,1,708,805.1l-5.319-1.755a.212.212,0,0,1-.14-.152l-1.59-6.543a.213.213,0,0,1,.123-.246l3.443-1.471a.215.215,0,0,1,.169,0,.211.211,0,0,1,.115.124l3.466,9.769a.213.213,0,0,1-.2.284Zm-5.14-2.133,4.795,1.582-3.245-9.147-3.069,1.311Z" transform="translate(-700.943 -794.917)" fill="#1b1b19"/>
      </g>
      <g id="그룹_602" data-name="그룹 602" transform="translate(4.405 22.182)">
        <path id="패스_894" data-name="패스 894" d="M685.663,841.357a15.2,15.2,0,0,1-.575,3.744,6.319,6.319,0,0,1-2.813,4.069c-3.92,2.574-9.645-.316-14.073-2.541-2.284-1.149-3.891-2.136-3.891-2.136l-7.938,13.925-6.753-3.747s7.721-19.594,8.924-21.447a4.065,4.065,0,0,1,4.127-1.825,8.915,8.915,0,0,1,2.694.626l16.4,6.79,2.619.777A1.783,1.783,0,0,1,685.663,841.357Z" transform="translate(-649.407 -831.169)" fill="#eeb02c"/>
        <path id="패스_895" data-name="패스 895" d="M655.586,857.842a.21.21,0,0,1-.1-.027l-6.753-3.747a.213.213,0,0,1-.095-.264c.316-.8,7.743-19.635,8.943-21.485A4.269,4.269,0,0,1,661.9,830.4a9.11,9.11,0,0,1,2.758.641l16.391,6.786,2.608.774a2,2,0,0,1,1.434,1.975h0a15.468,15.468,0,0,1-.583,3.8,6.548,6.548,0,0,1-2.9,4.188c-4.011,2.634-9.687-.218-14.247-2.51l-.039-.019c-1.821-.916-3.228-1.738-3.719-2.031l-7.829,13.736A.213.213,0,0,1,655.586,857.842Zm-6.487-4.055,6.406,3.554,7.834-13.742a.213.213,0,0,1,.3-.076c.016.01,1.627,1,3.875,2.127l.039.019c3.216,1.616,7,3.518,10.286,3.518a6.294,6.294,0,0,0,3.536-.983,6.1,6.1,0,0,0,2.725-3.95,15.036,15.036,0,0,0,.566-3.691h0a1.573,1.573,0,0,0-1.129-1.555l-2.619-.777-.021-.008-16.4-6.79a8.673,8.673,0,0,0-2.626-.61,3.881,3.881,0,0,0-3.934,1.728C656.817,834.273,649.868,851.84,649.1,853.787Z" transform="translate(-648.62 -830.381)" fill="#1b1b19"/>
      </g>
      <g id="그룹_603" data-name="그룹 603" transform="translate(15.329 30.055)">
        <path id="패스_896" data-name="패스 896" d="M700.967,873.751l2.4,17.107,9.134-1.69-3.283-17.061s-.931-4.308-4.911-3.658C700.435,869.081,700.967,873.751,700.967,873.751Z" transform="translate(-700.733 -868.169)" fill="#eeb02c"/>
        <path id="패스_897" data-name="패스 897" d="M702.6,890.284a.213.213,0,0,1-.211-.183l-2.4-17.107v-.006c-.005-.048-.509-4.879,3.521-5.537,4.132-.673,5.144,3.779,5.154,3.824l3.285,17.066a.213.213,0,0,1-.17.25l-9.134,1.69A.207.207,0,0,1,702.6,890.284ZM700.4,872.938l2.373,16.884,8.705-1.611-3.243-16.85c-.035-.163-.937-4.1-4.668-3.489C699.958,868.462,700.38,872.72,700.4,872.938Z" transform="translate(-699.958 -867.382)" fill="#1b1b19"/>
      </g>
      <g id="그룹_604" data-name="그룹 604" transform="translate(18.281 51.201)">
        <path id="패스_898" data-name="패스 898" d="M715.677,968.845l.184,1.207a9.382,9.382,0,0,0-1.029,3.83,25.843,25.843,0,0,0,7.908-1.383,8.878,8.878,0,0,0-1.105-3.58l-.145-1.15Z" transform="translate(-714.62 -967.556)" fill="#26212d"/>
        <path id="패스_899" data-name="패스 899" d="M714.046,973.307a.213.213,0,0,1-.213-.213,9.42,9.42,0,0,1,1.021-3.867l-.174-1.138a.213.213,0,0,1,.172-.241l5.813-1.076a.213.213,0,0,1,.25.183l.139,1.1a9.062,9.062,0,0,1,1.113,3.639.213.213,0,0,1-.148.22,23.439,23.439,0,0,1-6.722,1.307c-.392.022-.8.044-1.23.085Zm1.086-5.078.153,1a.212.212,0,0,1-.023.133,9.468,9.468,0,0,0-1,3.5c.352-.029.685-.047,1.009-.065a22.775,22.775,0,0,0,6.452-1.236,8.369,8.369,0,0,0-1.052-3.31.213.213,0,0,1-.035-.092l-.116-.926Z" transform="translate(-713.833 -966.768)" fill="#1b1b19"/>
      </g>
      <g id="그룹_605" data-name="그룹 605" transform="translate(0 45.47)">
        <path id="패스_900" data-name="패스 900" d="M633.322,940.834l-.682,1.435s-3.724,1.849-3.724,3.724c0,0,8.546,2.359,9.291,1.507s.791-3.516.791-3.516Z" transform="translate(-628.704 -940.621)" fill="#26212d"/>
        <path id="패스_901" data-name="패스 901" d="M636.537,947.1c-2.156,0-6.824-1.233-8.464-1.686a.213.213,0,0,1-.156-.205c0-1.863,3.249-3.61,3.775-3.88l.651-1.37a.212.212,0,0,1,.3-.095l5.677,3.15a.212.212,0,0,1,.109.19c0,.112-.057,2.754-.844,3.653A1.5,1.5,0,0,1,636.537,947.1Zm-8.185-2.05c4.008,1.1,8.509,1.983,8.908,1.527.538-.615.708-2.448.735-3.253l-5.366-2.977-.584,1.231a.213.213,0,0,1-.1.1C631.913,941.689,628.559,943.375,628.352,945.046Zm3.5-3.564h0Z" transform="translate(-627.917 -939.833)" fill="#1b1b19"/>
      </g>
      <g id="그룹_606" data-name="그룹 606" transform="translate(34.984 16.382)">
        <path id="패스_902" data-name="패스 902" d="M797.928,806.521s1.292,3.969,1.647,5.53-6.242,5.131-6.242,5.131l1.56,3.334s9.5-3.759,9.362-7.022-2.326-9.371-2.326-9.371" transform="translate(-793.12 -803.91)" fill="#cddaf1"/>
        <path id="패스_903" data-name="패스 903" d="M794.106,819.94a.213.213,0,0,1-.193-.123l-1.561-3.333a.213.213,0,0,1,.091-.277c2.5-1.351,6.367-3.875,6.135-4.9-.348-1.533-1.629-5.471-1.641-5.511a.213.213,0,1,1,.4-.132c.053.163,1.3,4,1.652,5.549s-4.736,4.481-6.172,5.269l1.39,2.969c1.316-.544,9.166-3.908,9.043-6.739-.139-3.193-2.292-9.247-2.314-9.308a.213.213,0,0,1,.4-.143c.09.251,2.2,6.176,2.338,9.433.147,3.375-9.1,7.073-9.5,7.229A.213.213,0,0,1,794.106,819.94Z" transform="translate(-792.333 -803.122)" fill="#1b1b19"/>
      </g>
      <g id="그룹_607" data-name="그룹 607" transform="translate(31.211 29.44)">
        <path id="패스_904" data-name="패스 904" d="M779.371,865.5s-3.524.924-3.188,1.237.955.117.955.117-2.113,1.546-1.391,1.77a1.313,1.313,0,0,0,1.221-.225s-1.387.749-1.08,1.3,1.487-.465,1.487-.465-1.143.745-.637,1.046,1.481-.431,1.481-.431-.8.753-.324.88,3.036-1.893,3.036-1.893Z" transform="translate(-775.385 -865.283)" fill="#fff"/>
        <path id="패스_905" data-name="패스 905" d="M777.138,870.151a.316.316,0,0,1-.082-.01.383.383,0,0,1-.3-.277.433.433,0,0,1,0-.2,1.081,1.081,0,0,1-.915,0,.441.441,0,0,1-.233-.374c0-.014,0-.029,0-.043a.8.8,0,0,1-.327.019.511.511,0,0,1-.368-.262.572.572,0,0,1-.046-.449,1.2,1.2,0,0,1,.3-.465,1.689,1.689,0,0,1-.269-.06.389.389,0,0,1-.294-.311c-.063-.375.515-.95,1.079-1.414a.864.864,0,0,1-.43-.21.273.273,0,0,1-.082-.27c.03-.119.121-.48,3.36-1.329a.213.213,0,0,1,.247.116l1.561,3.334a.212.212,0,0,1-.061.257C779.339,868.951,777.725,870.151,777.138,870.151Zm.3-1.308a.213.213,0,0,1,.146.367,1.858,1.858,0,0,0-.4.512,11.843,11.843,0,0,0,2.7-1.744l-1.413-3.019a18.244,18.244,0,0,0-2.766.92,1.126,1.126,0,0,0,.587-.02.213.213,0,0,1,.19.375,5.192,5.192,0,0,0-1.451,1.4,1.1,1.1,0,0,0,.754-.03c.149-.1.266-.162.3-.18a.213.213,0,0,1,.244.345,1.376,1.376,0,0,1-.337.209,1.824,1.824,0,0,0-.708.7.145.145,0,0,0,.008.122.088.088,0,0,0,.071.051,1.327,1.327,0,0,0,.724-.3,3.736,3.736,0,0,1,.39-.293.213.213,0,0,1,.255.34,4.4,4.4,0,0,1-.381.29c-.193.171-.316.329-.311.393h0s.008.007.025.017c.29.172.963-.208,1.245-.418A.211.211,0,0,1,777.436,868.844Z" transform="translate(-774.601 -864.497)" fill="#1b1b19"/>
      </g>
      <g id="그룹_608" data-name="그룹 608" transform="translate(30.959 11.546)">
        <path id="패스_906" data-name="패스 906" d="M774.417,781.544,776,791.092l1.81-9.693Z" transform="translate(-774.204 -781.186)" fill="#fff"/>
        <path id="패스_907" data-name="패스 907" d="M775.212,790.517h0a.213.213,0,0,1-.208-.178l-1.581-9.548a.213.213,0,0,1,.2-.247l3.391-.145a.2.2,0,0,1,.17.073.213.213,0,0,1,.049.178l-1.81,9.693A.213.213,0,0,1,775.212,790.517Zm-1.332-9.559,1.345,8.12,1.539-8.243Z" transform="translate(-773.417 -780.398)" fill="#1b1b19"/>
      </g>
      <g id="그룹_616" data-name="그룹 616" transform="translate(28.841 0.87)">
        <g id="그룹_609" data-name="그룹 609" transform="translate(1.67 4.597)">
          <path id="패스_908" data-name="패스 908" d="M774.541,759.937h0a1.922,1.922,0,0,1-2.012-1.827l-.217-4.511,3.839-.773.217,5.1A1.922,1.922,0,0,1,774.541,759.937Z" transform="translate(-772.099 -752.613)" fill="#fff"/>
          <path id="패스_909" data-name="패스 909" d="M773.661,759.365a2.138,2.138,0,0,1-2.131-2.032l-.217-4.511a.213.213,0,0,1,.171-.219l3.839-.773a.212.212,0,0,1,.255.2l.217,5.1a2.134,2.134,0,0,1-2.029,2.234Zm-1.914-6.381.208,4.328a1.709,1.709,0,0,0,1.789,1.625h0a1.709,1.709,0,0,0,1.625-1.789l-.207-4.851Z" transform="translate(-771.312 -751.826)" fill="#1b1b19"/>
        </g>
        <g id="그룹_610" data-name="그룹 610">
          <path id="패스_910" data-name="패스 910" d="M768.713,738.037a2.067,2.067,0,0,1-1.574.952c-1.249-.034-1.988-1.008-2.385-2.787l-.173-1.075s-.95-3.672,2.767-3.9a2.531,2.531,0,0,1,1.948.869,2.78,2.78,0,0,1,.763,1.992l-.042.449-.037,1.283" transform="translate(-764.256 -731.011)" fill="#fff"/>
          <path id="패스_911" data-name="패스 911" d="M766.365,738.414h-.026c-1.3-.035-2.151-1-2.587-2.954l-.176-1.087a3.916,3.916,0,0,1,.45-2.967,3.166,3.166,0,0,1,2.514-1.179,2.76,2.76,0,0,1,2.115.935,2.982,2.982,0,0,1,.821,2.144l-.043.463-.036,1.269a.213.213,0,1,1-.425-.012l.037-1.283.043-.463a2.551,2.551,0,0,0-.705-1.826,2.352,2.352,0,0,0-1.78-.8,2.766,2.766,0,0,0-2.2,1,3.548,3.548,0,0,0-.379,2.63l.177,1.094c.391,1.746,1.085,2.579,2.181,2.608a1.846,1.846,0,0,0,1.382-.842.213.213,0,1,1,.373.205A2.292,2.292,0,0,1,766.365,738.414Z" transform="translate(-763.462 -730.223)" fill="#1b1b19"/>
        </g>
        <g id="그룹_611" data-name="그룹 611" transform="translate(5.009 3.007)">
          <path id="패스_912" data-name="패스 912" d="M788,746.614a.795.795,0,1,0,.1-1.038" transform="translate(-787.789 -745.144)" fill="#fff"/>
          <path id="패스_913" data-name="패스 913" d="M787.86,746.372h-.027a1,1,0,0,1-.792-.42.213.213,0,1,1,.346-.249.582.582,0,1,0,.489-.921.571.571,0,0,0-.417.161.213.213,0,1,1-.294-.308,1,1,0,0,1,.723-.278,1.008,1.008,0,0,1-.027,2.015Z" transform="translate(-787.001 -744.357)" fill="#1b1b19"/>
        </g>
        <g id="그룹_612" data-name="그룹 612" transform="translate(5.51 4.596)">
          <line id="선_139" data-name="선 139" x2="0.071" y2="1.672" transform="translate(0.213 0.213)" fill="#fff"/>
          <path id="패스_914" data-name="패스 914" d="M789.64,753.923a.213.213,0,0,1-.212-.2l-.071-1.672a.213.213,0,0,1,.2-.221.216.216,0,0,1,.221.2l.071,1.672a.213.213,0,0,1-.2.222Z" transform="translate(-789.356 -751.825)" fill="#1b1b19"/>
        </g>
        <g id="그룹_613" data-name="그룹 613" transform="translate(2.866 3.123)">
          <path id="패스_915" data-name="패스 915" d="M778.1,745.987a.086.086,0,1,1-.086-.085A.085.085,0,0,1,778.1,745.987Z" transform="translate(-777.717 -745.689)" fill="#1b1b19"/>
          <path id="패스_916" data-name="패스 916" d="M777.229,745.5a.3.3,0,1,1,.3-.3A.3.3,0,0,1,777.229,745.5Zm0-.425a.127.127,0,1,0,.128.128A.128.128,0,0,0,777.229,745.072Z" transform="translate(-776.931 -744.901)" fill="#1b1b19"/>
        </g>
        <g id="그룹_614" data-name="그룹 614" transform="translate(0.615 3.209)">
          <path id="패스_917" data-name="패스 917" d="M767.523,746.389a.085.085,0,1,1-.086-.086A.085.085,0,0,1,767.523,746.389Z" transform="translate(-767.139 -746.09)" fill="#1b1b19"/>
          <path id="패스_918" data-name="패스 918" d="M766.65,745.9a.3.3,0,1,1,.3-.3A.3.3,0,0,1,766.65,745.9Zm0-.426a.127.127,0,1,0,.127.128A.128.128,0,0,0,766.65,745.475Z" transform="translate(-766.352 -745.304)" fill="#1b1b19"/>
        </g>
        <path id="패스_919" data-name="패스 919" d="M773.045,754.072a1.162,1.162,0,0,1-.334-.053.213.213,0,1,1,.123-.407.478.478,0,0,0,.418-.024.75.75,0,0,0,.245-.5.213.213,0,0,1,.424.037,1.164,1.164,0,0,1-.429.812A.777.777,0,0,1,773.045,754.072Z" transform="translate(-770.624 -748.071)" fill="#1b1b19"/>
        <g id="그룹_615" data-name="그룹 615" transform="translate(1.259 3.551)">
          <path id="패스_920" data-name="패스 920" d="M770.905,747.911l-.115.452s-.856.608-.1.723" transform="translate(-770.167 -747.698)" fill="#fff"/>
          <path id="패스_921" data-name="패스 921" d="M769.906,748.511l-.032,0c-.278-.042-.441-.156-.484-.338-.068-.288.236-.575.427-.721l.1-.378a.213.213,0,1,1,.413.1l-.115.452a.213.213,0,0,1-.083.121,1.2,1.2,0,0,0-.311.309.549.549,0,0,0,.121.03.213.213,0,0,1-.032.423Z" transform="translate(-769.38 -746.911)" fill="#1b1b19"/>
        </g>
      </g>
      <g id="그룹_617" data-name="그룹 617" transform="translate(14.607 11.253)">
        <path id="패스_922" data-name="패스 922" d="M697.557,780.92c.219-.246.438.087.793.694-.186-.646-.3-1.212-.178-1.348.168-.188.438.212.714.682-.1-.438-.146-.782-.055-.884.317-.357,1.046,1.656,1.449,2s.17-.645.616-.8c.659-.231.994,2.14.994,2.14l-3.443,1.471S697.24,781.277,697.557,780.92Z" transform="translate(-697.305 -779.808)" fill="#fff"/>
        <path id="패스_923" data-name="패스 923" d="M697.712,784.3a.213.213,0,0,1-.2-.145c-.569-1.694-1.179-3.792-.849-4.164h0a.4.4,0,0,1,.345-.151.417.417,0,0,1,.18.064c-.038-.323.007-.473.09-.566a.337.337,0,0,1,.288-.117.483.483,0,0,1,.277.141.4.4,0,0,1,.1-.226.321.321,0,0,1,.283-.112c.294.036.531.459.924,1.2a6.543,6.543,0,0,0,.479.822l.012-.055c.051-.241.129-.606.456-.721a.476.476,0,0,1,.417.047c.561.341.813,1.946.858,2.264a.212.212,0,0,1-.127.226l-3.443,1.471A.21.21,0,0,1,697.712,784.3Zm-.727-4.021a14.49,14.49,0,0,0,.856,3.521l3.079-1.315a3.718,3.718,0,0,0-.634-1.8.055.055,0,0,0-.055-.009c-.1.036-.148.251-.181.408-.042.2-.085.4-.272.463a.378.378,0,0,1-.373-.108,4.091,4.091,0,0,1-.639-1.012,7.928,7.928,0,0,0-.507-.875,3.427,3.427,0,0,0,.1.559.213.213,0,0,1-.39.157,3.85,3.85,0,0,0-.369-.552,4.745,4.745,0,0,0,.22,1.051.213.213,0,0,1-.388.166A3.54,3.54,0,0,0,696.985,780.279Zm.623-.678.66-.2Z" transform="translate(-696.568 -779.021)" fill="#1b1b19"/>
      </g>
      <path id="패스_924" data-name="패스 924" d="M766.355,786.629a.213.213,0,0,1-.187-.112l-3.364-6.25a.214.214,0,0,1-.018-.155l.589-2.222-1.069-.4a.213.213,0,0,1-.129-.264l.519-1.622a.213.213,0,0,1,.405.13l-.457,1.428,1.059.392a.213.213,0,0,1,.132.254l-.617,2.328,2.7,5.021-1.548-8.9a.213.213,0,1,1,.419-.073l1.773,10.2a.213.213,0,0,1-.21.249Z" transform="translate(-733.602 -764.964)" fill="#1b1b19"/>
      <path id="패스_925" data-name="패스 925" d="M781.062,784.325a.213.213,0,0,1-.184-.319l4.024-6.961-.709-1.892a.213.213,0,0,1,.032-.206l.677-.865-.389-1.274a.213.213,0,0,1,.407-.124l.421,1.38a.213.213,0,0,1-.036.193l-.671.858.7,1.874a.214.214,0,0,1-.015.181l-4.075,7.048A.213.213,0,0,1,781.062,784.325Z" transform="translate(-748.309 -762.66)" fill="#1b1b19"/>
      <g id="그룹_618" data-name="그룹 618" transform="translate(32.062 23.341)">
        <path id="패스_926" data-name="패스 926" d="M780.506,837.449c0,.341-.2.618-.452.618s-.452-.277-.452-.618.2-.619.452-.619S780.506,837.107,780.506,837.449Z" transform="translate(-779.389 -836.617)" fill="#f9dbd4"/>
        <path id="패스_927" data-name="패스 927" d="M779.268,837.493a.852.852,0,1,1,.665-.832A.754.754,0,0,1,779.268,837.493Zm0-1.237c-.113,0-.239.174-.239.406s.126.406.239.406.239-.174.239-.406S779.38,836.255,779.268,836.255Z" transform="translate(-778.603 -835.83)" fill="#1b1b19"/>
      </g>
      <g id="그룹_619" data-name="그룹 619" transform="translate(28.71)">
        <path id="패스_928" data-name="패스 928" d="M769.523,730.291l-.713.316s-1.011-.084-1.251-.722c0,0-.08-1.463-.865-.878-.736.549-.312.825-1.457,1.237-.863.311-1.4.491-1.39-1.015.013-1.951,4.3-2.712,4.8-1.551C769.986,727.839,769.813,729.025,769.523,730.291Z" transform="translate(-763.635 -726.917)" fill="#26212d"/>
        <path id="패스_929" data-name="패스 929" d="M768.023,730.035h-.018c-.047,0-1.149-.1-1.432-.859a.216.216,0,0,1-.013-.063c-.017-.292-.121-.734-.276-.806-.07-.034-.186.04-.249.087a1.544,1.544,0,0,0-.448.5,1.67,1.67,0,0,1-1.065.771c-.512.184-.955.344-1.289.107-.271-.192-.39-.6-.385-1.323.008-1.236,1.429-1.962,2.643-2.208,1-.2,2.134-.131,2.509.463a1.324,1.324,0,0,1,.905.517,3.107,3.107,0,0,1,.039,2.339.212.212,0,0,1-.121.147l-.714.316A.213.213,0,0,1,768.023,730.035Zm-1.041-.983c.163.371.737.518,1.007.553l.564-.25a2.689,2.689,0,0,0,0-1.9.964.964,0,0,0-.72-.355.213.213,0,0,1-.17-.127c-.169-.393-1.068-.532-2.092-.325-1.141.231-2.3.875-2.3,1.794,0,.681.109.9.205.973.154.109.516-.021.9-.16.617-.222.713-.378.847-.594a1.958,1.958,0,0,1,.556-.613.644.644,0,0,1,.684-.132C766.883,728.116,766.967,728.834,766.983,729.052Zm1.754.454h0Z" transform="translate(-762.848 -726.132)" fill="#1b1b19"/>
      </g>
    </g>
    <g id="그룹_621" data-name="그룹 621" transform="translate(265.933 690.742)">
      <line id="선_140" data-name="선 140" x1="14.504" transform="translate(0.213 0.213)" fill="#fff"/>
      <path id="패스_930" data-name="패스 930" d="M829.236,898.015h-14.5a.213.213,0,0,1,0-.426h14.5a.213.213,0,0,1,0,.426Z" transform="translate(-814.519 -897.589)" fill="#1b1b19"/>
    </g>
    <g id="그룹_622" data-name="그룹 622" transform="translate(224.496 690.742)">
      <line id="선_141" data-name="선 141" x2="9.727" transform="translate(0.213 0.213)" fill="#fff"/>
      <path id="패스_931" data-name="패스 931" d="M629.715,898.015h-9.727a.213.213,0,0,1,0-.426h9.727a.213.213,0,0,1,0,.426Z" transform="translate(-619.775 -897.589)" fill="#1b1b19"/>
    </g>
    <g id="그룹_623" data-name="그룹 623" transform="translate(118.5 690.994)">
      <line id="선_142" data-name="선 142" x1="9.191" transform="translate(0.213 0.213)" fill="#fff"/>
      <path id="패스_932" data-name="패스 932" d="M131.019,899.2h-9.191a.213.213,0,0,1,0-.426h9.191a.213.213,0,0,1,0,.426Z" transform="translate(-121.615 -898.773)" fill="#1b1b19"/>
    </g>
    <g id="그룹_624" data-name="그룹 624" transform="translate(161.639 690.742)">
      <line id="선_143" data-name="선 143" x1="12.802" transform="translate(0.213 0.213)" fill="#fff"/>
      <path id="패스_933" data-name="패스 933" d="M337.374,898.015h-12.8a.213.213,0,0,1,0-.426h12.8a.213.213,0,1,1,0,.426Z" transform="translate(-324.36 -897.589)" fill="#1b1b19"/>
    </g>
    <g id="그룹_632" data-name="그룹 632" transform="translate(160.254 634.834)">
      <g id="그룹_625" data-name="그룹 625" transform="translate(0 0)">
        <path id="패스_934" data-name="패스 934" d="M330,635.834v11.724a1.36,1.36,0,0,1-1.362,1.362h-9.788a1.36,1.36,0,0,0,1.362-1.362V635.834Z" transform="translate(-318.639 -635.621)" fill="#fff"/>
        <path id="패스_935" data-name="패스 935" d="M327.852,648.345h-9.788a.213.213,0,0,1,0-.426,1.15,1.15,0,0,0,1.149-1.149V635.047a.213.213,0,0,1,.213-.213h9.788a.213.213,0,0,1,.213.213v11.724A1.576,1.576,0,0,1,327.852,648.345Zm-8.712-.426h8.712A1.15,1.15,0,0,0,329,646.771V635.26h-9.362v11.511A1.571,1.571,0,0,1,319.14,647.92Z" transform="translate(-317.852 -634.834)" fill="#1b1b19"/>
      </g>
      <g id="그룹_626" data-name="그룹 626" transform="translate(8.809 0)">
        <path id="패스_936" data-name="패스 936" d="M360.252,635.834l2.341,2.5v-2.5Z" transform="translate(-360.039 -635.621)" fill="#e1ddeb"/>
        <path id="패스_937" data-name="패스 937" d="M361.805,637.76a.212.212,0,0,1-.155-.067l-2.341-2.5a.213.213,0,0,1,.155-.358h2.341a.213.213,0,0,1,.213.213v2.5a.213.213,0,0,1-.213.213Zm-1.85-2.5,1.637,1.749V635.26Z" transform="translate(-359.252 -634.834)" fill="#1b1b19"/>
      </g>
      <g id="그룹_627" data-name="그룹 627" transform="translate(2.341 1.809)">
        <path id="패스_938" data-name="패스 938" d="M341,644.334v11.724a1.36,1.36,0,0,1-1.362,1.362h-9.788a1.36,1.36,0,0,0,1.362-1.362V644.334Z" transform="translate(-329.639 -644.121)" fill="#fff"/>
        <path id="패스_939" data-name="패스 939" d="M338.852,656.845h-9.788a.213.213,0,0,1,0-.426,1.15,1.15,0,0,0,1.149-1.149V643.547a.213.213,0,0,1,.213-.213h9.788a.213.213,0,0,1,.213.213v11.724A1.576,1.576,0,0,1,338.852,656.845Zm-8.712-.426h8.712A1.15,1.15,0,0,0,340,655.271V643.76h-9.362v11.511A1.571,1.571,0,0,1,330.14,656.42Z" transform="translate(-328.852 -643.334)" fill="#1b1b19"/>
      </g>
      <g id="그룹_628" data-name="그룹 628" transform="translate(11.149 1.809)">
        <path id="패스_940" data-name="패스 940" d="M371.252,644.334l2.341,2.5v-2.5Z" transform="translate(-371.039 -644.121)" fill="#e1ddeb"/>
        <path id="패스_941" data-name="패스 941" d="M372.805,646.26a.212.212,0,0,1-.155-.067l-2.341-2.5a.213.213,0,0,1,.155-.358h2.341a.213.213,0,0,1,.213.213v2.5a.213.213,0,0,1-.213.213Zm-1.85-2.5,1.637,1.749V643.76Z" transform="translate(-370.252 -643.334)" fill="#1b1b19"/>
      </g>
      <g id="그룹_629" data-name="그룹 629" transform="translate(5.963 5.905)">
        <line id="선_144" data-name="선 144" x2="5.16" transform="translate(0.213 0.213)" fill="#fff"/>
        <path id="패스_942" data-name="패스 942" d="M351.25,663.01h-5.16a.213.213,0,1,1,0-.426h5.16a.213.213,0,1,1,0,.426Z" transform="translate(-345.877 -662.584)" fill="#1b1b19"/>
      </g>
      <g id="그룹_630" data-name="그룹 630" transform="translate(5.963 8.351)">
        <line id="선_145" data-name="선 145" x2="5.16" transform="translate(0.213 0.213)" fill="#fff"/>
        <path id="패스_943" data-name="패스 943" d="M351.25,674.509h-5.16a.213.213,0,0,1,0-.426h5.16a.213.213,0,0,1,0,.426Z" transform="translate(-345.877 -674.084)" fill="#1b1b19"/>
      </g>
      <g id="그룹_631" data-name="그룹 631" transform="translate(5.963 10.798)">
        <line id="선_146" data-name="선 146" x2="5.16" transform="translate(0.213 0.213)" fill="#fff"/>
        <path id="패스_944" data-name="패스 944" d="M351.25,686.009h-5.16a.213.213,0,0,1,0-.426h5.16a.213.213,0,1,1,0,.426Z" transform="translate(-345.877 -685.584)" fill="#1b1b19"/>
      </g>
    </g>
    <g id="그룹_640" data-name="그룹 640" transform="translate(244.483 639.448)">
      <g id="그룹_633" data-name="그룹 633" transform="translate(0 2.593)">
        <path id="패스_945" data-name="패스 945" d="M720.414,672.561a2.853,2.853,0,1,0-4.462,2.355V676.5h3.218v-1.588A2.849,2.849,0,0,0,720.414,672.561Z" transform="translate(-714.496 -669.496)" fill="#fff"/>
        <path id="패스_946" data-name="패스 946" d="M718.383,675.93h-3.218a.213.213,0,0,1-.213-.213v-1.479a3.065,3.065,0,1,1,3.644,0v1.479A.213.213,0,0,1,718.383,675.93Zm-3.005-.426h2.793v-1.375a.213.213,0,0,1,.093-.176,2.64,2.64,0,1,0-2.978,0,.213.213,0,0,1,.093.176Z" transform="translate(-713.709 -668.709)" fill="#1b1b19"/>
      </g>
      <g id="그룹_634" data-name="그룹 634" transform="translate(1.243 9.389)">
        <rect id="사각형_597" data-name="사각형 597" width="3.234" height="0.851" transform="translate(0.213 0.213)" fill="#e1ddeb"/>
        <path id="패스_947" data-name="패스 947" d="M723,701.923h-3.234a.213.213,0,0,1-.213-.213v-.851a.213.213,0,0,1,.213-.213H723a.213.213,0,0,1,.213.213v.851A.213.213,0,0,1,723,701.923Zm-3.021-.426h2.808v-.426h-2.808Z" transform="translate(-719.553 -700.646)" fill="#1b1b19"/>
      </g>
      <g id="그룹_635" data-name="그룹 635" transform="translate(1.871 5.373)">
        <line id="선_147" data-name="선 147" x1="0.612" y1="4.016" transform="translate(0.213 0.213)" fill="#fff"/>
        <path id="패스_948" data-name="패스 948" d="M723.326,686.213a.213.213,0,0,1-.21-.181l-.612-4.016a.213.213,0,1,1,.42-.064l.612,4.016a.213.213,0,0,1-.178.242Z" transform="translate(-722.501 -681.772)" fill="#1b1b19"/>
      </g>
      <g id="그룹_636" data-name="그룹 636" transform="translate(3.223 5.373)">
        <line id="선_148" data-name="선 148" y1="4.016" x2="0.612" transform="translate(0.213 0.213)" fill="#fff"/>
        <path id="패스_949" data-name="패스 949" d="M729.068,686.213l-.032,0a.213.213,0,0,1-.178-.242l.612-4.016a.213.213,0,0,1,.421.064l-.612,4.016A.213.213,0,0,1,729.068,686.213Z" transform="translate(-728.855 -681.772)" fill="#1b1b19"/>
      </g>
      <g id="그룹_637" data-name="그룹 637" transform="translate(2.86)">
        <line id="선_149" data-name="선 149" y1="0.878" transform="translate(0.213 0.213)" fill="#fff"/>
        <path id="패스_950" data-name="패스 950" d="M727.365,657.824a.213.213,0,0,1-.213-.213v-.878a.213.213,0,1,1,.426,0v.878A.213.213,0,0,1,727.365,657.824Z" transform="translate(-727.152 -656.521)" fill="#1b1b19"/>
      </g>
      <g id="그룹_638" data-name="그룹 638" transform="translate(0.021 1.074)">
        <line id="선_150" data-name="선 150" x1="0.454" y1="0.751" transform="translate(0.213 0.213)" fill="#fff"/>
        <path id="패스_951" data-name="패스 951" d="M714.475,662.745a.212.212,0,0,1-.182-.1l-.454-.751a.213.213,0,1,1,.364-.22l.454.751a.213.213,0,0,1-.182.323Z" transform="translate(-713.808 -661.568)" fill="#1b1b19"/>
      </g>
      <g id="그룹_639" data-name="그룹 639" transform="translate(5.245 1.074)">
        <line id="선_151" data-name="선 151" y1="0.751" x2="0.454" transform="translate(0.213 0.213)" fill="#fff"/>
        <path id="패스_952" data-name="패스 952" d="M738.573,662.745a.213.213,0,0,1-.182-.323l.454-.751a.213.213,0,1,1,.364.22l-.454.751A.213.213,0,0,1,738.573,662.745Z" transform="translate(-738.36 -661.568)" fill="#1b1b19"/>
      </g>
    </g>
    <path id="패스_954" data-name="패스 954" d="M481.06,1134.161a.213.213,0,0,1-.213-.213v-2.821h-2.4a.213.213,0,0,1-.213-.213v-6.473a10.072,10.072,0,0,0-10.06-10.06H442.854a.213.213,0,0,1,0-.426h25.324a10.5,10.5,0,0,1,10.486,10.486v6.26h2.4a.213.213,0,0,1,.213.213v3.034A.213.213,0,0,1,481.06,1134.161Z" transform="translate(-255.835 -377.176)" fill="#1b1b19"/>
  </g>
</svg>
