<svg xmlns="http://www.w3.org/2000/svg" width="317.183" height="135.775" viewBox="0 0 317.183 135.775">
  <g id="그룹_655" data-name="그룹 655" transform="translate(935 -4240.791)">
    <path id="사각형_604" data-name="사각형 604" d="M13.489,0h0A13.489,13.489,0,0,1,26.979,13.489V51.041a0,0,0,0,1,0,0H0a0,0,0,0,1,0,0V13.489A13.489,13.489,0,0,1,13.489,0Z" transform="translate(-927.708 4319.692)" fill="#423b84" opacity="0.5"/>
    <g id="그룹_654" data-name="그룹 654" transform="translate(-924.586 4302.829)">
      <path id="패스_957" data-name="패스 957" d="M80.327,206.106H86.6a.627.627,0,0,1,.586.409.4.4,0,0,1,.03.087l1.557,7.09a.409.409,0,0,1-.311.486l-.575.126a.409.409,0,0,1-.486-.311l-1.26-5.739h-.318V223.82a.56.56,0,0,1-.559.559h-.806a.56.56,0,0,1-.559-.559v-9h-.872v9a.56.56,0,0,1-.559.559h-.806a.56.56,0,0,1-.559-.559V208.255h-.318l-1.26,5.739a.409.409,0,0,1-.486.311l-.575-.126a.409.409,0,0,1-.311-.486l1.557-7.09a.4.4,0,0,1,.03-.087.627.627,0,0,1,.586-.409Z" transform="translate(-78.146 -201.96)" fill="#423b84" fill-rule="evenodd"/>
      <path id="패스_958" data-name="패스 958" d="M188.315,205.315h5.1a.627.627,0,0,1,.619.546l1.765,6.512a.381.381,0,0,1-.268.466l-.529.144a.381.381,0,0,1-.466-.268l-1.424-5.252H192.9v3.028l1.729,6.839H192.9v6.053a.486.486,0,0,1-.485.485h-.7a.486.486,0,0,1-.485-.485V217.33H190.5v6.053a.486.486,0,0,1-.485.485h-.7a.486.486,0,0,1-.485-.485V217.33H187.1l1.729-6.839v-3.028h-.217l-1.423,5.252a.382.382,0,0,1-.466.268l-.529-.144a.381.381,0,0,1-.267-.466l1.765-6.513a.626.626,0,0,1,.619-.546Z" transform="translate(-175.08 -201.263)" fill="#423b84" fill-rule="evenodd"/>
      <path id="패스_959" data-name="패스 959" d="M110.443,171a1.705,1.705,0,1,1-1.705,1.705A1.7,1.7,0,0,1,110.443,171Z" transform="translate(-105.125 -171.002)" fill="#423b84" fill-rule="evenodd"/>
      <path id="패스_960" data-name="패스 960" d="M215.086,171a1.705,1.705,0,1,1-1.705,1.705A1.705,1.705,0,0,1,215.086,171Z" transform="translate(-199.3 -171.002)" fill="#423b84" fill-rule="evenodd"/>
    </g>
    <rect id="사각형_610" data-name="사각형 610" width="317.183" height="7.292" transform="translate(-935 4369.275)" fill="#423b84"/>
    <circle id="타원_123" data-name="타원 123" cx="12.396" cy="12.396" r="12.396" transform="translate(-926.615 4320.786)" fill="#fff"/>
    <text id="_67.8" data-name="67.8" transform="translate(-924.063 4335.984)" fill="#333" font-size="8" font-family="S-CoreDream-6Bold, 'S-Core Dream \36 '" font-weight="700"><tspan x="0" y="0">67.8</tspan></text>
    <g id="그룹_649" data-name="그룹 649" transform="translate(-870.629 4294.172)">
      <path id="패스_957-2" data-name="패스 957" d="M80.327,206.106H86.6a.627.627,0,0,1,.586.409.4.4,0,0,1,.03.087l1.557,7.09a.409.409,0,0,1-.311.486l-.575.126a.409.409,0,0,1-.486-.311l-1.26-5.739h-.318V223.82a.56.56,0,0,1-.559.559h-.806a.56.56,0,0,1-.559-.559v-9h-.872v9a.56.56,0,0,1-.559.559h-.806a.56.56,0,0,1-.559-.559V208.255h-.318l-1.26,5.739a.409.409,0,0,1-.486.311l-.575-.126a.409.409,0,0,1-.311-.486l1.557-7.09a.4.4,0,0,1,.03-.087.627.627,0,0,1,.586-.409Z" transform="translate(-78.146 -201.96)" fill="#423b84" fill-rule="evenodd"/>
      <path id="패스_958-2" data-name="패스 958" d="M188.315,205.315h5.1a.627.627,0,0,1,.619.546l1.765,6.512a.381.381,0,0,1-.268.466l-.529.144a.381.381,0,0,1-.466-.268l-1.424-5.252H192.9v3.028l1.729,6.839H192.9v6.053a.486.486,0,0,1-.485.485h-.7a.486.486,0,0,1-.485-.485V217.33H190.5v6.053a.486.486,0,0,1-.485.485h-.7a.486.486,0,0,1-.485-.485V217.33H187.1l1.729-6.839v-3.028h-.217l-1.423,5.252a.382.382,0,0,1-.466.268l-.529-.144a.381.381,0,0,1-.267-.466l1.765-6.513a.626.626,0,0,1,.619-.546Z" transform="translate(-175.08 -201.263)" fill="#423b84" fill-rule="evenodd"/>
      <path id="패스_959-2" data-name="패스 959" d="M110.443,171a1.705,1.705,0,1,1-1.705,1.705A1.7,1.7,0,0,1,110.443,171Z" transform="translate(-105.125 -171.002)" fill="#423b84" fill-rule="evenodd"/>
      <path id="패스_960-2" data-name="패스 960" d="M215.086,171a1.705,1.705,0,1,1-1.705,1.705A1.705,1.705,0,0,1,215.086,171Z" transform="translate(-199.3 -171.002)" fill="#423b84" fill-rule="evenodd"/>
    </g>
    <path id="사각형_611" data-name="사각형 611" d="M13.489,0h0A13.489,13.489,0,0,1,26.979,13.489V57.908a0,0,0,0,1,0,0H0a0,0,0,0,1,0,0V13.489A13.489,13.489,0,0,1,13.489,0Z" transform="translate(-873.751 4311.367)" fill="#423b84" opacity="0.6"/>
    <circle id="타원_124" data-name="타원 124" cx="12.396" cy="12.396" r="12.396" transform="translate(-872.657 4312.46)" fill="#fff"/>
    <text id="_68.5" data-name="68.5" transform="translate(-870.105 4327.658)" fill="#333" font-size="8" font-family="S-CoreDream-6Bold, 'S-Core Dream \36 '" font-weight="700"><tspan x="0" y="0">68.5</tspan></text>
    <g id="그룹_650" data-name="그룹 650" transform="translate(-816.671 4284.541)">
      <path id="패스_957-3" data-name="패스 957" d="M80.327,206.106H86.6a.627.627,0,0,1,.586.409.4.4,0,0,1,.03.087l1.557,7.09a.409.409,0,0,1-.311.486l-.575.126a.409.409,0,0,1-.486-.311l-1.26-5.739h-.318V223.82a.56.56,0,0,1-.559.559h-.806a.56.56,0,0,1-.559-.559v-9h-.872v9a.56.56,0,0,1-.559.559h-.806a.56.56,0,0,1-.559-.559V208.255h-.318l-1.26,5.739a.409.409,0,0,1-.486.311l-.575-.126a.409.409,0,0,1-.311-.486l1.557-7.09a.4.4,0,0,1,.03-.087.627.627,0,0,1,.586-.409Z" transform="translate(-78.146 -201.96)" fill="#423b84" fill-rule="evenodd"/>
      <path id="패스_958-3" data-name="패스 958" d="M188.315,205.315h5.1a.627.627,0,0,1,.619.546l1.765,6.512a.381.381,0,0,1-.268.466l-.529.144a.381.381,0,0,1-.466-.268l-1.424-5.252H192.9v3.028l1.729,6.839H192.9v6.053a.486.486,0,0,1-.485.485h-.7a.486.486,0,0,1-.485-.485V217.33H190.5v6.053a.486.486,0,0,1-.485.485h-.7a.486.486,0,0,1-.485-.485V217.33H187.1l1.729-6.839v-3.028h-.217l-1.423,5.252a.382.382,0,0,1-.466.268l-.529-.144a.381.381,0,0,1-.267-.466l1.765-6.513a.626.626,0,0,1,.619-.546Z" transform="translate(-175.08 -201.263)" fill="#423b84" fill-rule="evenodd"/>
      <path id="패스_959-3" data-name="패스 959" d="M110.443,171a1.705,1.705,0,1,1-1.705,1.705A1.7,1.7,0,0,1,110.443,171Z" transform="translate(-105.125 -171.002)" fill="#423b84" fill-rule="evenodd"/>
      <path id="패스_960-3" data-name="패스 960" d="M215.086,171a1.705,1.705,0,1,1-1.705,1.705A1.705,1.705,0,0,1,215.086,171Z" transform="translate(-199.3 -171.002)" fill="#423b84" fill-rule="evenodd"/>
    </g>
    <path id="사각형_612" data-name="사각형 612" d="M13.489,0h0A13.489,13.489,0,0,1,26.979,13.489v54.05a0,0,0,0,1,0,0H0a0,0,0,0,1,0,0V13.489A13.489,13.489,0,0,1,13.489,0Z" transform="translate(-819.793 4301.735)" fill="#423b84" opacity="0.7"/>
    <circle id="타원_125" data-name="타원 125" cx="12.396" cy="12.396" r="12.396" transform="translate(-818.7 4302.829)" fill="#fff"/>
    <text id="_68.7" data-name="68.7" transform="translate(-816.148 4318.027)" fill="#333" font-size="8" font-family="S-CoreDream-6Bold, 'S-Core Dream \36 '" font-weight="700"><tspan x="0" y="0">68.7</tspan></text>
    <g id="그룹_651" data-name="그룹 651" transform="translate(-762.714 4276.977)">
      <path id="패스_957-4" data-name="패스 957" d="M80.327,206.106H86.6a.627.627,0,0,1,.586.409.4.4,0,0,1,.03.087l1.557,7.09a.409.409,0,0,1-.311.486l-.575.126a.409.409,0,0,1-.486-.311l-1.26-5.739h-.318V223.82a.56.56,0,0,1-.559.559h-.806a.56.56,0,0,1-.559-.559v-9h-.872v9a.56.56,0,0,1-.559.559h-.806a.56.56,0,0,1-.559-.559V208.255h-.318l-1.26,5.739a.409.409,0,0,1-.486.311l-.575-.126a.409.409,0,0,1-.311-.486l1.557-7.09a.4.4,0,0,1,.03-.087.627.627,0,0,1,.586-.409Z" transform="translate(-78.146 -201.96)" fill="#423b84" fill-rule="evenodd"/>
      <path id="패스_958-4" data-name="패스 958" d="M188.315,205.315h5.1a.627.627,0,0,1,.619.546l1.765,6.512a.381.381,0,0,1-.268.466l-.529.144a.381.381,0,0,1-.466-.268l-1.424-5.252H192.9v3.028l1.729,6.839H192.9v6.053a.486.486,0,0,1-.485.485h-.7a.486.486,0,0,1-.485-.485V217.33H190.5v6.053a.486.486,0,0,1-.485.485h-.7a.486.486,0,0,1-.485-.485V217.33H187.1l1.729-6.839v-3.028h-.217l-1.423,5.252a.382.382,0,0,1-.466.268l-.529-.144a.381.381,0,0,1-.267-.466l1.765-6.513a.626.626,0,0,1,.619-.546Z" transform="translate(-175.08 -201.263)" fill="#423b84" fill-rule="evenodd"/>
      <path id="패스_959-4" data-name="패스 959" d="M110.443,171a1.705,1.705,0,1,1-1.705,1.705A1.7,1.7,0,0,1,110.443,171Z" transform="translate(-105.125 -171.002)" fill="#423b84" fill-rule="evenodd"/>
      <path id="패스_960-4" data-name="패스 960" d="M215.086,171a1.705,1.705,0,1,1-1.705,1.705A1.705,1.705,0,0,1,215.086,171Z" transform="translate(-199.3 -171.002)" fill="#423b84" fill-rule="evenodd"/>
    </g>
    <path id="사각형_613" data-name="사각형 613" d="M13.489,0h0A13.489,13.489,0,0,1,26.979,13.489V75.1a0,0,0,0,1,0,0H0a0,0,0,0,1,0,0V13.489A13.489,13.489,0,0,1,13.489,0Z" transform="translate(-765.836 4294.172)" fill="#423b84" opacity="0.8"/>
    <circle id="타원_126" data-name="타원 126" cx="12.396" cy="12.396" r="12.396" transform="translate(-764.742 4295.266)" fill="#fff"/>
    <text id="_69.2" data-name="69.2" transform="translate(-762.19 4310.463)" fill="#333" font-size="8" font-family="S-CoreDream-6Bold, 'S-Core Dream \36 '" font-weight="700"><tspan x="0" y="0">69.2</tspan></text>
    <g id="그룹_652" data-name="그룹 652" transform="translate(-708.756 4262.089)">
      <path id="패스_957-5" data-name="패스 957" d="M80.327,206.106H86.6a.627.627,0,0,1,.586.409.4.4,0,0,1,.03.087l1.557,7.09a.409.409,0,0,1-.311.486l-.575.126a.409.409,0,0,1-.486-.311l-1.26-5.739h-.318V223.82a.56.56,0,0,1-.559.559h-.806a.56.56,0,0,1-.559-.559v-9h-.872v9a.56.56,0,0,1-.559.559h-.806a.56.56,0,0,1-.559-.559V208.255h-.318l-1.26,5.739a.409.409,0,0,1-.486.311l-.575-.126a.409.409,0,0,1-.311-.486l1.557-7.09a.4.4,0,0,1,.03-.087.627.627,0,0,1,.586-.409Z" transform="translate(-78.146 -201.96)" fill="#423b84" fill-rule="evenodd"/>
      <path id="패스_958-5" data-name="패스 958" d="M188.315,205.315h5.1a.627.627,0,0,1,.619.546l1.765,6.512a.381.381,0,0,1-.268.466l-.529.144a.381.381,0,0,1-.466-.268l-1.424-5.252H192.9v3.028l1.729,6.839H192.9v6.053a.486.486,0,0,1-.485.485h-.7a.486.486,0,0,1-.485-.485V217.33H190.5v6.053a.486.486,0,0,1-.485.485h-.7a.486.486,0,0,1-.485-.485V217.33H187.1l1.729-6.839v-3.028h-.217l-1.423,5.252a.382.382,0,0,1-.466.268l-.529-.144a.381.381,0,0,1-.267-.466l1.765-6.513a.626.626,0,0,1,.619-.546Z" transform="translate(-175.08 -201.263)" fill="#423b84" fill-rule="evenodd"/>
      <path id="패스_959-5" data-name="패스 959" d="M110.443,171a1.705,1.705,0,1,1-1.705,1.705A1.7,1.7,0,0,1,110.443,171Z" transform="translate(-105.125 -171.002)" fill="#423b84" fill-rule="evenodd"/>
      <path id="패스_960-5" data-name="패스 960" d="M215.086,171a1.705,1.705,0,1,1-1.705,1.705A1.705,1.705,0,0,1,215.086,171Z" transform="translate(-199.3 -171.002)" fill="#423b84" fill-rule="evenodd"/>
    </g>
    <path id="사각형_614" data-name="사각형 614" d="M13.489,0h0A13.489,13.489,0,0,1,26.979,13.489v76.5a0,0,0,0,1,0,0H0a0,0,0,0,1,0,0v-76.5A13.489,13.489,0,0,1,13.489,0Z" transform="translate(-711.878 4279.284)" fill="#423b84" opacity="0.9"/>
    <circle id="타원_127" data-name="타원 127" cx="12.396" cy="12.396" r="12.396" transform="translate(-710.785 4280.377)" fill="#fff"/>
    <text id="_70.2" data-name="70.2" transform="translate(-708.232 4295.576)" fill="#333" font-size="8" font-family="S-CoreDream-6Bold, 'S-Core Dream \36 '" font-weight="700"><tspan x="0" y="0">70.2</tspan></text>
    <g id="그룹_653" data-name="그룹 653" transform="translate(-654.799 4240.791)">
      <path id="패스_957-6" data-name="패스 957" d="M80.327,206.106H86.6a.627.627,0,0,1,.586.409.4.4,0,0,1,.03.087l1.557,7.09a.409.409,0,0,1-.311.486l-.575.126a.409.409,0,0,1-.486-.311l-1.26-5.739h-.318V223.82a.56.56,0,0,1-.559.559h-.806a.56.56,0,0,1-.559-.559v-9h-.872v9a.56.56,0,0,1-.559.559h-.806a.56.56,0,0,1-.559-.559V208.255h-.318l-1.26,5.739a.409.409,0,0,1-.486.311l-.575-.126a.409.409,0,0,1-.311-.486l1.557-7.09a.4.4,0,0,1,.03-.087.627.627,0,0,1,.586-.409Z" transform="translate(-78.146 -201.96)" fill="#423b84" fill-rule="evenodd"/>
      <path id="패스_958-6" data-name="패스 958" d="M188.315,205.315h5.1a.627.627,0,0,1,.619.546l1.765,6.512a.381.381,0,0,1-.268.466l-.529.144a.381.381,0,0,1-.466-.268l-1.424-5.252H192.9v3.028l1.729,6.839H192.9v6.053a.486.486,0,0,1-.485.485h-.7a.486.486,0,0,1-.485-.485V217.33H190.5v6.053a.486.486,0,0,1-.485.485h-.7a.486.486,0,0,1-.485-.485V217.33H187.1l1.729-6.839v-3.028h-.217l-1.423,5.252a.382.382,0,0,1-.466.268l-.529-.144a.381.381,0,0,1-.267-.466l1.765-6.513a.626.626,0,0,1,.619-.546Z" transform="translate(-175.08 -201.263)" fill="#423b84" fill-rule="evenodd"/>
      <path id="패스_959-6" data-name="패스 959" d="M110.443,171a1.705,1.705,0,1,1-1.705,1.705A1.7,1.7,0,0,1,110.443,171Z" transform="translate(-105.125 -171.002)" fill="#423b84" fill-rule="evenodd"/>
      <path id="패스_960-6" data-name="패스 960" d="M215.086,171a1.705,1.705,0,1,1-1.705,1.705A1.705,1.705,0,0,1,215.086,171Z" transform="translate(-199.3 -171.002)" fill="#423b84" fill-rule="evenodd"/>
    </g>
    <path id="사각형_615" data-name="사각형 615" d="M13.489,0h0A13.489,13.489,0,0,1,26.979,13.489v97.8a0,0,0,0,1,0,0H0a0,0,0,0,1,0,0v-97.8A13.489,13.489,0,0,1,13.489,0Z" transform="translate(-657.921 4257.986)" fill="#423b84"/>
    <circle id="타원_128" data-name="타원 128" cx="12.396" cy="12.396" r="12.396" transform="translate(-656.827 4259.08)" fill="#fff"/>
    <text id="_72.7" data-name="72.7" transform="translate(-654.275 4274.277)" fill="#333" font-size="8" font-family="S-CoreDream-6Bold, 'S-Core Dream \36 '" font-weight="700"><tspan x="0" y="0">72.7</tspan></text>
    <line id="선_152" data-name="선 152" y1="43.02" x2="269.788" transform="translate(-914.219 4312.765)" fill="none" stroke="#423b84" stroke-width="1"/>
  </g>
</svg>
