<?xml version="1.0" encoding="utf-8"?>
<!-- Generator: Adobe Illustrator 28.3.0, SVG Export Plug-In . SVG Version: 6.00 Build 0)  -->
<svg version="1.1" id="레이어_1" xmlns="http://www.w3.org/2000/svg" xmlns:xlink="http://www.w3.org/1999/xlink" x="0px"
	 y="0px" viewBox="0 0 317.2 135.8" style="enable-background:new 0 0 317.2 135.8;" xml:space="preserve">
<style type="text/css">
	.st0{opacity:0.5;fill:#423B84;enable-background:new    ;}
	.st1{fill:#423B84;}
	.st2{fill:#FFFFFF;}
	.st3{fill:#333333;}
	.st4{font-family:'SourceHanSansKR-Bold-KSCpc-EUC-H';}
	.st5{font-size:8px;}
	.st6{opacity:0.6;fill:#423B84;enable-background:new    ;}
	.st7{opacity:0.7;fill:#423B84;enable-background:new    ;}
	.st8{opacity:0.8;fill:#423B84;enable-background:new    ;}
	.st9{opacity:0.9;fill:#423B84;enable-background:new    ;}
	.st10{font-size:14px;}
	.st11{fill:none;stroke:#423B84;}
</style>
<path id="사각형_604" class="st0" d="M20.7,70.3L20.7,70.3c7.4,0,13.5,6,13.5,13.5c0,0,0,0,0,0v37.6l0,0h-27l0,0V83.8
	C7.2,76.4,13.3,70.3,20.7,70.3C20.7,70.3,20.7,70.3,20.7,70.3z"/>
<rect id="사각형_610" y="132.8" class="st1" width="317.2" height="2.9"/>
<circle id="타원_123" class="st2" cx="20.7" cy="83.8" r="12.4"/>
<text transform="matrix(1 0 0 1 12.5076 85.6403)" class="st3 st4 st5">71.3</text>
<path id="사각형_611" class="st6" d="M74.7,62L74.7,62c7.4,0,13.5,6,13.5,13.5c0,0,0,0,0,0v44.4l0,0h-27l0,0V75.5
	C61.2,68.1,67.2,62,74.7,62C74.7,62,74.7,62,74.7,62z"/>
<circle id="타원_124" class="st2" cx="74.7" cy="75.5" r="12.4"/>
<text transform="matrix(1 0 0 1 66.4656 77.3146)" class="st3 st4 st5">72.0</text>
<path id="사각형_612" class="st7" d="M128.6,52.4L128.6,52.4c7.4,0,13.5,6,13.5,13.5c0,0,0,0,0,0v54.1l0,0h-27l0,0V65.9
	C115.1,58.4,121.2,52.4,128.6,52.4C128.6,52.4,128.6,52.4,128.6,52.4z"/>
<circle id="타원_125" class="st2" cx="128.6" cy="65.9" r="12.4"/>
<text transform="matrix(1 0 0 1 120.4225 67.6833)" class="st3 st4 st5">73.1</text>
<path id="사각형_613" class="st8" d="M182.6,44.8L182.6,44.8c7.4,0,13.5,6,13.5,13.5c0,0,0,0,0,0v61.6l0,0h-27l0,0V58.3
	C169.1,50.9,175.1,44.8,182.6,44.8C182.6,44.8,182.6,44.8,182.6,44.8z"/>
<circle id="타원_126" class="st2" cx="182.6" cy="58.3" r="12.4"/>
<text transform="matrix(1 0 0 1 174.3805 60.1193)" class="st3 st4 st5">73.9</text>
<path id="사각형_614" class="st9" d="M236.5,29.9L236.5,29.9c7.4,0,13.5,6,13.5,13.5c0,0,0,0,0,0v76.5l0,0h-27l0,0V43.4
	C223.1,36,229.1,29.9,236.5,29.9z"/>
<circle id="타원_127" class="st2" cx="236.5" cy="43.4" r="12.4"/>
<text transform="matrix(1 0 0 1 228.3385 45.2326)" class="st3 st4 st5">74.9</text>
<path id="사각형_615" class="st1" d="M290.5,8.6L290.5,8.6c7.4,0,13.5,6,13.5,13.5c0,0,0,0,0,0v97.8l0,0h-27l0,0V22.1
	C277,14.7,283.1,8.6,290.5,8.6z"/>
<circle id="타원_128" class="st1" cx="290.5" cy="22.1" r="19.4"/>
<text transform="matrix(1 0 0 1 275.8635 26.9331)" class="st2 st4 st10">75.4</text>
<line id="선_152" class="st11" x1="20.9" y1="104.8" x2="290.3" y2="59"/>
<text transform="matrix(1 0 0 1 11.2956 130.2639)" class="st3 st4 st5">2016</text>
<text transform="matrix(1 0 0 1 65.2536 130.2639)" class="st3 st4 st5">2017</text>
<text transform="matrix(1 0 0 1 119.2111 130.2639)" class="st3 st4 st5">2018</text>
<text transform="matrix(1 0 0 1 173.168 130.2639)" class="st3 st4 st5">2019</text>
<text transform="matrix(1 0 0 1 227.1254 130.2639)" class="st3 st4 st5">2020</text>
<text transform="matrix(1 0 0 1 281.0838 130.2639)" class="st3 st4 st5">2021</text>
</svg>
