<?xml version="1.0" encoding="utf-8"?>
<!-- Generator: Adobe Illustrator 28.3.0, SVG Export Plug-In . SVG Version: 6.00 Build 0)  -->
<svg version="1.1" id="레이어_1" xmlns="http://www.w3.org/2000/svg" xmlns:xlink="http://www.w3.org/1999/xlink" x="0px"
	 y="0px" viewBox="0 0 317.2 135.8" style="enable-background:new 0 0 317.2 135.8;" xml:space="preserve">
<style type="text/css">
	.st0{opacity:0.5;fill:#423B84;enable-background:new    ;}
	.st1{fill:#423B84;}
	.st2{fill:#FFFFFF;}
	.st3{enable-background:new    ;}
	.st4{fill:#333333;}
	.st5{opacity:0.6;fill:#423B84;enable-background:new    ;}
	.st6{opacity:0.7;fill:#423B84;enable-background:new    ;}
	.st7{opacity:0.8;fill:#423B84;enable-background:new    ;}
	.st8{opacity:0.9;fill:#423B84;enable-background:new    ;}
	.st9{fill:none;stroke:#423B84;}
</style>
<path id="사각형_604" class="st0" d="M20.7,83.2L20.7,83.2c7.4,0,13.5,6,13.5,13.5l0,0v37.6l0,0h-27l0,0V96.7
	C7.2,89.2,13.3,83.2,20.7,83.2L20.7,83.2z"/>
<rect id="사각형_610" y="132.8" class="st1" width="317.2" height="2.9"/>
<circle id="타원_123" class="st2" cx="20.7" cy="96.7" r="12.4"/>
<g class="st3">
	<path class="st4" d="M15.6,93.6h-2.7v-1h3.9v0.7c-1.4,1.7-1.6,2.9-1.7,5.2H14C14.1,96.4,14.4,95.1,15.6,93.6z"/>
	<path class="st4" d="M17.9,97.5h1.3v-3.7h-1.1v-0.7c0.6-0.1,1-0.3,1.4-0.5h0.9v5h1.1v1h-3.6V97.5z"/>
	<path class="st4" d="M22.5,97.8c0-0.4,0.3-0.8,0.7-0.8c0.4,0,0.7,0.3,0.7,0.8c0,0.4-0.3,0.8-0.7,0.8C22.8,98.6,22.5,98.3,22.5,97.8
		z"/>
	<path class="st4" d="M24.7,97.8l0.6-0.7c0.4,0.3,0.8,0.6,1.3,0.6c0.6,0,1-0.3,1-0.8c0-0.6-0.3-0.9-1.6-0.9V95
		c1.1,0,1.4-0.4,1.4-0.9c0-0.5-0.3-0.7-0.8-0.7c-0.4,0-0.8,0.2-1.1,0.5l-0.6-0.7c0.5-0.4,1.1-0.7,1.8-0.7c1.1,0,1.9,0.6,1.9,1.6
		c0,0.6-0.4,1.1-1,1.4v0c0.7,0.2,1.2,0.7,1.2,1.5c0,1.1-1,1.7-2.1,1.7C25.8,98.6,25.2,98.3,24.7,97.8z"/>
</g>
<path id="사각형_611" class="st5" d="M74.7,74.8L74.7,74.8c7.4,0,13.5,6,13.5,13.5l0,0v44.4l0,0h-27l0,0V88.3
	C61.2,80.9,67.2,74.8,74.7,74.8L74.7,74.8z"/>
<circle id="타원_124" class="st2" cx="74.7" cy="88.3" r="12.4"/>
<g class="st3">
	<path class="st4" d="M69.5,85.2h-2.7v-1h3.9V85c-1.4,1.7-1.6,2.9-1.7,5.2H68C68.1,88.1,68.4,86.8,69.5,85.2z"/>
	<path class="st4" d="M71.5,89.5c1.6-1.4,2.6-2.6,2.6-3.5c0-0.6-0.3-1-0.9-1c-0.4,0-0.8,0.3-1.1,0.6L71.5,85
		c0.5-0.6,1.1-0.9,1.9-0.9c1.1,0,1.9,0.7,1.9,1.8c0,1.1-0.9,2.2-2,3.3c0.3,0,0.7-0.1,1-0.1h1.3v1h-4V89.5z"/>
	<path class="st4" d="M76.5,89.5c0-0.4,0.3-0.8,0.7-0.8c0.4,0,0.7,0.3,0.7,0.8c0,0.4-0.3,0.8-0.7,0.8C76.8,90.3,76.5,89.9,76.5,89.5
		z"/>
	<path class="st4" d="M78.8,87.2c0-2,0.8-3,2-3c1.2,0,2,1,2,3s-0.8,3.1-2,3.1C79.6,90.3,78.8,89.2,78.8,87.2z M81.7,87.2
		c0-1.7-0.4-2.1-0.9-2.1c-0.5,0-0.9,0.5-0.9,2.1c0,1.7,0.4,2.2,0.9,2.2C81.4,89.4,81.7,88.8,81.7,87.2z"/>
</g>
<path id="사각형_612" class="st6" d="M128.6,65.2L128.6,65.2c7.4,0,13.5,6,13.5,13.5l0,0v54.1l0,0h-27l0,0V78.8
	C115.1,71.2,121.2,65.2,128.6,65.2L128.6,65.2z"/>
<circle id="타원_125" class="st2" cx="128.6" cy="78.8" r="12.4"/>
<g class="st3">
	<path class="st4" d="M123.5,75.6h-2.7v-1h3.9v0.7c-1.4,1.7-1.6,2.9-1.7,5.2h-1.2C122,78.5,122.4,77.2,123.5,75.6z"/>
	<path class="st4" d="M125.3,79.8l0.6-0.7c0.4,0.3,0.8,0.6,1.3,0.6c0.6,0,1-0.3,1-0.8c0-0.6-0.3-0.9-1.6-0.9v-0.8
		c1.1,0,1.4-0.4,1.4-0.9c0-0.5-0.3-0.7-0.8-0.7c-0.4,0-0.8,0.2-1.1,0.5l-0.6-0.7c0.5-0.4,1.1-0.7,1.8-0.7c1.1,0,1.9,0.6,1.9,1.6
		c0,0.6-0.4,1.1-1,1.4v0c0.7,0.2,1.2,0.7,1.2,1.5c0,1.1-1,1.7-2.1,1.7C126.4,80.6,125.8,80.3,125.3,79.8z"/>
	<path class="st4" d="M130.4,79.9c0-0.4,0.3-0.8,0.7-0.8c0.4,0,0.7,0.3,0.7,0.8c0,0.4-0.3,0.8-0.7,0.8
		C130.7,80.6,130.4,80.3,130.4,79.9z"/>
	<path class="st4" d="M133.1,79.6h1.3v-3.7h-1.1v-0.7c0.6-0.1,1-0.3,1.4-0.5h0.9v5h1.1v1h-3.6V79.6z"/>
</g>
<path id="사각형_613" class="st7" d="M182.6,57.6L182.6,57.6c7.4,0,13.5,6,13.5,13.5l0,0v61.6l0,0h-27l0,0V71.2
	C169.1,63.8,175.1,57.6,182.6,57.6L182.6,57.6z"/>
<circle id="타원_126" class="st2" cx="182.6" cy="71.2" r="12.4"/>
<g class="st3">
	<path class="st4" d="M177.4,68h-2.7v-1h3.9v0.7c-1.4,1.7-1.6,2.9-1.7,5.2h-1.2C176,70.9,176.3,69.6,177.4,68z"/>
	<path class="st4" d="M179.3,72.3l0.6-0.7c0.4,0.3,0.8,0.6,1.3,0.6c0.6,0,1-0.3,1-0.8c0-0.6-0.3-0.9-1.6-0.9v-0.8
		c1.1,0,1.4-0.4,1.4-0.9c0-0.5-0.3-0.7-0.8-0.7c-0.4,0-0.8,0.2-1.1,0.5l-0.6-0.7c0.5-0.4,1.1-0.7,1.8-0.7c1.1,0,1.9,0.6,1.9,1.6
		c0,0.6-0.4,1.1-1,1.4v0c0.7,0.2,1.2,0.7,1.2,1.5c0,1.1-1,1.7-2.1,1.7C180.3,73.1,179.7,72.7,179.3,72.3z"/>
	<path class="st4" d="M184.4,72.3c0-0.4,0.3-0.8,0.7-0.8c0.4,0,0.7,0.3,0.7,0.8c0,0.4-0.3,0.8-0.7,0.8
		C184.7,73.1,184.4,72.7,184.4,72.3z"/>
	<path class="st4" d="M187.4,71.7c0.2,0.2,0.6,0.4,0.9,0.4c0.7,0,1.2-0.5,1.3-2c-0.3,0.4-0.8,0.6-1.2,0.6c-1,0-1.7-0.6-1.7-1.9
		c0-1.2,0.8-2,1.9-2c1.1,0,2.1,0.9,2.1,2.9c0,2.2-1.1,3.2-2.3,3.2c-0.7,0-1.3-0.3-1.6-0.7L187.4,71.7z M189.6,69.3
		c-0.1-1.1-0.5-1.5-1-1.5c-0.4,0-0.8,0.4-0.8,1.1c0,0.7,0.3,1,0.8,1C189,69.9,189.3,69.8,189.6,69.3z"/>
</g>
<path id="사각형_614" class="st8" d="M236.5,42.8L236.5,42.8c7.4,0,13.5,6,13.5,13.5l0,0v76.5l0,0h-27l0,0V56.2
	C223.1,48.8,229.1,42.8,236.5,42.8z"/>
<circle id="타원_127" class="st2" cx="236.5" cy="56.2" r="12.4"/>
<g class="st3">
	<path class="st4" d="M231.4,53.1h-2.7v-1h3.9v0.7c-1.4,1.7-1.6,2.9-1.7,5.2h-1.2C229.9,56,230.3,54.7,231.4,53.1z"/>
	<path class="st4" d="M237.5,56.5h-0.7v1.5h-1.1v-1.5h-2.5v-0.8l2.2-3.6h1.4v3.5h0.7V56.5z M235.7,55.7v-1.2c0-0.3,0-0.9,0-1.2h0
		c-0.1,0.3-0.3,0.6-0.5,1l-0.9,1.5H235.7z"/>
	<path class="st4" d="M238.3,57.4c0-0.4,0.3-0.8,0.7-0.8c0.4,0,0.7,0.3,0.7,0.8c0,0.4-0.3,0.8-0.7,0.8
		C238.6,58.2,238.3,57.9,238.3,57.4z"/>
	<path class="st4" d="M241.4,56.8c0.2,0.2,0.6,0.4,0.9,0.4c0.7,0,1.2-0.5,1.3-2c-0.3,0.4-0.8,0.6-1.2,0.6c-1,0-1.7-0.6-1.7-1.9
		c0-1.2,0.8-2,1.9-2c1.1,0,2.1,0.9,2.1,2.9c0,2.2-1.1,3.2-2.3,3.2c-0.7,0-1.3-0.3-1.6-0.7L241.4,56.8z M243.6,54.4
		c-0.1-1.1-0.5-1.5-1-1.5c-0.4,0-0.8,0.4-0.8,1.1c0,0.7,0.3,1,0.8,1C242.9,55.1,243.3,54.9,243.6,54.4z"/>
</g>
<path id="사각형_615" class="st1" d="M290.5,21.5L290.5,21.5c7.4,0,13.5,6,13.5,13.5l0,0v97.8l0,0h-27l0,0V35
	C277,27.5,283.1,21.5,290.5,21.5z"/>
<circle id="타원_128" class="st1" cx="290.5" cy="35" r="19.4"/>
<g class="st3">
	<path class="st2" d="M281.2,31.1h-4.7v-1.7h6.9v1.2c-2.4,2.9-2.7,5.1-2.9,9.1h-2.1C278.7,36.2,279.3,33.9,281.2,31.1z"/>
	<path class="st2" d="M284.5,38.6l1-1.3c0.6,0.6,1.3,1.1,2.3,1.1c1.1,0,1.8-0.7,1.8-1.9c0-1.2-0.7-1.9-1.8-1.9c-0.6,0-1,0.2-1.6,0.5
		l-0.9-0.6l0.3-5h5.5v1.7h-3.8l-0.2,2.2c0.4-0.2,0.8-0.3,1.2-0.3c1.7,0,3.2,1,3.2,3.3c0,2.3-1.7,3.6-3.6,3.6
		C286.3,40,285.2,39.3,284.5,38.6z"/>
	<path class="st2" d="M293.3,38.6c0-0.8,0.5-1.3,1.3-1.3c0.7,0,1.3,0.6,1.3,1.3c0,0.8-0.5,1.3-1.3,1.3
		C293.9,40,293.3,39.4,293.3,38.6z"/>
	<path class="st2" d="M304.8,37.1h-1.2v2.7h-1.9v-2.7h-4.4v-1.4l3.9-6.3h2.5v6.1h1.2V37.1z M301.6,35.5v-2.1c0-0.6,0.1-1.5,0.1-2.1
		h-0.1c-0.3,0.5-0.5,1.1-0.8,1.7l-1.6,2.6H301.6z"/>
</g>
<line id="선_152" class="st9" x1="20.9" y1="117.7" x2="290.3" y2="71.8"/>
</svg>
