<svg xmlns="http://www.w3.org/2000/svg" width="1006.968" height="513.752" viewBox="0 0 1006.968 513.752">
  <g id="그룹_2169" data-name="그룹 2169" transform="translate(-179.516 -605.124)">
    <g id="그룹_2164" data-name="그룹 2164" transform="translate(356.969 770.8)">
      <path id="패스_5287" data-name="패스 5287" d="M1297.782,1153.179a7.413,7.413,0,0,1-6.975-4.911,159.981,159.981,0,0,0-135.588-105.038,7.41,7.41,0,0,1,1.344-14.759,174.527,174.527,0,0,1,148.194,114.794,7.416,7.416,0,0,1-6.975,9.913Z" transform="translate(-1148.48 -1028.441)" fill="#13a6bc"/>
    </g>
    <g id="그룹_2165" data-name="그룹 2165" transform="translate(518.366 993.443)">
      <path id="패스_5288" data-name="패스 5288" d="M1982.167,2076.814a173.186,173.186,0,0,1-101.42-32.509,174.822,174.822,0,0,1-62.776-83.01,7.41,7.41,0,1,1,13.95-5,159.632,159.632,0,0,0,300.492,0,7.41,7.41,0,1,1,13.951,5,174.449,174.449,0,0,1-164.2,115.52Z" transform="translate(-1817.533 -1951.382)" fill="#f4584a"/>
    </g>
    <g id="그룹_2166" data-name="그룹 2166" transform="translate(852.317 770.799)">
      <path id="패스_5289" data-name="패스 5289" d="M3209.3,1153.177a7.415,7.415,0,0,1-6.975-9.913,174.526,174.526,0,0,1,148.194-114.794,7.41,7.41,0,1,1,1.344,14.759,159.981,159.981,0,0,0-135.588,105.037A7.412,7.412,0,0,1,3209.3,1153.177Z" transform="translate(-3201.886 -1028.439)" fill="#4a98d6"/>
    </g>
    <path id="패스_5290" data-name="패스 5290" d="M1890.568,452.06c.316-.331.625-.666.933-1,.048-.052.1-.1.144-.155a64.762,64.762,0,0,0,15.822-31.73c0-.025.009-.051.014-.076q.131-.7.247-1.413c.012-.072.023-.144.035-.216q.1-.642.194-1.288c.017-.119.032-.238.048-.357.052-.387.1-.775.147-1.164.019-.164.036-.327.054-.491.038-.348.074-.7.106-1.045.019-.206.036-.412.053-.618.026-.312.051-.624.073-.936.017-.242.03-.484.044-.727.016-.282.033-.564.045-.847s.021-.536.03-.8.018-.526.023-.789c.006-.281.008-.562.01-.843,0-.189.007-.377.007-.566,0-.069,0-.138,0-.206s0-.136,0-.2c0-.182-.008-.362-.01-.544,0-.289-.008-.577-.016-.865-.007-.242-.017-.484-.027-.726-.011-.294-.022-.589-.038-.882-.012-.231-.027-.461-.041-.691-.019-.307-.039-.614-.062-.921-.016-.211-.034-.421-.052-.632-.029-.33-.058-.659-.091-.988-.019-.182-.039-.363-.059-.544q-.06-.545-.128-1.088-.027-.211-.055-.422-.082-.616-.176-1.23l-.04-.259q-.111-.712-.239-1.42l-.008-.048a65,65,0,0,0-17-33.41,7.425,7.425,0,0,0-1.12-.962c-.123-.122-.242-.247-.366-.368a65.725,65.725,0,0,0-29.218-16.707c-.108-.034-.217-.067-.327-.1a62.545,62.545,0,0,0-16.181-2.128H1422.609c-.45,0-.9.007-1.351.016l-.582.014-.449.017a64.862,64.862,0,0,0-43.819,19.091q-.545.545-1.074,1.1l-.022.022-.013.013c-.316.331-.625.666-.933,1-.047.052-.1.1-.144.155a64.764,64.764,0,0,0-15.822,31.73c0,.025-.009.05-.014.076q-.131.7-.248,1.413c-.012.072-.023.144-.035.216q-.1.642-.194,1.287c-.017.119-.032.238-.048.357-.052.387-.1.775-.147,1.164-.019.164-.036.327-.054.491-.038.348-.074.7-.107,1.046-.019.206-.036.412-.053.618-.026.312-.051.623-.073.936-.017.242-.03.484-.044.727-.016.282-.032.564-.045.847s-.02.536-.029.8-.018.525-.023.789c-.006.281-.008.562-.01.843,0,.189-.007.377-.007.566,0,.069,0,.138,0,.207s0,.136,0,.2c0,.181.007.362.01.543,0,.289.008.577.016.865.007.242.017.484.026.726.011.294.023.589.038.882.012.231.027.461.041.691.019.307.039.614.063.92.016.211.035.421.052.632.028.33.058.659.091.988.019.182.039.363.059.544q.06.545.128,1.088c.018.141.037.281.055.422q.082.616.175,1.23c.013.086.027.173.04.259q.112.711.238,1.419l.009.049a65,65,0,0,0,17,33.409,7.454,7.454,0,0,0,1.12.962c.123.122.242.247.366.368a65.721,65.721,0,0,0,29.219,16.707c.108.034.216.067.327.1a62.555,62.555,0,0,0,16.182,2.128h420.733c.451,0,.9-.007,1.351-.016l.582-.014.449-.016a64.863,64.863,0,0,0,43.819-19.091q.545-.545,1.074-1.1l.022-.023Zm-243.836,5.455H1423.1c-26.625,0-48.649-20.428-50.832-46.287,0-.038-.007-.076-.01-.114-.028-.341-.051-.683-.072-1.025-.007-.113-.014-.227-.02-.341-.015-.276-.027-.554-.037-.831-.006-.159-.013-.318-.017-.478-.007-.246-.01-.494-.014-.741,0-.18-.006-.36-.007-.541,0-.2,0-.405,0-.608s0-.427.008-.64.012-.416.018-.624.013-.405.022-.607c.01-.224.023-.447.036-.67.011-.182.021-.364.033-.545.017-.247.037-.494.057-.74.013-.154.025-.308.04-.461q.038-.411.083-.822c.013-.123.026-.245.041-.368q.053-.456.115-.909c.012-.089.024-.178.036-.267q.07-.5.151-1c.009-.055.017-.109.026-.164q.09-.548.192-1.093l.011-.061a50.165,50.165,0,0,1,11.417-23.613l.066-.074q.367-.422.743-.837c.09-.1.184-.2.275-.3.186-.2.372-.4.561-.6q.426-.446.863-.884a50.223,50.223,0,0,1,22.037-12.931,7.449,7.449,0,0,0,1.259-.224,47.773,47.773,0,0,1,10.787-1.614l.108,0q.765-.024,1.531-.025h420.158c26.625,0,48.649,20.428,50.832,46.287,0,.038.006.076.009.114.028.341.051.683.072,1.025.007.114.014.227.02.341.015.277.027.554.037.832.006.159.012.318.017.478.007.246.011.493.014.741,0,.18.005.36.006.541,0,.2,0,.405,0,.608s0,.427-.008.64-.011.416-.019.624-.013.4-.022.607c-.01.224-.023.447-.036.67-.011.182-.021.364-.033.546-.017.246-.037.493-.058.739-.013.154-.025.309-.04.463-.025.274-.054.547-.083.82-.014.123-.026.246-.041.368q-.053.456-.115.909c-.012.089-.024.178-.036.267q-.07.5-.15,1c-.009.055-.017.109-.026.164q-.09.548-.192,1.093l-.011.061a50.166,50.166,0,0,1-11.417,23.613l-.066.075q-.367.422-.743.837c-.09.1-.184.2-.275.3-.186.2-.372.4-.562.6q-.426.446-.862.884a50.23,50.23,0,0,1-22.037,12.931,7.43,7.43,0,0,0-1.259.224,47.753,47.753,0,0,1-10.787,1.614l-.108,0q-.765.024-1.531.025Z" transform="translate(-949.935 263.471)" fill="#d2d2d4"/>
    <g id="그룹_2167" data-name="그룹 2167" transform="translate(179.516 725.84)">
      <path id="패스_5291" data-name="패스 5291" d="M905.981,891.5a169.371,169.371,0,0,0-159.158,169.216,164.259,164.259,0,0,1-164.43,164.422h-.434a164.426,164.426,0,0,1-14.631-328.159l.126-.01a19.186,19.186,0,0,0,17.506-19.086V861.223a14.061,14.061,0,0,1,14.046-14.046h56.951a2.555,2.555,0,1,0,0-5.11H599.005a19.178,19.178,0,0,0-19.156,19.156v16.659a14.015,14.015,0,0,1-12.82,13.994c-.067,0-.134.01-.187.016a169.525,169.525,0,0,0,15.1,338.356h.46a168.355,168.355,0,0,0,98.418-31.479,169.184,169.184,0,0,0,71.11-138.054A164.261,164.261,0,0,1,906.289,896.6a2.555,2.555,0,0,0-.308-5.1Z" transform="translate(-412.872 -842.067)" fill="#d2d2d4"/>
      <path id="패스_5292" data-name="패스 5292" d="M2982.672,945.769a169.03,169.03,0,0,0-109.026-53.875c-.07-.007-.14-.013-.208-.018a14.015,14.015,0,0,1-12.822-13.994V861.223a19.178,19.178,0,0,0-19.156-19.156h-57.206a2.555,2.555,0,1,0,0,5.11h57.206a14.062,14.062,0,0,1,14.046,14.046v16.659a19.186,19.186,0,0,0,17.506,19.086l.148.013a164.421,164.421,0,0,1-14.653,328.156h-.435a164.259,164.259,0,0,1-164.43-164.422A169.516,169.516,0,0,0,2534.484,891.5a2.555,2.555,0,0,0-.308,5.1,164.26,164.26,0,0,1,154.355,164.115,169.5,169.5,0,0,0,169.528,169.533h.461a169.531,169.531,0,0,0,124.152-284.479Z" transform="translate(-2020.626 -842.067)" fill="#d2d2d4"/>
      <path id="패스_5293" data-name="패스 5293" d="M2491.962,921.785a2.555,2.555,0,0,0-2.555,2.555v30.145a2.555,2.555,0,0,0,5.111,0V924.34A2.555,2.555,0,0,0,2491.962,921.785Z" transform="translate(-1988.479 -902.554)" fill="#d2d2d4"/>
    </g>
  </g>
</svg>
