<svg xmlns="http://www.w3.org/2000/svg" width="172" height="42.261" viewBox="0 0 172 42.261">
  <g id="logo_1_" data-name="logo (1)" transform="translate(-1.233 -3.424)">
    <g id="그룹_2" data-name="그룹 2" transform="translate(1.233 3.424)">
      <g id="그룹_1" data-name="그룹 1" transform="translate(15.118 15.621)">
        <circle id="타원_1" data-name="타원 1" cx="1.192" cy="1.192" r="1.192" transform="translate(0 8.988)" fill="#8b8b8b"/>
        <circle id="타원_2" data-name="타원 2" cx="1.192" cy="1.192" r="1.192" transform="translate(4.586)" fill="#8b8b8b"/>
        <circle id="타원_3" data-name="타원 3" cx="1.192" cy="1.192" r="1.192" transform="translate(10.455 6.328)" fill="#8b8b8b"/>
        <circle id="타원_4" data-name="타원 4" cx="1.192" cy="1.192" r="1.192" transform="translate(18.251 8.3)" fill="#8b8b8b"/>
      </g>
      <ellipse id="타원_5" data-name="타원 5" cx="1.101" cy="1.926" rx="1.101" ry="1.926" transform="translate(3.501 11.591) rotate(-26.788)" fill="#8b8b8b"/>
      <ellipse id="타원_6" data-name="타원 6" cx="1.284" cy="2.201" rx="1.284" ry="2.201" transform="translate(6.062 15.915) rotate(-38.541)" fill="#8b8b8b"/>
      <ellipse id="타원_7" data-name="타원 7" cx="1.788" cy="3.072" rx="1.788" ry="3.072" transform="translate(0 18.867) rotate(-78.814)" fill="#8b8b8b"/>
      <ellipse id="타원_8" data-name="타원 8" cx="3.027" cy="1.743" rx="3.027" ry="1.743" transform="matrix(0.668, -0.744, 0.744, 0.668, 8.21, 36.876)" fill="#8b8b8b"/>
      <ellipse id="타원_9" data-name="타원 9" cx="1.788" cy="3.072" rx="1.788" ry="3.072" transform="matrix(0.631, -0.776, 0.776, 0.631, 6.552, 12.823)" fill="#8b8b8b"/>
      <ellipse id="타원_10" data-name="타원 10" cx="2.476" cy="4.265" rx="2.476" ry="4.265" transform="translate(13.206 2.423) rotate(-19.25)" fill="#8b8b8b"/>
      <ellipse id="타원_11" data-name="타원 11" cx="3.072" cy="1.788" rx="3.072" ry="1.788" transform="translate(23.058 5.425) rotate(-57.459)" fill="#8b8b8b"/>
      <ellipse id="타원_12" data-name="타원 12" cx="3.072" cy="1.788" rx="3.072" ry="1.788" transform="translate(29.448 11.815) rotate(-52.562)" fill="#8b8b8b"/>
      <ellipse id="타원_13" data-name="타원 13" cx="2.247" cy="1.284" rx="2.247" ry="1.284" transform="matrix(0.834, -0.552, 0.552, 0.834, 38.439, 19.051)" fill="#8b8b8b"/>
      <ellipse id="타원_14" data-name="타원 14" cx="3.21" cy="1.834" rx="3.21" ry="1.834" transform="translate(34.335 11.664) rotate(-17.975)" fill="#8b8b8b"/>
      <ellipse id="타원_15" data-name="타원 15" cx="1.651" cy="2.889" rx="1.651" ry="2.889" transform="matrix(0.8, -0.6, 0.6, 0.8, 29.226, 33.746)" fill="#8b8b8b"/>
      <ellipse id="타원_16" data-name="타원 16" cx="1.284" cy="2.247" rx="1.284" ry="2.247" transform="translate(6.128 21.827) rotate(-86.937)" fill="#8b8b8b"/>
      <ellipse id="타원_17" data-name="타원 17" cx="2.706" cy="1.559" rx="2.706" ry="1.559" transform="translate(5.906 31.095) rotate(-12.585)" fill="#8b8b8b"/>
      <path id="패스_1" data-name="패스 1" d="M78.843,76.644a.045.045,0,0,0,.046-.046,2.386,2.386,0,0,0-3.348-2.339.045.045,0,0,0-.046.046,2.386,2.386,0,0,0,3.348,2.339Z" transform="translate(-41.438 -41.822)" fill="#8b8b8b"/>
      <ellipse id="타원_18" data-name="타원 18" cx="1.146" cy="1.926" rx="1.146" ry="1.926" transform="matrix(0.511, -0.859, 0.859, 0.511, 38.231, 27.948)" fill="#8b8b8b"/>
      <ellipse id="타원_19" data-name="타원 19" cx="2.155" cy="3.714" rx="2.155" ry="3.714" transform="matrix(0.077, -0.997, 0.997, 0.077, 6.563, 26.459)" fill="#8b8b8b"/>
      <ellipse id="타원_20" data-name="타원 20" cx="2.155" cy="3.714" rx="2.155" ry="3.714" transform="translate(10.292 17.706) rotate(-27.859)" fill="#8b8b8b"/>
      <ellipse id="타원_21" data-name="타원 21" cx="3.714" cy="2.155" rx="3.714" ry="2.155" transform="translate(19.235 13.611) rotate(-77.843)" fill="#8b8b8b"/>
      <ellipse id="타원_22" data-name="타원 22" cx="3.714" cy="2.155" rx="3.714" ry="2.155" transform="translate(35.615 21.33) rotate(-5.328)" fill="#8b8b8b"/>
      <ellipse id="타원_23" data-name="타원 23" cx="3.714" cy="2.155" rx="3.714" ry="2.155" transform="translate(26.556 18.705) rotate(-58.095)" fill="#8b8b8b"/>
      <ellipse id="타원_24" data-name="타원 24" cx="3.714" cy="2.155" rx="3.714" ry="2.155" transform="translate(32.608 20.04) rotate(-58.095)" fill="#8b8b8b"/>
      <ellipse id="타원_25" data-name="타원 25" cx="3.531" cy="2.064" rx="3.531" ry="2.064" transform="translate(25.389 14.108) rotate(-85.409)" fill="#8b8b8b"/>
      <ellipse id="타원_26" data-name="타원 26" cx="2.155" cy="3.714" rx="2.155" ry="3.714" transform="translate(10.855 11.753) rotate(-54.064)" fill="#8b8b8b"/>
      <ellipse id="타원_27" data-name="타원 27" cx="1.467" cy="2.522" rx="1.467" ry="2.522" transform="matrix(0.195, -0.981, 0.981, 0.195, 35.765, 32.17)" fill="#8b8b8b"/>
      <ellipse id="타원_28" data-name="타원 28" cx="2.018" cy="1.146" rx="2.018" ry="1.146" transform="translate(27.526 38.331) rotate(-82.715)" fill="#8b8b8b"/>
      <ellipse id="타원_29" data-name="타원 29" cx="2.522" cy="1.467" rx="2.522" ry="1.467" transform="matrix(0.101, -0.995, 0.995, 0.101, 28.892, 6.641)" fill="#8b8b8b"/>
      <ellipse id="타원_30" data-name="타원 30" cx="1.467" cy="2.522" rx="1.467" ry="2.522" transform="translate(19.448 0.655) rotate(-12.891)" fill="#8b8b8b"/>
      <ellipse id="타원_31" data-name="타원 31" cx="1.467" cy="2.522" rx="1.467" ry="2.522" transform="translate(9.52 4.697) rotate(-31.38)" fill="#8b8b8b"/>
      <ellipse id="타원_32" data-name="타원 32" cx="1.238" cy="2.109" rx="1.238" ry="2.109" transform="translate(6.757 7.891) rotate(-47.691)" fill="#8b8b8b"/>
      <ellipse id="타원_33" data-name="타원 33" cx="3.577" cy="2.064" rx="3.577" ry="2.064" transform="translate(1.545 28.218) rotate(-21.513)" fill="#8b8b8b"/>
      <ellipse id="타원_34" data-name="타원 34" cx="2.109" cy="1.238" rx="2.109" ry="1.238" transform="matrix(0.851, -0.525, 0.525, 0.851, 35.501, 8.694)" fill="#8b8b8b"/>
      <ellipse id="타원_35" data-name="타원 35" cx="1.788" cy="1.055" rx="1.788" ry="1.055" transform="matrix(0.756, -0.655, 0.655, 0.756, 38.995, 15.597)" fill="#8b8b8b"/>
      <ellipse id="타원_36" data-name="타원 36" cx="2.66" cy="1.559" rx="2.66" ry="1.559" transform="matrix(0.838, -0.546, 0.546, 0.838, 0.306, 24.047)" fill="#8b8b8b"/>
      <ellipse id="타원_37" data-name="타원 37" cx="2.522" cy="1.467" rx="2.522" ry="1.467" transform="translate(32.032 6.284) rotate(-43.189)" fill="#8b8b8b"/>
      <ellipse id="타원_38" data-name="타원 38" cx="2.155" cy="1.238" rx="2.155" ry="1.238" transform="matrix(0.271, -0.963, 0.963, 0.271, 13.896, 38.218)" fill="#8b8b8b"/>
      <path id="패스_2" data-name="패스 2" d="M51.481,48.193a.422.422,0,0,0-.55.046c-.046.046-.092.046-.138.092a3.27,3.27,0,0,1-2.339.871,3.341,3.341,0,0,1-2.706-1.559,4.386,4.386,0,0,1-.046-4.127c.321-.734.963-2.2,1.284-2.8a.458.458,0,0,0-.183-.55.438.438,0,0,0-.55.138c-.046.092-.734,1.467-1.376,2.66-.963,1.834-3.118,5-5.64,3.531-2.339-1.376-.6-8.346.183-11.006a.406.406,0,0,0-.78-.229c-.046.183-.138.367-.183.6-.642,2.109-1.238,4.127-2.843,4.494-1.238.321-3.072-1.146-4.219-2.247-.229-.229-.413-.459-.642-.688l-.092-.092c0-.046-.046-.046-.046-.092a.43.43,0,0,0-.5-.092.386.386,0,0,0-.183.5.611.611,0,0,0,.138.229,11.528,11.528,0,0,0,.825.871c3.027,3.348,3.9,6.1,2.66,8.621A5.238,5.238,0,0,1,29.7,50.257a4.936,4.936,0,0,1-4.173-1.1.486.486,0,0,0-.6-.046.429.429,0,0,0-.046.6,5.678,5.678,0,0,0,2.8,1.743c.138.046,3.256.688,4.127,3.348a9.233,9.233,0,0,1-.321,6.145c-.413.642-.688,1.192-.092,1.422s1.972.6,5.411.6a13.6,13.6,0,0,0,4.4-.5c.413-.138,1.192-.413.6-1.146-.5-.688-2.339-4.815-.5-7.521.963-1.467,3.164-2.018,5.228-2.522,2.109-.55,4.127-1.055,5.136-2.43C51.665,48.56,51.665,48.331,51.481,48.193Z" transform="translate(-13.985 -20.698)" fill="#8b8b8b"/>
    </g>
    <g id="그룹_5" data-name="그룹 5" transform="translate(50.131 14.445)">
      <g id="그룹_3" data-name="그룹 3" transform="translate(0.11 19.26)">
        <path id="패스_3" data-name="패스 3" d="M112.276,72.514a1.182,1.182,0,0,1-.321.917,1.292,1.292,0,0,1-.963.321,2.035,2.035,0,0,1-.6-.092.777.777,0,0,1-.367-.275,1.15,1.15,0,0,1-.183-.321.9.9,0,0,1-.046-.321.864.864,0,0,1,.092-.367.4.4,0,0,1,.275-.138.277.277,0,0,1,.275.138.864.864,0,0,1,.092.367.663.663,0,0,0,.092.321c.046.092.183.092.321.092.275,0,.413-.183.413-.6v-2.2a.454.454,0,0,1,.78-.321.387.387,0,0,1,.092.321v2.155Z" transform="translate(-109.8 -69.808)" fill="#8b8b8b"/>
        <path id="패스_4" data-name="패스 4" d="M117,70.559c0-.183.046-.321.138-.367a.494.494,0,0,1,.367-.092h1.972a.663.663,0,0,1,.321.092c.092.046.092.138.092.275a.388.388,0,0,1-.092.275.663.663,0,0,1-.321.092h-1.651v.825h1.422a.388.388,0,0,1,.275.092c.092.046.092.138.092.275a.492.492,0,0,1-.092.275.652.652,0,0,1-.275.092h-1.422v.917h1.7a.663.663,0,0,1,.321.092c.092.046.092.138.092.275a.388.388,0,0,1-.092.275.663.663,0,0,1-.321.092H117.5a.71.71,0,0,1-.367-.092c-.092-.046-.138-.5-.138-.688Z" transform="translate(-113.698 -69.917)" fill="#8b8b8b"/>
        <path id="패스_5" data-name="패스 5" d="M126.476,72.514a1.182,1.182,0,0,1-.321.917,1.292,1.292,0,0,1-.963.321,2.035,2.035,0,0,1-.6-.092.777.777,0,0,1-.367-.275,1.15,1.15,0,0,1-.183-.321.9.9,0,0,1-.046-.321.864.864,0,0,1,.092-.367.4.4,0,0,1,.275-.138.277.277,0,0,1,.275.138.864.864,0,0,1,.092.367.663.663,0,0,0,.092.321c.046.092.183.092.321.092.275,0,.413-.183.413-.6v-2.2a.454.454,0,0,1,.78-.321.387.387,0,0,1,.092.321v2.155Z" transform="translate(-117.488 -69.808)" fill="#8b8b8b"/>
        <path id="패스_6" data-name="패스 6" d="M131.2,70.159a.454.454,0,0,1,.78-.321.387.387,0,0,1,.092.321v2.018a.649.649,0,0,0,.734.734.67.67,0,0,0,.55-.183.731.731,0,0,0,.183-.55V70.159a.454.454,0,0,1,.78-.321.387.387,0,0,1,.092.321V72.13a1.354,1.354,0,0,1-.413,1.1,2.121,2.121,0,0,1-2.385,0,1.354,1.354,0,0,1-.413-1.1V70.159Z" transform="translate(-121.387 -69.7)" fill="#8b8b8b"/>
        <path id="패스_7" data-name="패스 7" d="M146.49,73.285c-.046.138-.092.275-.183.321a.71.71,0,0,1-.367.092.534.534,0,0,1-.321-.092c-.092-.046-.138-.183-.183-.321l-.55-2.293h0l-.55,2.293c-.046.138-.092.275-.183.321a.71.71,0,0,1-.367.092.534.534,0,0,1-.321-.092c-.092-.046-.138-.183-.183-.321l-.734-2.843a.5.5,0,0,1-.046-.229.277.277,0,0,1,.138-.275.652.652,0,0,1,.275-.092.4.4,0,0,1,.413.367l.5,2.476h0l.6-2.522c.046-.092.046-.183.138-.229a.534.534,0,0,1,.321-.092.439.439,0,0,1,.321.092,1.1,1.1,0,0,1,.138.321l.6,2.385h0l.5-2.476c.046-.229.183-.367.367-.367a.652.652,0,0,1,.275.092.327.327,0,0,1,.138.275.5.5,0,0,1-.046.229Z" transform="translate(-127.505 -69.754)" fill="#8b8b8b"/>
        <path id="패스_8" data-name="패스 8" d="M153.67,70.946a1.618,1.618,0,0,1,.367-.6,1.4,1.4,0,0,1,.6-.413,2.221,2.221,0,0,1,.825-.138,1.976,1.976,0,0,1,.78.138,1.745,1.745,0,0,1,.6.413,2.6,2.6,0,0,1,.367.6,2.142,2.142,0,0,1,.138.78,2.329,2.329,0,0,1-.138.78,1.8,1.8,0,0,1-.367.642,2.057,2.057,0,0,1-.6.459,2.545,2.545,0,0,1-1.651,0,1.4,1.4,0,0,1-.6-.413,1.416,1.416,0,0,1-.321-.642,2.146,2.146,0,0,1-.092-.78A1.524,1.524,0,0,1,153.67,70.946Zm.734,1.284a1.629,1.629,0,0,0,.183.413.617.617,0,0,0,.321.275,1.416,1.416,0,0,0,.5.092,1.151,1.151,0,0,0,.459-.092c.138-.046.229-.183.321-.275a1.629,1.629,0,0,0,.183-.413,1.72,1.72,0,0,0,.046-.5,1.322,1.322,0,0,0-.275-.871.89.89,0,0,0-.78-.321.945.945,0,0,0-.78.321,1.322,1.322,0,0,0-.275.871A1.649,1.649,0,0,1,154.4,72.23Z" transform="translate(-133.493 -69.754)" fill="#8b8b8b"/>
        <path id="패스_9" data-name="패스 9" d="M163,70.213a.357.357,0,0,1,.138-.321.663.663,0,0,1,.321-.092h.229a.663.663,0,0,1,.321.092c.092.046.138.138.183.321l.734,2.385h0l.734-2.385a.739.739,0,0,1,.183-.321.663.663,0,0,1,.321-.092h.229a.663.663,0,0,1,.321.092.357.357,0,0,1,.138.321v3.027a.388.388,0,0,1-.092.275.344.344,0,0,1-.55,0,.652.652,0,0,1-.092-.275V70.946h0l-.78,2.476c-.046.183-.183.229-.367.229a.363.363,0,0,1-.367-.229l-.78-2.476h0v2.293a.388.388,0,0,1-.092.275.344.344,0,0,1-.55,0,.652.652,0,0,1-.092-.275V70.213Z" transform="translate(-138.604 -69.754)" fill="#8b8b8b"/>
        <path id="패스_10" data-name="패스 10" d="M173.1,70.559c0-.183.046-.321.138-.367a.494.494,0,0,1,.367-.092h1.972a.663.663,0,0,1,.321.092c.092.046.092.138.092.275a.388.388,0,0,1-.092.275.663.663,0,0,1-.321.092h-1.605v.825h1.422a.388.388,0,0,1,.275.092c.092.046.092.138.092.275a.492.492,0,0,1-.092.275.652.652,0,0,1-.275.092h-1.422v.917h1.7a.663.663,0,0,1,.321.092c.092.046.092.138.092.275a.388.388,0,0,1-.092.275.663.663,0,0,1-.321.092H173.65a.71.71,0,0,1-.367-.092c-.092-.046-.138-.183-.138-.367V70.559Z" transform="translate(-144.072 -69.917)" fill="#8b8b8b"/>
        <path id="패스_11" data-name="패스 11" d="M180.8,70.3c0-.183.046-.321.138-.367a.56.56,0,0,1,.413-.138.482.482,0,0,1,.413.229l1.467,2.385h0v-2.2a.413.413,0,1,1,.825,0v2.935a.561.561,0,0,1-.138.413.451.451,0,0,1-.367.138c-.138,0-.229,0-.275-.046s-.138-.092-.183-.183l-1.467-2.339h0v2.155a.413.413,0,1,1-.825,0Z" transform="translate(-148.241 -69.754)" fill="#8b8b8b"/>
        <path id="패스_12" data-name="패스 12" d="M195.076,72.385c0-.046.046-.092.046-.138a.49.49,0,0,1,.138-.229.4.4,0,0,1,.275-.138.35.35,0,0,1,.229.092c.092.046.092.138.092.229a.169.169,0,0,1-.046.138.348.348,0,0,1-.092.183c-.046.046-.092.138-.138.183l-.138.138.321.367a.332.332,0,0,1,0,.459.652.652,0,0,1-.275.092.168.168,0,0,1-.138-.046c-.046-.046-.092-.046-.138-.092l-.229-.275a2.3,2.3,0,0,1-.55.367,1.561,1.561,0,0,1-.642.092,1.649,1.649,0,0,1-.5-.092,1,1,0,0,1-.367-.229,1.4,1.4,0,0,1-.229-.321,1.08,1.08,0,0,1-.092-.367,1.126,1.126,0,0,1,.229-.688,2.057,2.057,0,0,1,.6-.459c-.092-.138-.183-.229-.275-.367a.864.864,0,0,1-.092-.367.825.825,0,0,1,.321-.688,1.01,1.01,0,0,1,.734-.229,1.649,1.649,0,0,1,.5.092.823.823,0,0,1,.321.229.96.96,0,0,1,.183.275.78.78,0,0,1,.046.321.881.881,0,0,1-.183.55,1.165,1.165,0,0,1-.459.367Zm-1.192-.321a1.266,1.266,0,0,0-.367.275.5.5,0,0,0-.138.321.473.473,0,0,0,.5.5.864.864,0,0,0,.367-.092,1.394,1.394,0,0,0,.321-.229Zm-.046-.963c.046.092.138.138.275.275h0c.138-.092.229-.138.275-.229a.663.663,0,0,0,.092-.321.35.35,0,0,0-.092-.229.459.459,0,0,0-.55,0c-.092.046-.092.138-.092.229C193.792,70.917,193.792,71.009,193.838,71.1Z" transform="translate(-154.63 -69.862)" fill="#8b8b8b"/>
        <path id="패스_13" data-name="패스 13" d="M204.5,70.559c0-.183.046-.321.138-.367A.494.494,0,0,1,205,70.1h1.88a.663.663,0,0,1,.321.092c.092.046.092.138.092.275a.388.388,0,0,1-.092.275.663.663,0,0,1-.321.092h-1.513V71.7h1.284a.388.388,0,0,1,.275.092c.092.046.092.138.092.275a.492.492,0,0,1-.092.275.652.652,0,0,1-.275.092h-1.284v1.146a.663.663,0,0,1-.092.321.459.459,0,0,1-.78-.321Z" transform="translate(-161.073 -69.917)" fill="#8b8b8b"/>
        <path id="패스_14" data-name="패스 14" d="M211.492,70.129a.633.633,0,0,1,.138-.183c.046-.046.138-.046.275-.046h.183a.582.582,0,0,1,.275.046.458.458,0,0,1,.183.229l1.009,2.843c0,.046.046.138.046.183s.046.092.046.138a.4.4,0,0,1-.138.275.337.337,0,0,1-.275.092.363.363,0,0,1-.367-.229l-.229-.642h-1.376l-.229.642a.363.363,0,0,1-.367.229.388.388,0,0,1-.275-.092c-.092-.046-.092-.138-.092-.275a.168.168,0,0,1,.046-.138c0-.046.046-.138.046-.183Zm.55.642h0l-.5,1.513h1.009Z" transform="translate(-164.214 -69.808)" fill="#8b8b8b"/>
        <path id="패스_15" data-name="패스 15" d="M218.6,70.213a.357.357,0,0,1,.138-.321.663.663,0,0,1,.321-.092h.229a.663.663,0,0,1,.321.092c.092.046.138.138.183.321l.734,2.385h0l.734-2.385a.739.739,0,0,1,.183-.321.663.663,0,0,1,.321-.092h.229a.663.663,0,0,1,.321.092.357.357,0,0,1,.138.321v3.027a.388.388,0,0,1-.092.275.344.344,0,0,1-.55,0,.652.652,0,0,1-.092-.275V70.946h0l-.78,2.476c-.046.183-.183.229-.367.229a.363.363,0,0,1-.367-.229l-.78-2.476h0v2.293a.388.388,0,0,1-.092.275.344.344,0,0,1-.55,0,.652.652,0,0,1-.092-.275V70.213Z" transform="translate(-168.707 -69.754)" fill="#8b8b8b"/>
        <path id="패스_16" data-name="패스 16" d="M228.7,70.159a.454.454,0,0,1,.78-.321.387.387,0,0,1,.092.321v3.027a.663.663,0,0,1-.092.321.459.459,0,0,1-.78-.321Z" transform="translate(-174.176 -69.7)" fill="#8b8b8b"/>
        <path id="패스_17" data-name="패스 17" d="M232.2,70.159a.454.454,0,0,1,.78-.321.387.387,0,0,1,.092.321v2.66h1.422a.663.663,0,0,1,.321.092.277.277,0,0,1,.138.275.327.327,0,0,1-.138.275.663.663,0,0,1-.321.092H232.7a.71.71,0,0,1-.367-.092.451.451,0,0,1-.138-.367Z" transform="translate(-176.071 -69.7)" fill="#8b8b8b"/>
        <path id="패스_18" data-name="패스 18" d="M238.146,72.139,237.092,70.4c-.046-.092-.092-.138-.092-.229a.277.277,0,0,1,.138-.275.652.652,0,0,1,.275-.092.344.344,0,0,1,.229.046.633.633,0,0,1,.138.183l.734,1.376.734-1.376a.633.633,0,0,1,.138-.183.344.344,0,0,1,.229-.046.652.652,0,0,1,.275.092.327.327,0,0,1,.138.275c0,.092-.046.138-.092.229l-1.055,1.743v1.1a.663.663,0,0,1-.092.321.459.459,0,0,1-.78-.321v-1.1Z" transform="translate(-178.67 -69.754)" fill="#8b8b8b"/>
        <path id="패스_19" data-name="패스 19" d="M248.2,70.559c0-.183.046-.321.138-.367a.494.494,0,0,1,.367-.092h1.422a2.035,2.035,0,0,1,.6.092.887.887,0,0,1,.413.229,1.394,1.394,0,0,1,.229.321,1.009,1.009,0,0,1,.046.367.731.731,0,0,1-.183.55.775.775,0,0,1-.459.321h0a.617.617,0,0,1,.413.229.907.907,0,0,1,.092.5v.275a1.987,1.987,0,0,0,.046.229.5.5,0,0,1,.046.229.252.252,0,0,1-.138.229.651.651,0,0,1-.275.092.582.582,0,0,1-.275-.046c-.092-.046-.138-.092-.138-.183a.276.276,0,0,1-.046-.183v-.183a1.483,1.483,0,0,0-.138-.734.483.483,0,0,0-.459-.183h-.825v1.1a.663.663,0,0,1-.092.321.459.459,0,0,1-.78-.321Zm.871,1.146h1.1a.348.348,0,0,0,.183-.092l.138-.138a.344.344,0,0,0,.046-.229.561.561,0,0,0-.138-.413.687.687,0,0,0-.459-.092h-.871Z" transform="translate(-184.734 -69.917)" fill="#8b8b8b"/>
        <path id="패스_20" data-name="패스 20" d="M256.6,70.559c0-.183.046-.321.138-.367a.494.494,0,0,1,.367-.092h1.972a.663.663,0,0,1,.321.092c.092.046.092.138.092.275a.387.387,0,0,1-.092.275.663.663,0,0,1-.321.092h-1.651v.825h1.422a.388.388,0,0,1,.275.092c.092.046.092.138.092.275a.492.492,0,0,1-.092.275.652.652,0,0,1-.275.092h-1.422v.917h1.7a.663.663,0,0,1,.321.092c.092.046.092.138.092.275a.388.388,0,0,1-.092.275.663.663,0,0,1-.321.092H257.1a.71.71,0,0,1-.367-.092c-.092-.046-.138-.183-.138-.367Z" transform="translate(-189.282 -69.917)" fill="#8b8b8b"/>
        <path id="패스_21" data-name="패스 21" d="M266.055,71.559a1.373,1.373,0,0,1,.459.183,2,2,0,0,1,.321.275.416.416,0,0,1,.138.321.781.781,0,0,1,.046.321,1.065,1.065,0,0,1-.413.871,1.709,1.709,0,0,1-1.146.321,2.776,2.776,0,0,1-.688-.092,1.7,1.7,0,0,1-.5-.229.617.617,0,0,1-.275-.321.851.851,0,0,1-.092-.321.652.652,0,0,1,.092-.275.388.388,0,0,1,.275-.092.413.413,0,0,1,.229.046c.046.046.138.092.183.183.046.046.092.138.138.183l.138.138a.35.35,0,0,0,.229.092.68.68,0,0,0,.321.046.824.824,0,0,0,.5-.138.417.417,0,0,0,.183-.367.35.35,0,0,0-.092-.229.277.277,0,0,0-.275-.138l-.963-.229a1.374,1.374,0,0,1-.459-.183c-.138-.092-.229-.138-.275-.229l-.138-.275a.68.68,0,0,1-.046-.321.924.924,0,0,1,.138-.5,1.236,1.236,0,0,1,.321-.367,1.916,1.916,0,0,1,.459-.183,2.232,2.232,0,0,1,.55-.046,1.881,1.881,0,0,1,.5.046,1.372,1.372,0,0,1,.459.183,1,1,0,0,1,.321.275.971.971,0,0,1,.138.321.35.35,0,0,1-.092.229.652.652,0,0,1-.275.092c-.092,0-.138,0-.183-.046a.633.633,0,0,0-.183-.138,2,2,0,0,0-.321-.275,1.151,1.151,0,0,0-.459-.092.685.685,0,0,0-.459.138.416.416,0,0,0-.138.321.4.4,0,0,0,.138.275,2.132,2.132,0,0,0,.413.138Z" transform="translate(-193.234 -69.862)" fill="#8b8b8b"/>
        <path id="패스_22" data-name="패스 22" d="M272.1,70.559c0-.183.046-.321.138-.367a.494.494,0,0,1,.367-.092h1.972a.663.663,0,0,1,.321.092c.092.046.092.138.092.275a.388.388,0,0,1-.092.275.663.663,0,0,1-.321.092h-1.651v.825h1.422a.388.388,0,0,1,.275.092c.092.046.092.138.092.275a.491.491,0,0,1-.092.275.652.652,0,0,1-.275.092h-1.422v.917h1.7a.662.662,0,0,1,.321.092c.092.046.092.138.092.275a.388.388,0,0,1-.092.275.662.662,0,0,1-.321.092H272.6a.71.71,0,0,1-.367-.092c-.092-.046-.138-.183-.138-.367Z" transform="translate(-197.674 -69.917)" fill="#8b8b8b"/>
        <path id="패스_23" data-name="패스 23" d="M280.192,70.129a.634.634,0,0,1,.138-.183c.046-.046.138-.046.275-.046h.183a.582.582,0,0,1,.275.046.458.458,0,0,1,.183.229l1.009,2.843c0,.046.046.138.046.183s.046.092.046.138a.4.4,0,0,1-.138.275.337.337,0,0,1-.275.092.363.363,0,0,1-.367-.229l-.229-.642h-1.376l-.229.642a.363.363,0,0,1-.367.229.388.388,0,0,1-.275-.092c-.092-.046-.092-.138-.092-.275a.168.168,0,0,1,.046-.138c0-.046.046-.138.046-.183Zm.5.642h0l-.5,1.513H281.2Z" transform="translate(-201.41 -69.808)" fill="#8b8b8b"/>
        <path id="패스_24" data-name="패스 24" d="M287.3,70.559c0-.183.046-.321.138-.367a.494.494,0,0,1,.367-.092h1.422a2.036,2.036,0,0,1,.6.092.887.887,0,0,1,.413.229,1.393,1.393,0,0,1,.229.321,1.009,1.009,0,0,1,.046.367.731.731,0,0,1-.183.55.775.775,0,0,1-.459.321h0a.618.618,0,0,1,.413.229.907.907,0,0,1,.092.5v.275c0,.046.046.183.046.229a.5.5,0,0,1,.046.229.252.252,0,0,1-.138.229.652.652,0,0,1-.275.092.582.582,0,0,1-.275-.046c-.092-.046-.138-.092-.138-.183a.276.276,0,0,1-.046-.183v-.183a1.483,1.483,0,0,0-.138-.734.483.483,0,0,0-.459-.183h-.825v1.1a.663.663,0,0,1-.092.321.459.459,0,0,1-.78-.321Zm.871,1.146h1.1a.238.238,0,0,0,.183-.092l.138-.138a.344.344,0,0,0,.046-.229.561.561,0,0,0-.138-.413.687.687,0,0,0-.459-.092h-.871Z" transform="translate(-205.904 -69.917)" fill="#8b8b8b"/>
        <path id="패스_25" data-name="패스 25" d="M295.57,70.992a1.8,1.8,0,0,1,.367-.642,1.4,1.4,0,0,1,.6-.413,2.142,2.142,0,0,1,.78-.138,2.706,2.706,0,0,1,.642.092,1.075,1.075,0,0,1,.459.229.86.86,0,0,1,.275.321.85.85,0,0,1,.092.321c0,.275-.138.367-.367.367a.35.35,0,0,1-.229-.092,1,1,0,0,1-.183-.229.779.779,0,0,0-.275-.275.916.916,0,0,0-.413-.092.825.825,0,0,0-.688.321,1.455,1.455,0,0,0-.275.917,1.881,1.881,0,0,0,.046.5,1.133,1.133,0,0,0,.183.413.616.616,0,0,0,.321.275,1.356,1.356,0,0,0,.459.092.711.711,0,0,0,.367-.092,2,2,0,0,0,.275-.321c.092-.092.138-.183.183-.229a.348.348,0,0,1,.183-.092.492.492,0,0,1,.275.092.252.252,0,0,1,.138.229,1.339,1.339,0,0,1-.092.413,2.3,2.3,0,0,1-.321.367,1.434,1.434,0,0,1-.459.229,2.3,2.3,0,0,1-.55.092,1.871,1.871,0,0,1-1.376-.5,2.027,2.027,0,0,1-.5-1.467A1.251,1.251,0,0,1,295.57,70.992Z" transform="translate(-210.322 -69.754)" fill="#8b8b8b"/>
        <path id="패스_26" data-name="패스 26" d="M303.8,70.159a.454.454,0,0,1,.78-.321.387.387,0,0,1,.092.321v1.055h1.559V70.159a.454.454,0,0,1,.78-.321.387.387,0,0,1,.092.321v3.027a.663.663,0,0,1-.092.321.459.459,0,0,1-.78-.321V71.947h-1.559v1.238a.663.663,0,0,1-.092.321.459.459,0,0,1-.78-.321Z" transform="translate(-214.837 -69.7)" fill="#8b8b8b"/>
        <path id="패스_27" data-name="패스 27" d="M316,70.159a.454.454,0,0,1,.78-.321.387.387,0,0,1,.092.321v3.027a.663.663,0,0,1-.092.321.459.459,0,0,1-.78-.321Z" transform="translate(-221.443 -69.7)" fill="#8b8b8b"/>
        <path id="패스_28" data-name="패스 28" d="M319.6,70.3c0-.183.046-.321.138-.367a.561.561,0,0,1,.413-.138.482.482,0,0,1,.413.229l1.467,2.385h0v-2.2a.413.413,0,1,1,.825,0v2.935a.561.561,0,0,1-.138.413.451.451,0,0,1-.367.138c-.138,0-.229,0-.275-.046s-.138-.092-.183-.183l-1.467-2.339h0v2.155a.413.413,0,1,1-.825,0Z" transform="translate(-223.392 -69.754)" fill="#8b8b8b"/>
        <path id="패스_29" data-name="패스 29" d="M330.055,71.559a1.373,1.373,0,0,1,.459.183,2,2,0,0,1,.321.275.416.416,0,0,1,.138.321.781.781,0,0,1,.046.321,1.065,1.065,0,0,1-.413.871,1.709,1.709,0,0,1-1.146.321,2.775,2.775,0,0,1-.688-.092,1.7,1.7,0,0,1-.5-.229.616.616,0,0,1-.275-.321.85.85,0,0,1-.092-.321.652.652,0,0,1,.092-.275.388.388,0,0,1,.275-.092.413.413,0,0,1,.229.046c.046.046.138.092.183.183.046.046.092.138.138.183l.138.138a.35.35,0,0,0,.229.092.68.68,0,0,0,.321.046.824.824,0,0,0,.5-.138.417.417,0,0,0,.183-.367.35.35,0,0,0-.092-.229.277.277,0,0,0-.275-.138l-.963-.229a1.374,1.374,0,0,1-.459-.183c-.138-.092-.229-.138-.275-.229l-.138-.275a.679.679,0,0,1-.046-.321.925.925,0,0,1,.138-.5,1.237,1.237,0,0,1,.321-.367,1.916,1.916,0,0,1,.459-.183,2.232,2.232,0,0,1,.55-.046,1.881,1.881,0,0,1,.5.046,1.373,1.373,0,0,1,.459.183.994.994,0,0,1,.321.275.971.971,0,0,1,.138.321.35.35,0,0,1-.092.229.652.652,0,0,1-.275.092c-.092,0-.138,0-.183-.046a.634.634,0,0,0-.183-.138,1.994,1.994,0,0,0-.321-.275,1.151,1.151,0,0,0-.459-.092.685.685,0,0,0-.459.138.416.416,0,0,0-.138.321.4.4,0,0,0,.138.275,2.131,2.131,0,0,0,.413.138Z" transform="translate(-227.885 -69.862)" fill="#8b8b8b"/>
        <path id="패스_30" data-name="패스 30" d="M336.638,70.634h-.78a.663.663,0,0,1-.321-.092.277.277,0,0,1-.138-.275.327.327,0,0,1,.138-.275.663.663,0,0,1,.321-.092h2.43a.663.663,0,0,1,.321.092.277.277,0,0,1,.138.275.327.327,0,0,1-.138.275.663.663,0,0,1-.321.092h-.78v2.66a.459.459,0,0,1-.917,0v-2.66Z" transform="translate(-231.946 -69.808)" fill="#8b8b8b"/>
        <path id="패스_31" data-name="패스 31" d="M343.7,70.159a.454.454,0,0,1,.78-.321.387.387,0,0,1,.092.321v3.027a.663.663,0,0,1-.092.321.459.459,0,0,1-.78-.321Z" transform="translate(-236.44 -69.7)" fill="#8b8b8b"/>
        <path id="패스_32" data-name="패스 32" d="M347.738,70.634h-.78a.663.663,0,0,1-.321-.092.277.277,0,0,1-.138-.275.327.327,0,0,1,.138-.275.663.663,0,0,1,.321-.092h2.43a.663.663,0,0,1,.321.092.277.277,0,0,1,.138.275.327.327,0,0,1-.138.275.663.663,0,0,1-.321.092h-.78v2.66a.459.459,0,0,1-.917,0v-2.66Z" transform="translate(-237.956 -69.808)" fill="#8b8b8b"/>
        <path id="패스_33" data-name="패스 33" d="M354.8,70.159a.454.454,0,0,1,.78-.321.387.387,0,0,1,.092.321v2.018a.648.648,0,0,0,.734.734.67.67,0,0,0,.55-.183.731.731,0,0,0,.183-.55V70.159a.454.454,0,0,1,.78-.321.387.387,0,0,1,.092.321V72.13a1.354,1.354,0,0,1-.413,1.1,2.121,2.121,0,0,1-2.385,0,1.354,1.354,0,0,1-.413-1.1Z" transform="translate(-242.45 -69.7)" fill="#8b8b8b"/>
        <path id="패스_34" data-name="패스 34" d="M363.984,70.634h-.825a.663.663,0,0,1-.321-.092.277.277,0,0,1-.138-.275.327.327,0,0,1,.138-.275.663.663,0,0,1,.321-.092h2.43a.663.663,0,0,1,.321.092.277.277,0,0,1,.138.275.327.327,0,0,1-.138.275.663.663,0,0,1-.321.092h-.825v2.66a.662.662,0,0,1-.092.321.459.459,0,0,1-.78-.321v-2.66Z" transform="translate(-246.727 -69.808)" fill="#8b8b8b"/>
        <path id="패스_35" data-name="패스 35" d="M371.1,70.559c0-.183.046-.321.138-.367a.494.494,0,0,1,.367-.092h1.972a.663.663,0,0,1,.321.092c.092.046.092.138.092.275a.388.388,0,0,1-.092.275.663.663,0,0,1-.321.092h-1.6v.825h1.422a.388.388,0,0,1,.275.092c.092.046.092.138.092.275a.492.492,0,0,1-.092.275.652.652,0,0,1-.275.092h-1.422v.917h1.7a.663.663,0,0,1,.321.092c.092.046.092.138.092.275a.387.387,0,0,1-.092.275.663.663,0,0,1-.321.092H371.65a.71.71,0,0,1-.367-.092c-.092-.046-.138-.183-.138-.367V70.559Z" transform="translate(-251.275 -69.917)" fill="#8b8b8b"/>
      </g>
      <g id="그룹_4" data-name="그룹 4">
        <path id="패스_36" data-name="패스 36" d="M309.253,54.06c-1.33-.046-2.018-.459-1.788-1.972,0-.413-.046-.734-.5-.825-.6-.138-.963.183-1.055.78-.275,2.155.092,3.348,2.155,3.485,2.155.183,4.035-.275,3.9-1.146C311.913,53.785,310.583,54.106,309.253,54.06Z" transform="translate(-215.823 -40.44)" fill="#8b8b8b"/>
        <path id="패스_37" data-name="패스 37" d="M370.759,54.335c-.092-.6-1.376-.229-2.706-.275s-2.018-.459-1.788-1.972c0-.413-.046-.734-.5-.825-.6-.138-.963.183-1.055.78-.275,2.155.092,3.348,2.155,3.485C369.016,55.665,370.85,55.252,370.759,54.335Z" transform="translate(-247.659 -40.44)" fill="#8b8b8b"/>
        <path id="패스_38" data-name="패스 38" d="M278.223,51.876c-1.009-.6-4.677-.5-5.457-.229-.6.229-.917.413-.871.825.092.413.367.6,1.1.459a17.111,17.111,0,0,1,3.76-.046c1.146.183,1.055,1.422,1.009,2.064-.092.5.092.78.413.871a.768.768,0,0,0,1.009-.642C279.507,53.39,278.957,52.335,278.223,51.876Z" transform="translate(-197.45 -40.55)" fill="#8b8b8b"/>
        <path id="패스_39" data-name="패스 39" d="M136.422,31.6a.943.943,0,0,0-.963,1.055,60.18,60.18,0,0,1-.275,8.529.971.971,0,0,0,.871,1.192,1.009,1.009,0,0,0,1.009-.917,38.4,38.4,0,0,0,.183-8.85C137.293,32.331,137.109,31.552,136.422,31.6Z" transform="translate(-123.425 -29.809)" fill="#8b8b8b"/>
        <path id="패스_40" data-name="패스 40" d="M154.376,46.1H144.7c-.642,0-1.1.229-1.1.825,0,.5.321.688.871.734.6.046,2.568.046,3.256.046.871,0,.825.367.871.78.046,1.6.046,2.706.138,3.714.046.5.183.917.825.917s.825-.5.871-1.055c.046-.825,0-1.651.092-3.393.046-.825.092-.963.688-.963,1.146,0,1.651.046,2.889.046.78,0,1.192-.183,1.192-.78C155.2,46.509,154.973,46.05,154.376,46.1Z" transform="translate(-127.99 -37.659)" fill="#8b8b8b"/>
        <path id="패스_41" data-name="패스 41" d="M334.193,46.4H324.7c-.642,0-1.1.229-1.1.78,0,.5.321.688.871.688.6.046,2.522.046,3.21.046.871,0,.825.321.825.734.046,1.559.046,2.66.138,3.623.046.459.183.917.78.917.642,0,.825-.5.825-1.055.046-.825,0-1.651.092-3.348.046-.825.092-.917.642-.917,1.1,0,1.6.046,2.843.046.78,0,1.146-.183,1.146-.78A.65.65,0,0,0,334.193,46.4Z" transform="translate(-225.447 -37.821)" fill="#8b8b8b"/>
        <path id="패스_42" data-name="패스 42" d="M358.954,44.834a.748.748,0,0,0-.825-.734H351.8c-.642,0-1.1.229-1.1.78,0,.5.321.688.871.688.734.046.917.046,1.422.046.78,0,.78.459.78,1.1.046,1.009.275,1.238.871,1.238.413,0,.825-.138.825-1.055,0-1.055-.138-1.284.688-1.284,1.1,0,.413.046,1.651.046C358.587,45.613,358.954,45.43,358.954,44.834Z" transform="translate(-240.12 -36.579)" fill="#8b8b8b"/>
        <path id="패스_43" data-name="패스 43" d="M194.269,33.5c0-1.376-.321-2.247-1.1-2.2-.459,0-.688.459-.734,1.376,0,.917-.183,1.146-.78,1.192-.459,0-.734.046-1.055.046-.367,0-1.1.092-1.1.642s.688.825,1.055.825a11.626,11.626,0,0,0,1.192-.046c.55-.046.688.183.688.6,0,.688-.138.871-.55.871h-.871c-.367,0-1.238.046-1.238.78,0,.6.917.6,1.238.6h.871c.5,0,.275,1.422.275,1.651-.092,1.422,0,2.293.688,2.293a1.213,1.213,0,0,0,1.192-1.192C194.361,37.718,194.223,35.563,194.269,33.5Z" transform="translate(-152.841 -29.647)" fill="#8b8b8b"/>
        <path id="패스_44" data-name="패스 44" d="M211.328,37.08c.275-.321.275-.642-.413-1.33-.642-.642-.963-1.009-1.651-1.6-.321-.321-.413-.459.046-1.055a.913.913,0,0,0-1.513-1.009c-1.33,1.467-2.8,3.348-3.852,4.632-.5.6-.78,1.238-.321,1.559.6.413,1.467-.367,2.109-1.1.459-.55,1.009-1.146,1.376-1.559.642-.734,1.7.275,2.751,1.146C210.365,37.034,211.007,37.4,211.328,37.08Z" transform="translate(-160.362 -29.881)" fill="#8b8b8b"/>
        <path id="패스_45" data-name="패스 45" d="M257.574,36.724c-.55-.138-.688-.413-.688-.78v-1.33c0-.78-.046-1.834-.092-2.614-.092-.734-.275-1.009-.825-1.1-.55,0-1.192.229-1.1,1.422a81.062,81.062,0,0,1-.183,8.484,1.012,1.012,0,0,0,.734,1.146.93.93,0,0,0,1.192-.871c.092-.78.046-1.146.138-1.926.046-.55.229-.6.688-.642s.734-.046,1.1-.092c.6-.046.917-.183.825-.871C259.316,37,258.262,36.907,257.574,36.724Z" transform="translate(-188.127 -29.433)" fill="#8b8b8b"/>
        <path id="패스_46" data-name="패스 46" d="M115.31,39.937c-.367-.138-.688-.367-.413-1.192.55-1.7.459-3.348-1.192-3.852a5.12,5.12,0,0,0-3.669.413c-.5.321-.5.688-.459.825.046.321.321.6.871.5a17.016,17.016,0,0,1,2.018-.321c1.146-.046,1.238,1.009,1.192,1.467-.229,1.284-1.009,2.568-3.21,3.852a.565.565,0,0,0-.138.78c.183.275.55.229.963.138a8.387,8.387,0,0,0,2.155-1.284.992.992,0,0,1,1.146-.138c1.422.413,1.834.413,2.018-.092C116.686,40.717,116.456,40.35,115.31,39.937Z" transform="translate(-109.559 -31.5)" fill="#8b8b8b"/>
        <path id="패스_47" data-name="패스 47" d="M147.889,35.282a8.074,8.074,0,0,0,2.706-.642c.138-.046.275-.138.413-.183a1.469,1.469,0,0,1,1.009-.229,10.468,10.468,0,0,0,2.981.917.945.945,0,0,0,.78-.321c.092-.092.092-.183.046-.229-.046-.275-.6-.55-1.467-.917a9.618,9.618,0,0,1-1.559-.825l-.046-.046c-.138-.092-.229-.183-.092-.5.6-1.33.459-2.247-.413-2.8a4.592,4.592,0,0,0-2.2-.5,8.552,8.552,0,0,0-2.522.413c-.367.138-.6.459-.55.688s.183.734,1.146.688c.138,0,.367-.046.6-.046a9.161,9.161,0,0,1,1.559-.092c.871.046.871.55.825.917v.046c0,1.146-1.238,2.018-3.439,2.522-.321.092-.734.275-.78.55-.046.092,0,.229.138.367A1.324,1.324,0,0,0,147.889,35.282Z" transform="translate(-129.756 -28.404)" fill="#8b8b8b"/>
        <path id="패스_48" data-name="패스 48" d="M271.689,34.482a8.074,8.074,0,0,0,2.706-.642c.138-.046.275-.138.413-.183a1.469,1.469,0,0,1,1.009-.229,10.469,10.469,0,0,0,2.981.917.945.945,0,0,0,.78-.321c.092-.092.092-.183.046-.229-.046-.275-.6-.55-1.467-.917a8,8,0,0,1-1.559-.825l-.046-.046c-.138-.092-.229-.183-.092-.5.6-1.33.459-2.247-.413-2.8a4.592,4.592,0,0,0-2.2-.5,8.553,8.553,0,0,0-2.522.413c-.367.138-.6.459-.55.688.046.275.183.734,1.146.688.138,0,.367-.046.6-.046a9.161,9.161,0,0,1,1.559-.092c.871.046.871.55.825.917v.046c0,1.146-1.238,2.018-3.439,2.522-.321.092-.734.275-.78.55-.046.092,0,.229.138.367A1.417,1.417,0,0,0,271.689,34.482Z" transform="translate(-196.785 -27.971)" fill="#8b8b8b"/>
        <path id="패스_49" data-name="패스 49" d="M241.819,35.461a7.5,7.5,0,0,0-4.54-.55c-.55.183-.78.459-.78.871.046.6.55.963,1.513.917a5.374,5.374,0,0,1,2.247.275c.55.229,1.009.459.963,1.284a9.036,9.036,0,0,1-.6,2.935.73.73,0,0,0,.688,1.009.926.926,0,0,0,.825-.5,10.985,10.985,0,0,0,1.055-4.035A1.881,1.881,0,0,0,241.819,35.461Z" transform="translate(-178.288 -31.517)" fill="#8b8b8b"/>
        <path id="패스_50" data-name="패스 50" d="M329.252,31.285a8.945,8.945,0,0,1,2.935,0,1.276,1.276,0,0,1,1.055,1.192,9.305,9.305,0,0,1-.138,1.88.72.72,0,0,0,.734.917.98.98,0,0,0,.78-.55,6.906,6.906,0,0,0,.459-3.027c-.092-1.192-.367-1.7-1.513-2.064a10.337,10.337,0,0,0-5.182-.092c-.5.229-.734.5-.688.917C327.785,31.1,328.289,31.423,329.252,31.285Z" transform="translate(-227.66 -28.534)" fill="#8b8b8b"/>
        <path id="패스_51" data-name="패스 51" d="M314.769,28.5c-.459,0-.688.413-.734,1.376-.046.917-.229,1.146-.78,1.146H312.2c-.367,0-1.055.046-1.1.6,0,.55.688.825,1.009.825a10.379,10.379,0,0,0,1.146-.046c.55-.046.642.229.642.6,0,.642-.183.871-.55.871a5.492,5.492,0,0,0-.871,0c-.321,0-1.238.046-1.238.734,0,.6.871.6,1.238.642.275,0,.5.046.642.046.5,0,.459.5.413.734-.138,1.422-.046,2.247.6,2.247s.871-.55.963-1.192c.367-3.164.321-4.4.413-6.42C315.594,29.28,315.5,28.5,314.769,28.5Z" transform="translate(-218.679 -28.133)" fill="#8b8b8b"/>
        <path id="패스_52" data-name="패스 52" d="M301.945,35.118A2.979,2.979,0,0,0,298.918,32a3.155,3.155,0,0,0-2.155.734,2.912,2.912,0,0,0-.963,2.339,3.043,3.043,0,0,0,.963,2.339,3.236,3.236,0,0,0,2.155.734,3.116,3.116,0,0,0,2.109-.734A2.788,2.788,0,0,0,301.945,35.118Zm-1.422.046a2.151,2.151,0,0,1-.5,1.422,1.643,1.643,0,0,1-1.1.413,1.526,1.526,0,0,1-1.146-.413,2.01,2.01,0,0,1-.5-1.422,2.314,2.314,0,0,1,.5-1.513,1.526,1.526,0,0,1,1.146-.413,1.465,1.465,0,0,1,1.055.459A2.163,2.163,0,0,1,300.523,35.164Z" transform="translate(-210.395 -30.028)" fill="#8b8b8b"/>
        <path id="패스_53" data-name="패스 53" d="M278.043,43.543c-.275,0-3.348-.046-3.714-.046-.459,0-.5-.183-.5-.275v-.688a.716.716,0,0,0-.734-.734.776.776,0,0,0-.825.734,4.984,4.984,0,0,1-.092.688c0,.092-.046.229-.413.275-.963,0-3.118-.046-3.852-.046a1.04,1.04,0,0,0-.871.367.656.656,0,0,0-.138.5.978.978,0,0,0,1.009.642c.963,0,8.942-.046,10.226,0,.413,0,.871-.183.825-.78C278.915,43.772,278.594,43.543,278.043,43.543Z" transform="translate(-194.748 -35.334)" fill="#8b8b8b"/>
        <path id="패스_54" data-name="패스 54" d="M226.589,28.6a.929.929,0,0,0-.642.275.943.943,0,0,0-.183.825c.046.321.046.688.092,1.009a1.413,1.413,0,0,0,.046.459c0,.138.046,1.055-.413,1.055-.642,0-1.788,0-1.788.78,0,.825,1.055.78,2.064.825.367,0,.321.367.321.6.046.825,0,1.559,0,1.788,0,.688.229,1.1.734,1.1.55,0,.734-.321.825-.78a23.279,23.279,0,0,0,.046-6.97C227.506,29.15,227.323,28.646,226.589,28.6Z" transform="translate(-171.358 -28.187)" fill="#8b8b8b"/>
        <path id="패스_55" data-name="패스 55" d="M370.311,33.937h.367c.367,0,.413.275.413.55,0,.459.092,1.238.092,1.559.046.642.138.871.642.917h.046c.688,0,.871-.367.871-1.192,0-1.6-.046-6.1-.046-7.016a.983.983,0,0,0-.963-1.055c-.688.046-.734.642-.734,1.1,0,.5.046,2.614.046,3.072v.046c0,.275-.046.413-.459.413H370.4c-.688.046-1.6-.046-1.6.871C368.752,33.891,369.577,33.891,370.311,33.937Z" transform="translate(-249.917 -27.7)" fill="#8b8b8b"/>
        <path id="패스_56" data-name="패스 56" d="M356.018,34.07a3.242,3.242,0,0,0,2.109-.78,2.842,2.842,0,0,0,0-4.265,3.061,3.061,0,0,0-2.109-.825,3.273,3.273,0,0,0-2.155.78,2.661,2.661,0,0,0-.963,2.155,2.86,2.86,0,0,0,.963,2.155A3.052,3.052,0,0,0,356.018,34.07Zm-1.605-2.843a1.971,1.971,0,0,1,.5-1.284,1.487,1.487,0,0,1,1.1-.413,1.543,1.543,0,0,1,1.055.459,1.877,1.877,0,0,1,.55,1.238,2.051,2.051,0,0,1-.5,1.238,1.71,1.71,0,0,1-1.055.413,1.487,1.487,0,0,1-1.1-.413A1.877,1.877,0,0,1,354.413,31.227Z" transform="translate(-241.311 -27.971)" fill="#8b8b8b"/>
        <path id="패스_57" data-name="패스 57" d="M220.072,47.9a2.706,2.706,0,0,0-.642.092A3.117,3.117,0,0,0,217.6,49a2.681,2.681,0,0,0-.6,1.743q.138,3.1,3.439,2.889a2.615,2.615,0,0,0,1.88-1.009,2.719,2.719,0,0,0,.6-1.788,2.993,2.993,0,0,0-.871-2.109A2.569,2.569,0,0,0,220.072,47.9Zm.963,3.944a1.866,1.866,0,0,1-1.1.367,1.328,1.328,0,0,1-1.055-.459,1.487,1.487,0,0,1-.413-1.1,1.328,1.328,0,0,1,.459-1.055,1.6,1.6,0,0,1,1.146-.413c.871.046,1.376.6,1.422,1.6A1.068,1.068,0,0,1,221.035,51.844Z" transform="translate(-167.731 -38.637)" fill="#8b8b8b"/>
        <path id="패스_58" data-name="패스 58" d="M128.04,34.5c-.459,0-.5.5-.5.734a7.225,7.225,0,0,1-.046,1.376.551.551,0,0,1-.5.55c-.275,0-.55.046-.825.046-.413,0-1.009-.092-.963.6,0,.642,1.009.6,1.7.642.6.046.688.367.688.688a19.771,19.771,0,0,1-.275,3.118c-.046.459.183.78.5.78a.824.824,0,0,0,.871-.78,23.408,23.408,0,0,0,.138-6.42C128.82,35.139,128.59,34.452,128.04,34.5Z" transform="translate(-118.025 -31.379)" fill="#8b8b8b"/>
        <path id="패스_59" data-name="패스 59" d="M178.07,35.671a3.148,3.148,0,0,0-2.339-.871,3.754,3.754,0,0,0-2.476.825,3.152,3.152,0,0,0-1.055,2.522,3.417,3.417,0,0,0,1.055,2.614,3.841,3.841,0,0,0,2.476.825,3.471,3.471,0,0,0,2.339-.825,3.171,3.171,0,0,0,1.1-2.614A3.464,3.464,0,0,0,178.07,35.671Zm-1.1,3.9a2.2,2.2,0,0,1-1.422.459,1.764,1.764,0,0,1-1.33-.55,2.03,2.03,0,0,1-.5-1.376,1.6,1.6,0,0,1,.55-1.284,2.188,2.188,0,0,1,1.467-.5,1.827,1.827,0,0,1,1.788,2.018A1.291,1.291,0,0,1,176.969,39.569Z" transform="translate(-143.475 -31.544)" fill="#8b8b8b"/>
      </g>
    </g>
  </g>
</svg>
