<svg xmlns="http://www.w3.org/2000/svg" width="35.515" height="41.642" viewBox="0 0 35.515 41.642">
  <g id="그룹_556" data-name="그룹 556" transform="translate(-65.773 -40.363)">
    <g id="그룹_553" data-name="그룹 553" transform="translate(65.773 40.363)">
      <g id="그룹_552" data-name="그룹 552" transform="translate(12.306 12.759)">
        <circle id="타원_43" data-name="타원 43" cx="0.984" cy="0.984" r="0.984" transform="translate(0 7.336)" fill="#fff"/>
        <circle id="타원_44" data-name="타원 44" cx="0.984" cy="0.984" r="0.984" transform="translate(3.729)" fill="#fff"/>
        <circle id="타원_45" data-name="타원 45" cx="0.984" cy="0.984" r="0.984" transform="translate(8.486 5.178)" fill="#fff"/>
        <circle id="타원_46" data-name="타원 46" cx="0.984" cy="0.984" r="0.984" transform="translate(14.86 6.782)" fill="#fff"/>
      </g>
      <ellipse id="타원_47" data-name="타원 47" cx="0.904" cy="1.566" rx="0.904" ry="1.566" transform="translate(2.82 9.478) rotate(-26.788)" fill="#fff"/>
      <ellipse id="타원_48" data-name="타원 48" cx="1.041" cy="1.803" rx="1.041" ry="1.803" transform="translate(4.916 12.982) rotate(-38.541)" fill="#fff"/>
      <ellipse id="타원_49" data-name="타원 49" cx="1.444" cy="2.501" rx="1.444" ry="2.501" transform="matrix(0.194, -0.981, 0.981, 0.194, 0, 15.412)" fill="#fff"/>
      <ellipse id="타원_50" data-name="타원 50" cx="2.476" cy="1.43" rx="2.476" ry="1.43" transform="matrix(0.668, -0.744, 0.744, 0.668, 6.655, 30.2)" fill="#fff"/>
      <ellipse id="타원_51" data-name="타원 51" cx="1.444" cy="2.501" rx="1.444" ry="2.501" transform="translate(5.342 10.473) rotate(-50.866)" fill="#fff"/>
      <ellipse id="타원_52" data-name="타원 52" cx="2.015" cy="3.489" rx="2.015" ry="3.489" transform="translate(10.75 1.947) rotate(-19.252)" fill="#fff"/>
      <ellipse id="타원_53" data-name="타원 53" cx="2.501" cy="1.444" rx="2.501" ry="1.444" transform="translate(18.783 4.405) rotate(-57.459)" fill="#fff"/>
      <ellipse id="타원_54" data-name="타원 54" cx="2.501" cy="1.444" rx="2.501" ry="1.444" transform="matrix(0.608, -0.794, 0.794, 0.608, 23.992, 9.635)" fill="#fff"/>
      <ellipse id="타원_55" data-name="타원 55" cx="1.838" cy="1.061" rx="1.838" ry="1.061" transform="matrix(0.834, -0.552, 0.552, 0.834, 31.278, 15.575)" fill="#fff"/>
      <ellipse id="타원_56" data-name="타원 56" cx="2.603" cy="1.503" rx="2.603" ry="1.503" transform="matrix(0.951, -0.309, 0.309, 0.951, 27.985, 9.514)" fill="#fff"/>
      <ellipse id="타원_57" data-name="타원 57" cx="1.354" cy="2.345" rx="1.354" ry="2.345" transform="matrix(0.8, -0.6, 0.6, 0.8, 23.799, 27.625)" fill="#fff"/>
      <ellipse id="타원_58" data-name="타원 58" cx="1.061" cy="1.838" rx="1.061" ry="1.838" transform="translate(4.961 17.851) rotate(-86.937)" fill="#fff"/>
      <ellipse id="타원_59" data-name="타원 59" cx="2.214" cy="1.278" rx="2.214" ry="1.278" transform="translate(4.773 25.419) rotate(-12.583)" fill="#fff"/>
      <path id="패스_718" data-name="패스 718" d="M185.859,153.9a.063.063,0,0,0,.038-.052,1.935,1.935,0,0,0-2.7-1.926.063.063,0,0,0-.038.053,1.936,1.936,0,0,0,2.7,1.926Z" transform="translate(-155.395 -125.415)" fill="#fff"/>
      <ellipse id="타원_60" data-name="타원 60" cx="0.95" cy="1.55" rx="0.95" ry="1.55" transform="translate(31.125 22.892) rotate(-59.243)" fill="#fff"/>
      <ellipse id="타원_61" data-name="타원 61" cx="1.755" cy="3.039" rx="1.755" ry="3.039" transform="translate(5.305 21.612) rotate(-85.598)" fill="#fff"/>
      <ellipse id="타원_62" data-name="타원 62" cx="1.755" cy="3.039" rx="1.755" ry="3.039" transform="translate(8.36 14.458) rotate(-27.856)" fill="#fff"/>
      <ellipse id="타원_63" data-name="타원 63" cx="3.039" cy="1.755" rx="3.039" ry="1.755" transform="translate(15.648 11.128) rotate(-77.843)" fill="#fff"/>
      <ellipse id="타원_64" data-name="타원 64" cx="3.039" cy="1.755" rx="3.039" ry="1.755" transform="matrix(0.996, -0.093, 0.093, 0.996, 28.971, 17.456)" fill="#fff"/>
      <ellipse id="타원_65" data-name="타원 65" cx="3.039" cy="1.755" rx="3.039" ry="1.755" transform="matrix(0.529, -0.849, 0.849, 0.529, 21.604, 15.291)" fill="#fff"/>
      <ellipse id="타원_66" data-name="타원 66" cx="3.039" cy="1.755" rx="3.039" ry="1.755" transform="matrix(0.529, -0.849, 0.849, 0.529, 26.545, 16.38)" fill="#fff"/>
      <ellipse id="타원_67" data-name="타원 67" cx="2.891" cy="1.669" rx="2.891" ry="1.669" transform="matrix(0.08, -0.997, 0.997, 0.08, 20.693, 11.513)" fill="#fff"/>
      <ellipse id="타원_68" data-name="타원 68" cx="1.751" cy="3.032" rx="1.751" ry="3.032" transform="translate(8.824 9.581) rotate(-54.066)" fill="#fff"/>
      <ellipse id="타원_69" data-name="타원 69" cx="1.189" cy="2.058" rx="1.189" ry="2.058" transform="translate(29.138 26.309) rotate(-78.738)" fill="#fff"/>
      <ellipse id="타원_70" data-name="타원 70" cx="1.64" cy="0.947" rx="1.64" ry="0.947" transform="translate(22.396 31.366) rotate(-82.713)" fill="#fff"/>
      <ellipse id="타원_71" data-name="타원 71" cx="2.058" cy="1.189" rx="2.058" ry="1.189" transform="translate(23.527 5.411) rotate(-84.195)" fill="#fff"/>
      <ellipse id="타원_72" data-name="타원 72" cx="1.189" cy="2.058" rx="1.189" ry="2.058" transform="translate(15.838 0.53) rotate(-12.891)" fill="#fff"/>
      <ellipse id="타원_73" data-name="타원 73" cx="1.189" cy="2.058" rx="1.189" ry="2.058" transform="matrix(0.854, -0.521, 0.521, 0.854, 7.746, 3.812)" fill="#fff"/>
      <ellipse id="타원_74" data-name="타원 74" cx="0.992" cy="1.718" rx="0.992" ry="1.718" transform="translate(5.518 6.4) rotate(-47.692)" fill="#fff"/>
      <ellipse id="타원_75" data-name="타원 75" cx="2.917" cy="1.685" rx="2.917" ry="1.685" transform="translate(1.224 23.073) rotate(-21.515)" fill="#fff"/>
      <ellipse id="타원_76" data-name="타원 76" cx="1.715" cy="0.99" rx="1.715" ry="0.99" transform="matrix(0.851, -0.525, 0.525, 0.851, 28.946, 7.111)" fill="#fff"/>
      <ellipse id="타원_77" data-name="타원 77" cx="1.473" cy="0.851" rx="1.473" ry="0.851" transform="matrix(0.756, -0.655, 0.655, 0.756, 31.727, 12.759)" fill="#fff"/>
      <ellipse id="타원_78" data-name="타원 78" cx="2.171" cy="1.254" rx="2.171" ry="1.254" transform="translate(0.23 19.675) rotate(-33.076)" fill="#fff"/>
      <ellipse id="타원_79" data-name="타원 79" cx="2.048" cy="1.183" rx="2.048" ry="1.183" transform="matrix(0.729, -0.684, 0.684, 0.729, 26.097, 5.116)" fill="#fff"/>
      <ellipse id="타원_80" data-name="타원 80" cx="1.758" cy="1.015" rx="1.758" ry="1.015" transform="matrix(0.271, -0.963, 0.963, 0.271, 11.295, 31.276)" fill="#fff"/>
      <path id="패스_719" data-name="패스 719" d="M124.361,100.777a.477.477,0,0,0-.541.1,2.54,2.54,0,0,1-1.9.7,2.838,2.838,0,0,1-2.221-1.258,3.524,3.524,0,0,1-.031-3.348c.264-.605.795-1.775,1.028-2.3a.342.342,0,0,0-.593-.336c-.054.077-.606,1.177-1.13,2.159-.794,1.487-2.546,4.074-4.587,2.888-1.914-1.112-.482-6.788.153-8.969a.343.343,0,0,0-.656-.2c-.048.157-.1.314-.144.471-.523,1.722-1.018,3.35-2.32,3.678-1.007.254-2.5-.918-3.446-1.845q-.253-.278-.533-.562l-.091-.092-.052-.061a.343.343,0,0,0-.585.331.452.452,0,0,0,.127.187c.121.138.359.4.675.711,2.453,2.713,3.178,4.956,2.167,7.03a4.311,4.311,0,0,1-3.14,2.358,4.041,4.041,0,0,1-3.4-.9.367.367,0,0,0-.484-.026.343.343,0,0,0-.026.484,4.613,4.613,0,0,0,2.3,1.4c.107.035,2.645.563,3.372,2.723a7.365,7.365,0,0,1-.268,5c-.323.515-.559.957-.089,1.152a12.581,12.581,0,0,0,4.4.484,10.722,10.722,0,0,0,3.574-.411c.332-.119.962-.326.49-.935-.422-.545-1.888-3.94-.428-6.112.8-1.188,2.565-1.634,4.274-2.065s3.344-.843,4.186-1.973A.343.343,0,0,0,124.361,100.777Z" transform="translate(-93.844 -78.249)" fill="#fff"/>
    </g>
    <g id="그룹_555" data-name="그룹 555" transform="translate(67.651 77.946)">
      <g id="그룹_554" data-name="그룹 554" transform="translate(0)">
        <path id="패스_720" data-name="패스 720" d="M174.835,212.071c-.345-.016-.53-.115-.476-.519,0-.111-.015-.192-.133-.223-.153-.04-.25.052-.275.2-.076.569.025.876.573.919.569.044,1.057-.068,1.024-.305C175.528,211.995,175.181,212.087,174.835,212.071Z" transform="translate(-150.229 -208.471)" fill="#fff"/>
        <path id="패스_721" data-name="패스 721" d="M205.536,212.146c-.021-.151-.368-.059-.714-.076s-.53-.115-.476-.519c0-.111-.015-.192-.133-.223-.153-.04-.249.052-.275.2-.076.569.025.876.573.919C205.082,212.5,205.57,212.383,205.536,212.146Z" transform="translate(-173.124 -208.471)" fill="#fff"/>
        <path id="패스_722" data-name="패스 722" d="M158.3,211.572a3.018,3.018,0,0,0-1.432-.062c-.16.057-.246.111-.226.219s.1.162.287.124a3.89,3.89,0,0,1,.986-.007c.3.053.284.373.261.547-.025.136.022.2.108.228.145.04.232-.035.263-.173C158.637,211.967,158.484,211.686,158.3,211.572Z" transform="translate(-137.025 -208.574)" fill="#fff"/>
        <path id="패스_723" data-name="패스 723" d="M87.13,201.307a.247.247,0,0,0-.249.281,17.266,17.266,0,0,1-.068,2.245.246.246,0,0,0,.229.312.275.275,0,0,0,.266-.238,11,11,0,0,0,.053-2.328C87.359,201.5,87.313,201.3,87.13,201.307Z" transform="translate(-83.712 -200.827)" fill="#fff"/>
        <path id="패스_724" data-name="패스 724" d="M93.9,208.71c-.113,0-2.354,0-2.547-.006-.171,0-.294.064-.294.212s.084.18.228.188.681.008.863.008c.234,0,.222.091.226.2.017.423.016.707.033.974.008.129.051.245.214.245s.219-.135.227-.279c.012-.218,0-.44.026-.9.011-.216.018-.249.176-.249.3,0,.435.006.762.006.211,0,.309-.044.31-.208A.2.2,0,0,0,93.9,208.71Z" transform="translate(-86.957 -206.475)" fill="#fff"/>
        <path id="패스_725" data-name="패스 725" d="M185.757,208.84c-.111,0-2.314,0-2.5-.005-.168,0-.289.062-.289.209s.083.177.224.184.67.008.848.008c.23,0,.218.09.223.2.017.416.016.7.032.957.008.126.05.241.21.241s.215-.132.223-.274c.012-.214,0-.433.026-.884.011-.212.018-.245.173-.245.3,0,.428.006.749.006.207,0,.3-.043.3-.2A.2.2,0,0,0,185.757,208.84Z" transform="translate(-157.127 -206.575)" fill="#fff"/>
        <path id="패스_726" data-name="패스 726" d="M199,207.9a.2.2,0,0,0-.219-.191c-.111,0-1.475,0-1.665-.006-.168,0-.289.062-.289.209s.083.178.224.185c.195.01.239.007.379.007.21,0,.2.121.206.294.009.267.071.321.225.321.1,0,.217-.042.217-.277,0-.274-.036-.344.184-.344.3,0,.113.006.434.006C198.9,208.1,199,208.061,199,207.9Z" transform="translate(-167.711 -205.711)" fill="#fff"/>
        <path id="패스_727" data-name="패스 727" d="M115.785,201.749c.006-.361-.089-.59-.291-.585-.126,0-.187.117-.19.368s-.054.307-.2.311c-.118,0-.2.008-.282.009s-.285.021-.285.169.184.212.282.212.2,0,.312-.016c.151-.015.18.051.179.161,0,.176-.041.235-.141.232s-.146,0-.227.005-.331.018-.325.209c0,.16.24.157.331.158s.188,0,.235,0c.129,0,.078.379.074.438-.022.378,0,.607.176.6a.32.32,0,0,0,.31-.311C115.814,202.86,115.776,202.288,115.785,201.749Z" transform="translate(-104.881 -200.719)" fill="#fff"/>
        <path id="패스_728" data-name="패스 728" d="M123.791,202.73c.074-.084.077-.168-.105-.352-.164-.166-.259-.262-.432-.428-.086-.082-.105-.118.017-.279a.238.238,0,0,0-.092-.329.225.225,0,0,0-.3.057c-.353.382-.74.887-1.011,1.224-.13.161-.2.327-.08.409.158.108.387-.093.556-.29.127-.148.269-.3.364-.409.168-.193.446.068.727.306C123.532,202.726,123.707,202.826,123.791,202.73Z" transform="translate(-110.369 -200.827)" fill="#fff"/>
        <path id="패스_729" data-name="패스 729" d="M148.6,202.5c-.149-.038-.18-.109-.178-.21,0-.151,0-.2,0-.345-.005-.206-.008-.483-.022-.69-.021-.188-.077-.272-.217-.29-.139,0-.312.066-.291.378a20.032,20.032,0,0,1-.044,2.237.259.259,0,0,0,.19.3.252.252,0,0,0,.316-.231c.029-.207.015-.3.036-.507.015-.146.062-.162.184-.172s.188-.011.289-.02c.156-.014.248-.053.222-.235C149.061,202.564,148.774,202.541,148.6,202.5Z" transform="translate(-130.31 -200.563)" fill="#fff"/>
        <path id="패스_730" data-name="패스 730" d="M75.224,204.308c-.1-.037-.175-.1-.108-.311.142-.447.116-.887-.315-1.011a1.337,1.337,0,0,0-.964.108c-.131.085-.127.177-.118.221.017.084.088.153.228.132a4.021,4.021,0,0,1,.529-.085.3.3,0,0,1,.311.387,1.481,1.481,0,0,1-.847,1.019.144.144,0,0,0-.037.2c.052.075.149.057.259.031a2.156,2.156,0,0,0,.568-.337.258.258,0,0,1,.3-.039c.369.11.483.111.53-.025C75.587,204.514,75.532,204.421,75.224,204.308Z" transform="translate(-73.716 -202.075)" fill="#fff"/>
        <path id="패스_731" data-name="패스 731" d="M92.973,201.683a2.111,2.111,0,0,0,.715-.173c.036-.014.072-.032.107-.049a.359.359,0,0,1,.267-.059,2.64,2.64,0,0,0,.784.242.256.256,0,0,0,.206-.084.072.072,0,0,0,.018-.065c-.017-.076-.158-.14-.385-.239a2.042,2.042,0,0,1-.415-.215l-.017-.013c-.037-.026-.066-.047-.026-.133.162-.349.124-.595-.114-.731a1.164,1.164,0,0,0-.583-.132,2.149,2.149,0,0,0-.665.107.2.2,0,0,0-.147.176c.008.07.054.191.3.176.04,0,.1-.008.161-.015a3.167,3.167,0,0,1,.41-.027c.229.009.224.14.221.236v.015c-.006.3-.325.534-.9.67-.089.021-.193.076-.21.146a.1.1,0,0,0,.04.1A.361.361,0,0,0,92.973,201.683Z" transform="translate(-88.206 -199.856)" fill="#fff"/>
        <path id="패스_732" data-name="패스 732" d="M156.216,201.256a2.114,2.114,0,0,0,.715-.173c.036-.014.072-.032.107-.049a.361.361,0,0,1,.267-.059,2.628,2.628,0,0,0,.783.242.257.257,0,0,0,.206-.083.071.071,0,0,0,.018-.065c-.017-.076-.158-.141-.385-.24a2.058,2.058,0,0,1-.414-.215l-.017-.013c-.037-.026-.066-.047-.026-.133.162-.348.124-.594-.114-.731a1.164,1.164,0,0,0-.583-.131,2.146,2.146,0,0,0-.665.107.2.2,0,0,0-.147.176c.006.056.047.191.3.177.04,0,.1-.009.16-.015a3.166,3.166,0,0,1,.41-.027c.229.009.224.14.221.236v.015c-.005.3-.325.534-.9.67-.089.021-.193.076-.21.146a.1.1,0,0,0,.04.1A.364.364,0,0,0,156.216,201.256Z" transform="translate(-136.492 -199.53)" fill="#fff"/>
        <path id="패스_733" data-name="패스 733" d="M139.909,203.128a2.03,2.03,0,0,0-1.2-.146q-.209.07-.209.231c.014.157.148.257.4.243a1.366,1.366,0,0,1,.6.077c.143.058.267.126.251.344a2.189,2.189,0,0,1-.163.771.187.187,0,0,0,.179.261.246.246,0,0,0,.215-.128,3.1,3.1,0,0,0,.281-1.065A.5.5,0,0,0,139.909,203.128Z" transform="translate(-123.181 -202.075)" fill="#fff"/>
        <path id="패스_734" data-name="패스 734" d="M185.477,200.695a2.372,2.372,0,0,1,.776.006.338.338,0,0,1,.276.315,2.066,2.066,0,0,1-.035.5.191.191,0,0,0,.2.241.263.263,0,0,0,.2-.144,1.909,1.909,0,0,0,.127-.8c-.019-.312-.1-.451-.4-.546a2.756,2.756,0,0,0-1.37-.021q-.2.086-.185.244C185.089,200.644,185.228,200.73,185.477,200.695Z" transform="translate(-158.727 -199.956)" fill="#fff"/>
        <path id="패스_735" data-name="패스 735" d="M177.569,199.723c-.124,0-.187.11-.2.356s-.062.3-.208.3c-.116,0-.194,0-.277,0s-.281.014-.284.158.175.213.271.216.2,0,.307-.007c.149-.011.175.055.171.163-.006.173-.047.23-.145.224s-.144,0-.224,0-.325.008-.325.2c0,.157.231.161.321.164s.129.008.175.01c.13.006.115.133.11.191-.032.371-.012.6.156.6s.232-.143.254-.312c.1-.838.081-1.159.1-1.688C177.8,199.936,177.768,199.723,177.569,199.723Z" transform="translate(-152.27 -199.618)" fill="#fff"/>
        <path id="패스_736" data-name="패스 736" d="M170.424,202.341a.8.8,0,0,0-.246-.609.811.811,0,0,0-.562-.215.856.856,0,0,0-.574.2.777.777,0,0,0-.251.626.826.826,0,0,0,.251.626.91.91,0,0,0,1.136,0A.825.825,0,0,0,170.424,202.341Zm-.395.017a.552.552,0,0,1-.132.372.432.432,0,0,1-.282.107.4.4,0,0,1-.3-.1.553.553,0,0,1-.135-.375.581.581,0,0,1,.134-.394.435.435,0,0,1,.575.015A.559.559,0,0,1,170.03,202.358Z" transform="translate(-146.306 -200.988)" fill="#fff"/>
        <path id="패스_737" data-name="패스 737" d="M156.968,207.019c-.069,0-.883-.01-.983-.014-.118,0-.127-.049-.128-.069a1.752,1.752,0,0,1,.005-.184.183.183,0,0,0-.194-.188.216.216,0,0,0-.223.189c-.005.057-.021.179-.021.179,0,.021-.008.066-.11.068-.257.006-.815-.013-1.016-.013a.3.3,0,0,0-.235.094.159.159,0,0,0-.03.138c.031.14.191.164.26.164.248,0,2.36-.01,2.688,0a.191.191,0,0,0,.22-.207C157.192,207.075,157.117,207.019,156.968,207.019Z" transform="translate(-135.034 -204.842)" fill="#fff"/>
        <path id="패스_738" data-name="패스 738" d="M132.687,199.8a.236.236,0,0,0-.171.078.29.29,0,0,0-.05.221c.011.088.015.18.019.261,0,.046,0,.089.007.125s.017.277-.111.278c-.166,0-.474-.006-.475.211s.282.206.543.22c.091,0,.084.094.087.163.009.213,0,.411,0,.469,0,.187.056.292.191.292.15,0,.2-.086.221-.211a6.363,6.363,0,0,0,.018-1.84C132.931,199.937,132.875,199.805,132.687,199.8Z" transform="translate(-118.144 -199.675)" fill="#fff"/>
        <path id="패스_739" data-name="패스 739" d="M206.43,200.93l.093,0c.1.005.106.07.106.141,0,.126.019.329.025.412.012.164.033.23.166.237h.017c.178,0,.227-.1.227-.317,0-.421-.013-1.6-.013-1.849a.253.253,0,0,0-.252-.28c-.18.014-.2.171-.2.286,0,.136.017.688.006.809v.015c0,.067-.008.1-.123.11l-.047,0c-.177.008-.422-.008-.422.228C206.015,200.919,206.235,200.925,206.43,200.93Z" transform="translate(-174.726 -199.279)" fill="#fff"/>
        <path id="패스_740" data-name="패스 740" d="M198.792,201.151a.845.845,0,0,0,.558-.2.769.769,0,0,0,.251-.576.736.736,0,0,0-.251-.555.807.807,0,0,0-.557-.22.866.866,0,0,0-.573.2.714.714,0,0,0-.252.572.769.769,0,0,0,.252.577A.866.866,0,0,0,198.792,201.151Zm-.424-.763a.507.507,0,0,1,.137-.337.389.389,0,0,1,.287-.1.4.4,0,0,1,.269.119.443.443,0,0,1,0,.639.448.448,0,0,1-.273.106.388.388,0,0,1-.285-.1A.49.49,0,0,1,198.368,200.388Z" transform="translate(-168.582 -199.521)" fill="#fff"/>
        <path id="패스_741" data-name="패스 741" d="M129.411,209.626a.575.575,0,0,0-.168.022.773.773,0,0,0-.479.263.723.723,0,0,0-.154.457q.044.823.9.758a.773.773,0,0,0,.5-.26.749.749,0,0,0,.157-.476.785.785,0,0,0-.233-.552A.774.774,0,0,0,129.411,209.626Zm.252,1.047a.48.48,0,0,1-.295.095.352.352,0,0,1-.273-.116.408.408,0,0,1-.105-.284.352.352,0,0,1,.116-.273.437.437,0,0,1,.306-.106q.352.022.379.422A.309.309,0,0,1,129.663,210.673Z" transform="translate(-115.628 -207.179)" fill="#fff"/>
        <path id="패스_742" data-name="패스 742" d="M82.434,202.8c-.115,0-.133.127-.13.195a2.63,2.63,0,0,1-.015.358.149.149,0,0,1-.135.146l-.213.008c-.1,0-.262-.02-.256.152s.261.152.447.165c.162.011.182.1.185.179a5.336,5.336,0,0,1-.07.825c-.013.124.045.2.136.208a.242.242,0,0,0,.236-.2,6.511,6.511,0,0,0,.039-1.695C82.638,202.974,82.574,202.8,82.434,202.8Z" transform="translate(-79.801 -201.968)" fill="#fff"/>
        <path id="패스_743" data-name="패스 743" d="M106.586,202.942a1.019,1.019,0,0,0-.656.212.817.817,0,0,0-.28.669.863.863,0,0,0,.28.687,1.019,1.019,0,0,0,.656.213.914.914,0,0,0,.615-.213.856.856,0,0,0,.285-.687.831.831,0,0,0-.285-.651A.861.861,0,0,0,106.586,202.942Zm.326,1.262a.605.605,0,0,1-.371.119.443.443,0,0,1-.344-.147.514.514,0,0,1-.133-.358.443.443,0,0,1,.146-.344.551.551,0,0,1,.385-.133q.443.027.477.532A.389.389,0,0,1,106.912,204.2Z" transform="translate(-98.098 -202.076)" fill="#fff"/>
      </g>
    </g>
  </g>
</svg>
