<svg xmlns="http://www.w3.org/2000/svg" width="44" height="38.768" viewBox="0 0 44 38.768">
  <g id="그룹_543" data-name="그룹 543" transform="translate(-346.357 -489.75)">
    <path id="패스_693" data-name="패스 693" d="M390.357,528.518h-44V495.25h11.5v2.5h-9v28.268h39V497.75h-9.166v-2.5h11.666Z" fill="#333"/>
    <path id="패스_694" data-name="패스 694" d="M359.865,510.781a3.8,3.8,0,1,1,3.8-3.8A3.8,3.8,0,0,1,359.865,510.781Zm0-5.6a1.8,1.8,0,1,0,1.8,1.8A1.8,1.8,0,0,0,359.865,505.185Z" fill="#333"/>
    <path id="패스_695" data-name="패스 695" d="M366.885,520.824h-13.7l2.868-10.3h7.478Zm-11.065-2h8.311l-2.051-6.3h-4.506Z" fill="#333"/>
    <rect id="사각형_533" data-name="사각형 533" width="11.75" height="2" transform="translate(370.857 507.891)" fill="#333"/>
    <rect id="사각형_534" data-name="사각형 534" width="11.75" height="2" transform="translate(370.857 513.877)" fill="#333"/>
    <path id="패스_696" data-name="패스 696" d="M373.67,499.291H363.045V489.75H373.67Zm-8.125-2.5h5.625V492.25h-5.625Z" fill="#333"/>
    <rect id="사각형_535" data-name="사각형 535" width="2" height="1.291" transform="translate(367.525 494.377)" fill="#333"/>
    <rect id="사각형_536" data-name="사각형 536" width="14.418" height="2.5" transform="translate(361.107 496.791)" fill="#333"/>
  </g>
</svg>
