<svg xmlns="http://www.w3.org/2000/svg" width="44.952" height="36.045" viewBox="0 0 44.952 36.045">
  <g id="그룹_540" data-name="그룹 540" transform="translate(-345.948 -611.373)">
    <path id="패스_679" data-name="패스 679" d="M390.9,647.168h-7.895V619.7H390.9Zm-5.895-2H388.9V621.7h-3.895Z" fill="#333"/>
    <path id="패스_680" data-name="패스 680" d="M389,621.123l-2.044-4.334-2.043,4.334-1.809-.852,3.852-8.172,3.853,8.172Z" fill="#333"/>
    <rect id="사각형_517" data-name="사각형 517" width="1.831" height="2" transform="translate(386.037 616.057)" fill="#333"/>
    <path id="패스_681" data-name="패스 681" d="M378.454,647.418H353.777v-2.5h22.177V613.873H348.448v32.3h-2.5v-34.8h32.506Z" fill="#333"/>
    <rect id="사각형_518" data-name="사각형 518" width="5.334" height="2.5" transform="translate(374.537 616.75)" fill="#333"/>
    <rect id="사각형_519" data-name="사각형 519" width="5.334" height="2.5" transform="translate(374.537 623.836)" fill="#333"/>
    <rect id="사각형_520" data-name="사각형 520" width="5.334" height="2.5" transform="translate(374.537 630.922)" fill="#333"/>
    <rect id="사각형_521" data-name="사각형 521" width="5.334" height="2.5" transform="translate(374.537 638.008)" fill="#333"/>
    <rect id="사각형_522" data-name="사각형 522" width="13" height="2.5" transform="translate(355.61 620.75)" fill="#333"/>
    <rect id="사각형_523" data-name="사각형 523" width="5.895" height="2" transform="translate(384.005 642)" fill="#333"/>
  </g>
</svg>
