<svg xmlns="http://www.w3.org/2000/svg" width="47.878" height="40.835" viewBox="0 0 47.878 40.835">
  <g id="그룹_542" data-name="그룹 542" transform="translate(-219.099 -131.64)">
    <path id="패스_685" data-name="패스 685" d="M258.975,156.791l-1.786-1.751,1.071-1.092a.985.985,0,0,0,.213-1.3L245.2,139.636c-.287-.283-.9-.172-1.3.239l-.832.85-1.787-1.748.832-.851a3.437,3.437,0,0,1,4.836-.275l13.274,13.009a3.437,3.437,0,0,1-.178,4.839Z" fill="#333"/>
    <path id="패스_686" data-name="패스 686" d="M226.816,154.951a3.853,3.853,0,0,1-1.152-2.692,2.8,2.8,0,0,1,.824-2l11.942-11.647a3.359,3.359,0,0,1,4.689.416l-1.781,1.754c-.471-.479-1.018-.521-1.158-.383l-11.946,11.648a.366.366,0,0,0-.07.236,1.373,1.373,0,0,0,.434.915Z" fill="#333"/>
    <path id="패스_687" data-name="패스 687" d="M245.59,172.475a3.815,3.815,0,0,1-2.615-1.112l-.538-.52,1.741-1.795.533.517c.476.458.99.467,1.119.342l11.939-11.648a.364.364,0,0,0,.071-.237,1.37,1.37,0,0,0-.432-.909l-9.506-9.659,1.782-1.754,9.5,9.657a3.842,3.842,0,0,1,1.153,2.685,2.808,2.808,0,0,1-.822,2L247.574,171.7A2.8,2.8,0,0,1,245.59,172.475Z" fill="#333"/>
    <path id="패스_688" data-name="패스 688" d="M227.744,162.081a3.218,3.218,0,0,1-2.26-.977l-.744-.75a3.241,3.241,0,0,1-.945-1.993,2.65,2.65,0,0,1,.75-2.125l5.183-5.14a3,3,0,0,1,4.116.231l.746.753a3.231,3.231,0,0,1,.955,2.258,2.6,2.6,0,0,1-.764,1.858l-5.181,5.139A2.606,2.606,0,0,1,227.744,162.081Zm3.838-9.229-5.277,5.16a.206.206,0,0,0-.02.133.743.743,0,0,0,.231.449l.744.751a.641.641,0,0,0,.58.216l5.183-5.142a.682.682,0,0,0-.211-.58l-.744-.752A.733.733,0,0,0,231.582,152.852Z" fill="#333"/>
    <path id="패스_689" data-name="패스 689" d="M230.916,165.554a3.223,3.223,0,0,1-2.262-.977l-.744-.75a2.931,2.931,0,0,1-.2-4.118l5.183-5.139a3,3,0,0,1,4.118.229l.744.751a3.226,3.226,0,0,1,.957,2.258,2.608,2.608,0,0,1-.762,1.861l-5.184,5.14A2.6,2.6,0,0,1,230.916,165.554Zm3.838-9.23-5.279,5.16c-.045.045-.045.325.21.584l.745.75a.656.656,0,0,0,.58.217l5.183-5.141a.686.686,0,0,0-.211-.583l-.746-.752A.722.722,0,0,0,234.754,156.324Z" fill="#333"/>
    <path id="패스_690" data-name="패스 690" d="M234.428,168.815a3.221,3.221,0,0,1-2.262-.979l-.744-.75a3.218,3.218,0,0,1-.957-2.251,2.611,2.611,0,0,1,.76-1.865l5.185-5.14a3,3,0,0,1,4.115.233l.744.752a3.217,3.217,0,0,1,.956,2.249,2.607,2.607,0,0,1-.758,1.863l-5.184,5.141A2.606,2.606,0,0,1,234.428,168.815Zm3.836-9.232-5.278,5.162a.175.175,0,0,0-.021.1.727.727,0,0,0,.23.481l.746.752a.611.611,0,0,0,.58.218l5.184-5.141a.679.679,0,0,0-.211-.577l-.746-.756A.724.724,0,0,0,238.264,159.583Z" fill="#333"/>
    <path id="패스_691" data-name="패스 691" d="M237.883,172.055a3.221,3.221,0,0,1-2.26-.976l-.746-.752a3.248,3.248,0,0,1-.943-1.994,2.648,2.648,0,0,1,.751-2.124l5.18-5.139a3,3,0,0,1,4.117.232l.745.751a3.227,3.227,0,0,1,.957,2.25,2.614,2.614,0,0,1-.76,1.866l-5.186,5.14A2.607,2.607,0,0,1,237.883,172.055Zm3.838-9.23-5.278,5.16a.224.224,0,0,0-.019.134.741.741,0,0,0,.23.448l.744.752a.642.642,0,0,0,.579.216l5.187-5.14a.182.182,0,0,0,.02-.1.727.727,0,0,0-.231-.482l-.748-.756A.729.729,0,0,0,241.721,162.825Z" fill="#333"/>
    <path id="패스_692" data-name="패스 692" d="M241.49,153.632a3.683,3.683,0,0,1-3.556-2.27l-.065-.282-.85-7.741,5.672-5.671,1.768,1.768-4.824,4.823.7,6.346c.131.216.535.646,1.561.5l.1-.016.1,0c.11-.007.866-.129,1-1.739l-.127-4.408,3.321-3.065,1.7,1.836-2.484,2.294.1,3.4-.006.064c-.236,3.21-2.291,4.085-3.447,4.114A5.2,5.2,0,0,1,241.49,153.632Z" fill="#333"/>
    <rect id="사각형_526" data-name="사각형 526" width="8.239" height="2.5" transform="translate(244.436 137.466) rotate(-45)" fill="#333"/>
    <rect id="사각형_527" data-name="사각형 527" width="8.749" height="2.5" transform="matrix(0.714, -0.7, 0.7, 0.714, 258.98, 152.351)" fill="#333"/>
    <rect id="사각형_528" data-name="사각형 528" width="2.5" height="8.239" transform="matrix(0.707, -0.707, 0.707, 0.707, 234.045, 133.408)" fill="#333"/>
    <rect id="사각형_529" data-name="사각형 529" width="2.5" height="8.749" transform="matrix(0.7, -0.714, 0.714, 0.7, 219.099, 148.01)" fill="#333"/>
    <rect id="사각형_530" data-name="사각형 530" width="2.5" height="6.277" transform="translate(250.162 158.223) rotate(-46.548)" fill="#333"/>
    <rect id="사각형_531" data-name="사각형 531" width="2.5" height="6.274" transform="matrix(0.688, -0.726, 0.726, 0.688, 246.859, 161.581)" fill="#333"/>
    <rect id="사각형_532" data-name="사각형 532" width="2.501" height="5.514" transform="translate(243.877 165.097) rotate(-44.447)" fill="#333"/>
  </g>
</svg>
