<svg xmlns="http://www.w3.org/2000/svg" width="46.977" height="38.781" viewBox="0 0 46.977 38.781">
  <g id="그룹_545" data-name="그룹 545" transform="translate(-344.019 -374.376)">
    <path id="패스_698" data-name="패스 698" d="M364.152,410.891H352.588v-19.48h-8.569l9.068-17.035h7.788l.27.886a6.783,6.783,0,0,0,13.26,0l.271-.886h7.811L391,391.411h-8.031v1.223h-2.5v-3.723h6.488l-6.011-12.035h-4.456a9.2,9.2,0,0,1-17.422,0h-4.475l-6.408,12.035h6.907v19.48h9.064Z" fill="#333"/>
    <path id="패스_699" data-name="패스 699" d="M369.269,385.839a1.24,1.24,0,1,1-1.24-1.24A1.241,1.241,0,0,1,369.269,385.839Z" fill="#333"/>
    <path id="패스_700" data-name="패스 700" d="M369.269,391.894a1.24,1.24,0,1,1-1.24-1.241A1.242,1.242,0,0,1,369.269,391.894Z" fill="#333"/>
    <path id="패스_701" data-name="패스 701" d="M370.7,404.516h-2a8.643,8.643,0,0,1,16.968-2.321l-1.928.536a6.642,6.642,0,0,0-13.04,1.785Z" fill="#333"/>
    <path id="패스_702" data-name="패스 702" d="M377.346,413.157A8.659,8.659,0,0,1,369.2,407.4l1.885-.668a6.644,6.644,0,0,0,12.63-.321l1.918.567A8.687,8.687,0,0,1,377.346,413.157Z" fill="#333"/>
    <path id="패스_703" data-name="패스 703" d="M385.593,410.468l-1.146-3.482-3.354,1.176-.662-1.888,5.28-1.85,1.782,5.42Z" fill="#333"/>
  </g>
</svg>
