<svg xmlns="http://www.w3.org/2000/svg" width="33.264" height="40.646" viewBox="0 0 33.264 40.646">
  <g id="그룹_548" data-name="그룹 548" transform="translate(-227.251 -132.256)">
    <path id="패스_708" data-name="패스 708" d="M255.452,172.9H231.5l-.165-.045a6.078,6.078,0,0,1-4.086-5.592V153.877a16.632,16.632,0,0,1,33.264,0v13.388C260.515,169.9,257.817,172.9,255.452,172.9Zm-23.581-2.5h23.581c.847,0,2.563-1.725,2.563-3.137V153.877a14.132,14.132,0,0,0-28.264,0v13.388A3.566,3.566,0,0,0,231.871,170.4Z" fill="#333"/>
    <path id="패스_709" data-name="패스 709" d="M248.327,164.207H239.9V156h8.428Zm-5.928-2.5h3.428V158.5H242.4Z" fill="#333"/>
    <rect id="사각형_545" data-name="사각형 545" width="8.168" height="2.5" transform="translate(229.542 158.505)" fill="#333"/>
    <rect id="사각형_546" data-name="사각형 546" width="8.75" height="2.5" transform="translate(250.515 158.505)" fill="#333"/>
    <path id="패스_710" data-name="패스 710" d="M248.161,150.306h-7.592a2.337,2.337,0,0,1,0-4.673h7.592a2.337,2.337,0,0,1,0,4.673Zm-7.592-2.673a.337.337,0,0,0,0,.673h7.592a.337.337,0,0,0,0-.673Z" fill="#333"/>
    <path id="패스_711" data-name="패스 711" d="M256.265,145.838a1.25,1.25,0,0,1-1.25-1.25v-9.083a.748.748,0,1,0-1.5,0v4.8a1.25,1.25,0,0,1-2.5,0v-4.8a3.248,3.248,0,1,1,6.5,0v9.083A1.25,1.25,0,0,1,256.265,145.838Z" fill="#333"/>
    <path id="패스_712" data-name="패스 712" d="M231.4,145.838a1.25,1.25,0,0,1-1.25-1.25v-9.083a3.248,3.248,0,1,1,6.5,0v4.8a1.25,1.25,0,0,1-2.5,0v-4.8a.748.748,0,1,0-1.5,0v9.083A1.25,1.25,0,0,1,231.4,145.838Z" fill="#333"/>
  </g>
</svg>
