<svg xmlns="http://www.w3.org/2000/svg" width="42.553" height="36.92" viewBox="0 0 42.553 36.92">
  <g id="그룹_541" data-name="그룹 541" transform="translate(-224.374 -371.805)">
    <path id="패스_682" data-name="패스 682" d="M244.493,408.725v-30.5l.233-.327a16.179,16.179,0,0,1,12.8-6.1,19.178,19.178,0,0,1,3.522.336l1.018.193V401.94l-1.444-.229a12.182,12.182,0,0,0-1.618-.092,17.634,17.634,0,0,0-12.388,5.022Zm2.5-29.666v23.978a20.31,20.31,0,0,1,12.575-3.91V374.438a15.8,15.8,0,0,0-2.04-.133A13.774,13.774,0,0,0,246.993,379.059Z" fill="#333"/>
    <path id="패스_683" data-name="패스 683" d="M266.927,408.691H251.91v-2.5h12.517V380.455h-3.108v-2.5h5.608Z" fill="#333"/>
    <path id="패스_684" data-name="패스 684" d="M245.743,408.691H224.374V377.955h21.369v2.5H226.874v25.736h18.869Z" fill="#333"/>
    <rect id="사각형_524" data-name="사각형 524" width="7.086" height="2.5" transform="translate(231.481 387.416)" fill="#333"/>
    <rect id="사각형_525" data-name="사각형 525" width="7.22" height="2.5" transform="translate(231.393 394.332)" fill="#333"/>
  </g>
</svg>
