<svg xmlns="http://www.w3.org/2000/svg" width="37.139" height="37.146" viewBox="0 0 37.139 37.146">
  <g id="그룹_539" data-name="그룹 539" transform="translate(-118.156 -342.028)">
    <g id="그룹_538" data-name="그룹 538">
      <path id="패스_677" data-name="패스 677" d="M144.613,379.174h0a12.621,12.621,0,0,1-8.825-3.746l-7.951-7.952L143.6,351.712l7.951,7.953a12.55,12.55,0,0,1,3.733,8.295,10.536,10.536,0,0,1-10.67,11.214Zm-13.242-11.7,6.184,6.184a10.1,10.1,0,0,0,7.057,3.014h0a8.039,8.039,0,0,0,8.173-8.6,10.056,10.056,0,0,0-3-6.64l-6.183-6.184Z" fill="#333"/>
      <path id="패스_678" data-name="패스 678" d="M129.6,369.243l-7.708-7.707c-4.713-4.713-5.012-12.082-.666-16.428a10.653,10.653,0,0,1,7.6-3.08,12.619,12.619,0,0,1,8.825,3.746l7.707,7.706Zm-.77-24.715A8.172,8.172,0,0,0,123,346.876c-3.371,3.371-3.072,9.154.666,12.893l5.941,5.939,12.227-12.228-5.939-5.938A10.1,10.1,0,0,0,128.834,344.528Z" fill="#333"/>
    </g>
    <rect id="사각형_515" data-name="사각형 515" width="2.5" height="6.111" transform="matrix(0.712, -0.702, 0.702, 0.712, 124.888, 356.662)" fill="#333"/>
    <rect id="사각형_516" data-name="사각형 516" width="2.5" height="2.955" transform="translate(135.453 368.357) rotate(-44.812)" fill="#333"/>
  </g>
</svg>
